<svg width="320" height="308" viewBox="0 0 320 308" fill="none" xmlns="http://www.w3.org/2000/svg">
<path d="M265 57.75H240V72.1875C240 74.8344 237.75 77 235 77H225C222.25 77 220 74.8344 220 72.1875V57.75H100V72.1875C100 74.8344 97.75 77 95 77H85C82.25 77 80 74.8344 80 72.1875V57.75H55C41.25 57.75 30 68.5781 30 81.8125V245.438C30 258.672 41.25 269.5 55 269.5H265C278.75 269.5 290 258.672 290 245.438V81.8125C290 68.5781 278.75 57.75 265 57.75ZM270 238.219C270 244.836 264.375 250.25 257.5 250.25H62.5C55.625 250.25 50 244.836 50 238.219V129.938C50 127.291 52.25 125.125 55 125.125H265C267.75 125.125 270 127.291 270 129.938V238.219ZM100 43.3125C100 40.6656 97.75 38.5 95 38.5H85C82.25 38.5 80 40.6656 80 43.3125V57.75H100V43.3125ZM240 43.3125C240 40.6656 237.75 38.5 235 38.5H225C222.25 38.5 220 40.6656 220 43.3125V57.75H240V43.3125Z" fill="black" fill-opacity="0.1"/>
</svg>
