<svg width="514" height="516" viewBox="0 0 514 516" fill="none" xmlns="http://www.w3.org/2000/svg">
<path d="M243.307 55.2875C270.174 51.3689 298.571 49.9941 326.69 51.2504C354.81 52.5068 382.038 56.3668 406.643 62.5851C431.248 68.8035 452.692 77.2441 469.611 87.3703C486.531 97.4966 498.556 109.087 504.922 121.405C511.288 133.722 511.856 146.498 506.59 158.919C501.324 171.34 490.338 183.136 474.332 193.555C458.326 203.974 437.649 212.79 413.617 219.441C389.584 226.092 362.721 230.433 334.735 232.189" stroke="#FBD348" stroke-width="6.97652"/>
<path d="M237.559 458.305C202.391 457.43 168.53 453.657 137.909 447.2C107.289 440.744 80.5081 431.73 59.0969 420.675C37.6857 409.62 22.0631 396.739 13.121 382.769C4.17892 368.798 2.09247 354.011 6.9808 339.252C11.8691 324.492 23.6365 310.05 41.6111 296.749C59.5856 283.448 83.4154 271.549 111.74 261.731C140.064 251.914 172.328 244.37 206.69 239.53C241.052 234.69 276.839 232.65 312.007 233.525" stroke="#FBD348" stroke-width="6.97652"/>
<circle cx="351.969" cy="223.123" r="65.932" fill="#FBD348"/>
<path d="M298.616 223L298.156 221.856L301.142 218.493C301.3 218.326 301.463 218.135 301.63 217.921C301.807 217.698 301.974 217.47 302.133 217.237C302.291 217.005 302.416 216.777 302.509 216.554C302.612 216.321 302.663 216.103 302.663 215.898C302.663 215.6 302.602 215.349 302.481 215.144C302.37 214.93 302.202 214.768 301.979 214.656C301.765 214.544 301.505 214.489 301.198 214.489C300.928 214.489 300.663 214.568 300.402 214.726C300.142 214.884 299.905 215.107 299.691 215.396C299.477 215.684 299.309 216.019 299.189 216.4L298.03 215.675C298.189 215.135 298.426 214.675 298.742 214.293C299.068 213.903 299.454 213.605 299.9 213.4C300.356 213.196 300.849 213.093 301.379 213.093C301.928 213.093 302.416 213.21 302.844 213.442C303.272 213.665 303.607 213.982 303.849 214.391C304.091 214.791 304.212 215.256 304.212 215.786C304.212 216 304.188 216.219 304.142 216.442C304.095 216.665 304.021 216.898 303.919 217.14C303.816 217.372 303.686 217.619 303.528 217.879C303.37 218.13 303.179 218.395 302.956 218.675C302.742 218.954 302.495 219.247 302.216 219.554L299.998 221.967L299.719 221.549H304.519V223H298.616ZM306.554 223.153C306.247 223.153 306.009 223.065 305.842 222.888C305.675 222.702 305.591 222.442 305.591 222.107C305.591 221.8 305.679 221.549 305.856 221.354C306.033 221.158 306.265 221.061 306.554 221.061C306.861 221.061 307.098 221.154 307.265 221.34C307.433 221.516 307.516 221.772 307.516 222.107C307.516 222.414 307.428 222.665 307.251 222.86C307.075 223.056 306.842 223.153 306.554 223.153ZM316.43 223.14C315.9 223.14 315.407 223.07 314.951 222.93C314.504 222.791 314.095 222.581 313.723 222.302C313.36 222.014 313.035 221.661 312.746 221.242L313.779 220.056C314.234 220.707 314.672 221.158 315.09 221.409C315.509 221.661 316.007 221.786 316.583 221.786C316.937 221.786 317.258 221.73 317.546 221.619C317.834 221.507 318.062 221.354 318.23 221.158C318.397 220.963 318.481 220.74 318.481 220.488C318.481 220.321 318.453 220.163 318.397 220.014C318.341 219.865 318.253 219.73 318.132 219.609C318.02 219.488 317.872 219.377 317.686 219.275C317.509 219.172 317.3 219.084 317.058 219.009C316.816 218.926 316.537 218.856 316.22 218.8C315.718 218.698 315.281 218.563 314.909 218.395C314.537 218.228 314.225 218.019 313.974 217.768C313.723 217.516 313.537 217.233 313.416 216.916C313.295 216.591 313.235 216.228 313.235 215.828C313.235 215.437 313.318 215.075 313.486 214.74C313.662 214.405 313.9 214.117 314.197 213.875C314.504 213.624 314.862 213.433 315.272 213.303C315.681 213.163 316.123 213.093 316.597 213.093C317.1 213.093 317.56 213.158 317.979 213.289C318.397 213.419 318.769 213.614 319.095 213.875C319.42 214.126 319.69 214.437 319.904 214.81L318.844 215.856C318.658 215.549 318.448 215.293 318.216 215.089C317.983 214.875 317.727 214.717 317.448 214.614C317.169 214.503 316.872 214.447 316.555 214.447C316.193 214.447 315.876 214.503 315.607 214.614C315.337 214.726 315.123 214.884 314.965 215.089C314.816 215.284 314.741 215.517 314.741 215.786C314.741 215.982 314.779 216.163 314.853 216.33C314.927 216.489 315.039 216.633 315.188 216.763C315.346 216.884 315.555 216.996 315.816 217.098C316.076 217.191 316.388 217.275 316.751 217.349C317.262 217.461 317.718 217.605 318.118 217.782C318.518 217.949 318.858 218.149 319.137 218.382C319.416 218.614 319.625 218.875 319.765 219.163C319.913 219.451 319.988 219.763 319.988 220.098C319.988 220.721 319.844 221.261 319.555 221.716C319.267 222.172 318.858 222.526 318.327 222.777C317.797 223.019 317.165 223.14 316.43 223.14ZM321.997 223V215.675H323.435V223H321.997ZM322.695 214.056C322.388 214.056 322.151 213.977 321.983 213.819C321.816 213.661 321.732 213.438 321.732 213.149C321.732 212.879 321.816 212.661 321.983 212.493C322.16 212.326 322.397 212.242 322.695 212.242C323.002 212.242 323.239 212.321 323.407 212.479C323.574 212.638 323.658 212.861 323.658 213.149C323.658 213.419 323.569 213.638 323.393 213.805C323.225 213.972 322.993 214.056 322.695 214.056ZM328.923 226.209C328.402 226.209 327.881 226.125 327.36 225.958C326.848 225.8 326.434 225.591 326.118 225.33L326.648 224.214C326.834 224.353 327.053 224.474 327.304 224.577C327.555 224.688 327.82 224.772 328.099 224.828C328.378 224.893 328.653 224.926 328.923 224.926C329.434 224.926 329.862 224.842 330.206 224.674C330.55 224.507 330.811 224.26 330.988 223.935C331.164 223.609 331.253 223.205 331.253 222.721V221.312L331.406 221.409C331.36 221.698 331.206 221.977 330.946 222.247C330.695 222.507 330.378 222.721 329.997 222.888C329.616 223.056 329.225 223.14 328.825 223.14C328.127 223.14 327.504 222.977 326.955 222.651C326.416 222.316 325.988 221.865 325.671 221.298C325.355 220.721 325.197 220.065 325.197 219.33C325.197 218.595 325.351 217.944 325.658 217.377C325.974 216.8 326.402 216.349 326.941 216.023C327.49 215.689 328.104 215.521 328.783 215.521C329.062 215.521 329.332 215.558 329.592 215.633C329.853 215.698 330.095 215.796 330.318 215.926C330.541 216.047 330.741 216.182 330.918 216.33C331.095 216.479 331.239 216.637 331.35 216.805C331.462 216.972 331.532 217.13 331.56 217.279L331.253 217.391V215.675H332.69V222.554C332.69 223.14 332.601 223.656 332.425 224.102C332.257 224.558 332.011 224.939 331.685 225.246C331.36 225.563 330.964 225.8 330.499 225.958C330.034 226.125 329.509 226.209 328.923 226.209ZM328.978 221.814C329.434 221.814 329.839 221.707 330.192 221.493C330.546 221.279 330.82 220.986 331.015 220.614C331.211 220.242 331.309 219.814 331.309 219.33C331.309 218.847 331.206 218.419 331.002 218.047C330.806 217.665 330.532 217.368 330.178 217.154C329.834 216.94 329.434 216.833 328.978 216.833C328.532 216.833 328.132 216.944 327.778 217.168C327.434 217.382 327.16 217.679 326.955 218.061C326.76 218.433 326.662 218.856 326.662 219.33C326.662 219.805 326.76 220.233 326.955 220.614C327.16 220.986 327.434 221.279 327.778 221.493C328.132 221.707 328.532 221.814 328.978 221.814ZM334.705 223V215.675H336.142V217.182L335.891 217.349C335.984 217.023 336.165 216.726 336.435 216.456C336.705 216.177 337.026 215.954 337.398 215.786C337.77 215.61 338.151 215.521 338.542 215.521C339.1 215.521 339.565 215.633 339.937 215.856C340.309 216.07 340.588 216.4 340.774 216.847C340.96 217.293 341.054 217.856 341.054 218.535V223H339.616V218.633C339.616 218.214 339.561 217.87 339.449 217.6C339.337 217.321 339.165 217.121 338.933 217C338.7 216.87 338.412 216.814 338.068 216.833C337.789 216.833 337.533 216.879 337.3 216.972C337.068 217.056 336.863 217.177 336.686 217.335C336.519 217.493 336.384 217.679 336.282 217.893C336.189 218.098 336.142 218.321 336.142 218.563V223H335.43C335.31 223 335.189 223 335.068 223C334.947 223 334.826 223 334.705 223ZM349.481 223.14C348.96 223.14 348.504 223.019 348.114 222.777C347.732 222.535 347.435 222.195 347.221 221.758C347.016 221.321 346.914 220.8 346.914 220.195V215.675H348.351V219.805C348.351 220.233 348.416 220.605 348.546 220.921C348.686 221.228 348.881 221.465 349.132 221.633C349.393 221.8 349.704 221.884 350.067 221.884C350.337 221.884 350.583 221.842 350.807 221.758C351.03 221.665 351.221 221.54 351.379 221.381C351.546 221.223 351.676 221.033 351.769 220.809C351.862 220.586 351.909 220.344 351.909 220.084V215.675H353.346V223H351.909V221.465L352.16 221.298C352.049 221.642 351.858 221.954 351.588 222.233C351.328 222.512 351.016 222.735 350.653 222.902C350.29 223.06 349.9 223.14 349.481 223.14ZM355.362 226.07V215.675H356.813V217.349L356.59 217.223C356.646 216.944 356.804 216.679 357.064 216.428C357.325 216.168 357.641 215.958 358.013 215.8C358.394 215.633 358.785 215.549 359.185 215.549C359.845 215.549 360.432 215.712 360.943 216.037C361.455 216.363 361.859 216.81 362.157 217.377C362.455 217.944 362.604 218.595 362.604 219.33C362.604 220.056 362.455 220.707 362.157 221.284C361.869 221.851 361.469 222.302 360.957 222.637C360.445 222.963 359.869 223.126 359.227 223.126C358.799 223.126 358.385 223.042 357.985 222.874C357.585 222.698 357.246 222.474 356.967 222.205C356.687 221.935 356.515 221.656 356.45 221.367L356.813 221.172V226.07H355.362ZM358.99 221.8C359.418 221.8 359.799 221.693 360.134 221.479C360.469 221.265 360.734 220.972 360.929 220.6C361.125 220.228 361.222 219.805 361.222 219.33C361.222 218.856 361.125 218.437 360.929 218.075C360.743 217.702 360.483 217.409 360.148 217.196C359.813 216.982 359.427 216.875 358.99 216.875C358.553 216.875 358.166 216.982 357.832 217.196C357.497 217.4 357.232 217.689 357.036 218.061C356.841 218.433 356.743 218.856 356.743 219.33C356.743 219.805 356.841 220.228 357.036 220.6C357.232 220.972 357.497 221.265 357.832 221.479C358.166 221.693 358.553 221.8 358.99 221.8ZM368.982 223V213.805H370.419V223H368.982ZM367.461 217.07V215.675H372.121V217.07H367.461ZM376.655 223.14C375.939 223.14 375.297 222.977 374.729 222.651C374.171 222.316 373.729 221.865 373.404 221.298C373.078 220.721 372.915 220.065 372.915 219.33C372.915 218.595 373.078 217.944 373.404 217.377C373.729 216.8 374.171 216.349 374.729 216.023C375.297 215.689 375.939 215.521 376.655 215.521C377.362 215.521 377.994 215.689 378.552 216.023C379.12 216.349 379.566 216.8 379.892 217.377C380.217 217.944 380.38 218.595 380.38 219.33C380.38 220.065 380.217 220.721 379.892 221.298C379.566 221.865 379.12 222.316 378.552 222.651C377.994 222.977 377.362 223.14 376.655 223.14ZM376.655 221.828C377.092 221.828 377.483 221.721 377.827 221.507C378.171 221.284 378.441 220.986 378.636 220.614C378.831 220.233 378.925 219.805 378.915 219.33C378.925 218.847 378.831 218.419 378.636 218.047C378.441 217.665 378.171 217.368 377.827 217.154C377.483 216.94 377.092 216.833 376.655 216.833C376.218 216.833 375.822 216.944 375.469 217.168C375.125 217.382 374.855 217.679 374.66 218.061C374.464 218.433 374.371 218.856 374.38 219.33C374.371 219.805 374.464 220.233 374.66 220.614C374.855 220.986 375.125 221.284 375.469 221.507C375.822 221.721 376.218 221.828 376.655 221.828ZM386.764 223V213.805H388.201V223H386.764ZM385.243 217.07V215.675H389.903V217.07H385.243ZM391.212 223V212.675H392.649V217.182L392.398 217.349C392.491 217.023 392.672 216.726 392.942 216.456C393.212 216.177 393.533 215.954 393.905 215.786C394.277 215.61 394.658 215.521 395.049 215.521C395.607 215.521 396.072 215.633 396.444 215.856C396.816 216.07 397.096 216.4 397.282 216.847C397.468 217.293 397.561 217.856 397.561 218.535V223H396.123V218.633C396.123 218.214 396.068 217.87 395.956 217.6C395.844 217.321 395.672 217.121 395.44 217C395.207 216.87 394.919 216.814 394.575 216.833C394.296 216.833 394.04 216.879 393.807 216.972C393.575 217.056 393.37 217.177 393.193 217.335C393.026 217.493 392.891 217.679 392.789 217.893C392.696 218.098 392.649 218.321 392.649 218.563V223H391.938C391.817 223 391.696 223 391.575 223C391.454 223 391.333 223 391.212 223ZM402.929 223.14C402.175 223.14 401.505 222.981 400.919 222.665C400.343 222.34 399.887 221.898 399.552 221.34C399.226 220.781 399.064 220.14 399.064 219.414C399.064 218.837 399.157 218.312 399.343 217.837C399.529 217.363 399.785 216.954 400.11 216.61C400.445 216.256 400.84 215.986 401.296 215.8C401.761 215.605 402.264 215.507 402.803 215.507C403.278 215.507 403.719 215.6 404.129 215.786C404.538 215.963 404.891 216.21 405.189 216.526C405.496 216.842 405.729 217.219 405.887 217.656C406.054 218.084 406.133 218.554 406.124 219.065L406.11 219.679H400.124L399.803 218.535H404.868L404.659 218.772V218.437C404.631 218.13 404.529 217.856 404.352 217.614C404.175 217.372 403.952 217.182 403.682 217.042C403.412 216.903 403.119 216.833 402.803 216.833C402.301 216.833 401.878 216.93 401.533 217.126C401.189 217.312 400.929 217.591 400.752 217.963C400.575 218.326 400.487 218.777 400.487 219.316C400.487 219.828 400.594 220.275 400.808 220.656C401.022 221.028 401.324 221.316 401.715 221.521C402.105 221.726 402.557 221.828 403.068 221.828C403.431 221.828 403.766 221.767 404.073 221.647C404.389 221.526 404.729 221.307 405.091 220.991L405.817 222.009C405.594 222.233 405.319 222.428 404.994 222.595C404.677 222.763 404.338 222.898 403.975 223C403.622 223.093 403.273 223.14 402.929 223.14ZM309.808 237.14C309.129 237.14 308.52 236.972 307.98 236.637C307.45 236.302 307.027 235.847 306.711 235.27C306.404 234.693 306.25 234.047 306.25 233.33C306.25 232.614 306.404 231.968 306.711 231.391C307.027 230.814 307.45 230.358 307.98 230.023C308.52 229.689 309.129 229.521 309.808 229.521C310.459 229.521 311.05 229.656 311.58 229.926C312.12 230.186 312.529 230.544 312.808 231L312.013 231.977C311.864 231.763 311.673 231.568 311.441 231.391C311.208 231.214 310.962 231.075 310.701 230.972C310.441 230.87 310.19 230.819 309.948 230.819C309.501 230.819 309.101 230.93 308.748 231.154C308.404 231.368 308.129 231.665 307.924 232.047C307.72 232.428 307.618 232.856 307.618 233.33C307.618 233.805 307.724 234.233 307.938 234.614C308.152 234.986 308.436 235.284 308.79 235.507C309.143 235.73 309.534 235.842 309.962 235.842C310.213 235.842 310.455 235.8 310.687 235.716C310.929 235.633 311.162 235.507 311.385 235.34C311.608 235.172 311.817 234.968 312.013 234.726L312.808 235.702C312.51 236.121 312.082 236.465 311.524 236.735C310.976 237.005 310.403 237.14 309.808 237.14ZM317.457 237.14C316.74 237.14 316.098 236.977 315.531 236.651C314.973 236.316 314.531 235.865 314.206 235.298C313.88 234.721 313.717 234.065 313.717 233.33C313.717 232.595 313.88 231.944 314.206 231.377C314.531 230.8 314.973 230.349 315.531 230.023C316.098 229.689 316.74 229.521 317.457 229.521C318.164 229.521 318.796 229.689 319.354 230.023C319.922 230.349 320.368 230.8 320.694 231.377C321.019 231.944 321.182 232.595 321.182 233.33C321.182 234.065 321.019 234.721 320.694 235.298C320.368 235.865 319.922 236.316 319.354 236.651C318.796 236.977 318.164 237.14 317.457 237.14ZM317.457 235.828C317.894 235.828 318.284 235.721 318.629 235.507C318.973 235.284 319.243 234.986 319.438 234.614C319.633 234.233 319.726 233.805 319.717 233.33C319.726 232.847 319.633 232.419 319.438 232.047C319.243 231.665 318.973 231.368 318.629 231.154C318.284 230.94 317.894 230.833 317.457 230.833C317.019 230.833 316.624 230.944 316.271 231.168C315.926 231.382 315.657 231.679 315.461 232.061C315.266 232.433 315.173 232.856 315.182 233.33C315.173 233.805 315.266 234.233 315.461 234.614C315.657 234.986 315.926 235.284 316.271 235.507C316.624 235.721 317.019 235.828 317.457 235.828ZM322.72 237V229.675H324.171V231.237L323.906 231.405C323.981 231.163 324.097 230.93 324.255 230.707C324.422 230.484 324.622 230.289 324.855 230.121C325.097 229.944 325.353 229.805 325.622 229.703C325.901 229.6 326.185 229.549 326.474 229.549C326.892 229.549 327.26 229.619 327.576 229.758C327.892 229.898 328.153 230.107 328.357 230.386C328.562 230.665 328.711 231.014 328.804 231.433L328.58 231.377L328.678 231.14C328.78 230.926 328.92 230.726 329.097 230.54C329.283 230.344 329.492 230.172 329.725 230.023C329.957 229.875 330.204 229.758 330.464 229.675C330.725 229.591 330.98 229.549 331.232 229.549C331.78 229.549 332.231 229.661 332.585 229.884C332.948 230.107 333.217 230.447 333.394 230.903C333.58 231.358 333.673 231.926 333.673 232.605V237H332.222V232.689C332.222 232.27 332.166 231.93 332.055 231.67C331.952 231.4 331.794 231.2 331.58 231.07C331.366 230.94 331.092 230.875 330.757 230.875C330.497 230.875 330.25 230.921 330.018 231.014C329.794 231.098 329.599 231.219 329.432 231.377C329.264 231.535 329.134 231.721 329.041 231.935C328.948 232.14 328.901 232.368 328.901 232.619V237H327.45V232.661C327.45 232.279 327.394 231.958 327.283 231.698C327.171 231.428 327.008 231.223 326.794 231.084C326.58 230.944 326.32 230.875 326.013 230.875C325.753 230.875 325.511 230.921 325.288 231.014C325.064 231.098 324.869 231.219 324.701 231.377C324.534 231.526 324.404 231.707 324.311 231.921C324.218 232.126 324.171 232.349 324.171 232.591V237H322.72ZM335.569 237V229.675H337.021V231.237L336.755 231.405C336.83 231.163 336.946 230.93 337.104 230.707C337.272 230.484 337.472 230.289 337.704 230.121C337.946 229.944 338.202 229.805 338.472 229.703C338.751 229.6 339.034 229.549 339.323 229.549C339.741 229.549 340.109 229.619 340.425 229.758C340.741 229.898 341.002 230.107 341.207 230.386C341.411 230.665 341.56 231.014 341.653 231.433L341.43 231.377L341.527 231.14C341.63 230.926 341.769 230.726 341.946 230.54C342.132 230.344 342.341 230.172 342.574 230.023C342.806 229.875 343.053 229.758 343.313 229.675C343.574 229.591 343.83 229.549 344.081 229.549C344.63 229.549 345.081 229.661 345.434 229.884C345.797 230.107 346.067 230.447 346.244 230.903C346.43 231.358 346.523 231.926 346.523 232.605V237H345.071V232.689C345.071 232.27 345.016 231.93 344.904 231.67C344.802 231.4 344.644 231.2 344.43 231.07C344.216 230.94 343.941 230.875 343.606 230.875C343.346 230.875 343.099 230.921 342.867 231.014C342.644 231.098 342.448 231.219 342.281 231.377C342.113 231.535 341.983 231.721 341.89 231.935C341.797 232.14 341.751 232.368 341.751 232.619V237H340.3V232.661C340.3 232.279 340.244 231.958 340.132 231.698C340.02 231.428 339.858 231.223 339.644 231.084C339.43 230.944 339.169 230.875 338.862 230.875C338.602 230.875 338.36 230.921 338.137 231.014C337.914 231.098 337.718 231.219 337.551 231.377C337.383 231.526 337.253 231.707 337.16 231.921C337.067 232.126 337.021 232.349 337.021 232.591V237H335.569ZM348.684 237V229.675H350.121V237H348.684ZM349.382 228.056C349.075 228.056 348.837 227.977 348.67 227.819C348.503 227.661 348.419 227.438 348.419 227.149C348.419 226.879 348.503 226.661 348.67 226.493C348.847 226.326 349.084 226.242 349.382 226.242C349.689 226.242 349.926 226.321 350.093 226.479C350.261 226.638 350.344 226.861 350.344 227.149C350.344 227.419 350.256 227.638 350.079 227.805C349.912 227.972 349.679 228.056 349.382 228.056ZM353.237 237V227.805H354.674V237H353.237ZM351.716 231.07V229.675H356.377V231.07H351.716ZM357.657 237V229.675H359.108V231.237L358.843 231.405C358.918 231.163 359.034 230.93 359.192 230.707C359.36 230.484 359.56 230.289 359.792 230.121C360.034 229.944 360.29 229.805 360.559 229.703C360.839 229.6 361.122 229.549 361.411 229.549C361.829 229.549 362.197 229.619 362.513 229.758C362.829 229.898 363.09 230.107 363.294 230.386C363.499 230.665 363.648 231.014 363.741 231.433L363.518 231.377L363.615 231.14C363.718 230.926 363.857 230.726 364.034 230.54C364.22 230.344 364.429 230.172 364.662 230.023C364.894 229.875 365.141 229.758 365.401 229.675C365.662 229.591 365.917 229.549 366.169 229.549C366.717 229.549 367.169 229.661 367.522 229.884C367.885 230.107 368.155 230.447 368.331 230.903C368.517 231.358 368.61 231.926 368.61 232.605V237H367.159V232.689C367.159 232.27 367.103 231.93 366.992 231.67C366.89 231.4 366.731 231.2 366.517 231.07C366.303 230.94 366.029 230.875 365.694 230.875C365.434 230.875 365.187 230.921 364.955 231.014C364.731 231.098 364.536 231.219 364.369 231.377C364.201 231.535 364.071 231.721 363.978 231.935C363.885 232.14 363.838 232.368 363.838 232.619V237H362.387V232.661C362.387 232.279 362.332 231.958 362.22 231.698C362.108 231.428 361.945 231.223 361.732 231.084C361.518 230.944 361.257 230.875 360.95 230.875C360.69 230.875 360.448 230.921 360.225 231.014C360.001 231.098 359.806 231.219 359.639 231.377C359.471 231.526 359.341 231.707 359.248 231.921C359.155 232.126 359.108 232.349 359.108 232.591V237H357.657ZM373.953 237.14C373.2 237.14 372.53 236.981 371.944 236.665C371.367 236.34 370.911 235.898 370.576 235.34C370.251 234.781 370.088 234.14 370.088 233.414C370.088 232.837 370.181 232.312 370.367 231.837C370.553 231.363 370.809 230.954 371.134 230.61C371.469 230.256 371.865 229.986 372.32 229.8C372.786 229.605 373.288 229.507 373.827 229.507C374.302 229.507 374.744 229.6 375.153 229.786C375.562 229.963 375.916 230.21 376.213 230.526C376.52 230.842 376.753 231.219 376.911 231.656C377.078 232.084 377.158 232.554 377.148 233.065L377.134 233.679H371.148L370.828 232.535H375.892L375.683 232.772V232.437C375.655 232.13 375.553 231.856 375.376 231.614C375.199 231.372 374.976 231.182 374.706 231.042C374.437 230.903 374.144 230.833 373.827 230.833C373.325 230.833 372.902 230.93 372.558 231.126C372.214 231.312 371.953 231.591 371.776 231.963C371.6 232.326 371.511 232.777 371.511 233.316C371.511 233.828 371.618 234.275 371.832 234.656C372.046 235.028 372.348 235.316 372.739 235.521C373.13 235.726 373.581 235.828 374.093 235.828C374.455 235.828 374.79 235.767 375.097 235.647C375.413 235.526 375.753 235.307 376.116 234.991L376.841 236.009C376.618 236.233 376.344 236.428 376.018 236.595C375.702 236.763 375.362 236.898 374.999 237C374.646 237.093 374.297 237.14 373.953 237.14ZM378.71 237V229.675H380.147V231.182L379.896 231.349C379.989 231.023 380.171 230.726 380.44 230.456C380.71 230.177 381.031 229.954 381.403 229.786C381.775 229.61 382.157 229.521 382.547 229.521C383.105 229.521 383.57 229.633 383.942 229.856C384.315 230.07 384.594 230.4 384.78 230.847C384.966 231.293 385.059 231.856 385.059 232.535V237H383.622V232.633C383.622 232.214 383.566 231.87 383.454 231.6C383.343 231.321 383.17 231.121 382.938 231C382.705 230.87 382.417 230.814 382.073 230.833C381.794 230.833 381.538 230.879 381.305 230.972C381.073 231.056 380.868 231.177 380.691 231.335C380.524 231.493 380.389 231.679 380.287 231.893C380.194 232.098 380.147 232.321 380.147 232.563V237H379.436C379.315 237 379.194 237 379.073 237C378.952 237 378.831 237 378.71 237ZM387.915 237V227.805H389.352V237H387.915ZM386.394 231.07V229.675H391.055V231.07H386.394ZM395.078 237.14C394.464 237.14 393.91 237.033 393.417 236.819C392.924 236.605 392.515 236.288 392.189 235.87L393.166 235.033C393.445 235.358 393.747 235.595 394.073 235.744C394.408 235.884 394.785 235.954 395.203 235.954C395.371 235.954 395.524 235.935 395.664 235.898C395.813 235.851 395.938 235.786 396.04 235.702C396.152 235.619 396.236 235.521 396.292 235.409C396.347 235.288 396.375 235.158 396.375 235.019C396.375 234.777 396.287 234.581 396.11 234.433C396.017 234.368 395.868 234.298 395.664 234.223C395.468 234.14 395.213 234.056 394.896 233.972C394.357 233.833 393.915 233.675 393.571 233.498C393.227 233.321 392.961 233.121 392.775 232.898C392.636 232.721 392.534 232.53 392.468 232.326C392.403 232.112 392.371 231.879 392.371 231.628C392.371 231.321 392.436 231.042 392.566 230.791C392.706 230.53 392.892 230.307 393.124 230.121C393.366 229.926 393.645 229.777 393.961 229.675C394.287 229.572 394.631 229.521 394.994 229.521C395.338 229.521 395.678 229.568 396.013 229.661C396.357 229.754 396.673 229.889 396.961 230.065C397.25 230.242 397.492 230.451 397.687 230.693L396.864 231.6C396.687 231.423 396.492 231.27 396.278 231.14C396.073 231 395.864 230.893 395.65 230.819C395.436 230.744 395.24 230.707 395.064 230.707C394.868 230.707 394.692 230.726 394.533 230.763C394.375 230.8 394.24 230.856 394.129 230.93C394.027 231.005 393.947 231.098 393.892 231.209C393.836 231.321 393.808 231.447 393.808 231.586C393.817 231.707 393.845 231.823 393.892 231.935C393.947 232.037 394.022 232.126 394.115 232.2C394.217 232.275 394.371 232.354 394.575 232.437C394.78 232.521 395.04 232.6 395.357 232.675C395.822 232.795 396.203 232.93 396.501 233.079C396.808 233.219 397.05 233.382 397.226 233.568C397.412 233.744 397.543 233.949 397.617 234.181C397.692 234.414 397.729 234.674 397.729 234.963C397.729 235.381 397.608 235.758 397.366 236.093C397.133 236.419 396.817 236.674 396.417 236.86C396.017 237.047 395.571 237.14 395.078 237.14Z" fill="#1D1D1D"/>
<circle cx="209.823" cy="66.1515" r="65.932" fill="#FBD348"/>
<path d="M178.04 64.7318V56.8065L178.557 57.1972L176.631 58.2158L176.226 56.9042L178.836 55.5089H179.561V64.7318H178.04ZM176.492 65.4155V63.9644H181.152V65.4155H176.492ZM183.58 65.569C183.273 65.569 183.036 65.4806 182.868 65.3039C182.701 65.1179 182.617 64.8574 182.617 64.5225C182.617 64.2156 182.705 63.9644 182.882 63.7691C183.059 63.5737 183.291 63.4761 183.58 63.4761C183.887 63.4761 184.124 63.5691 184.291 63.7551C184.459 63.9319 184.542 64.1877 184.542 64.5225C184.542 64.8295 184.454 65.0807 184.277 65.276C184.101 65.4713 183.868 65.569 183.58 65.569ZM190.442 65.4155V55.6484H194.6C195.158 55.6484 195.67 55.7879 196.135 56.067C196.609 56.3367 196.986 56.7088 197.265 57.1832C197.544 57.6483 197.684 58.1739 197.684 58.7599C197.684 59.2901 197.544 59.7831 197.265 60.2389C196.986 60.6947 196.614 61.0622 196.149 61.3412C195.684 61.611 195.167 61.7459 194.6 61.7459H191.949V65.4155H190.442ZM196.246 65.4155L193.763 61.0064L195.312 60.6575L198.074 65.4295L196.246 65.4155ZM191.949 60.2948H194.74C195.009 60.2948 195.251 60.2296 195.465 60.0994C195.679 59.9599 195.846 59.7738 195.967 59.5413C196.088 59.2994 196.149 59.0343 196.149 58.746C196.149 58.4204 196.07 58.1367 195.912 57.8948C195.763 57.6437 195.549 57.4483 195.27 57.3088C195 57.1693 194.693 57.0995 194.349 57.0995H191.949V60.2948ZM202.927 65.5551C202.173 65.5551 201.504 65.3969 200.918 65.0807C200.341 64.7551 199.885 64.3132 199.55 63.7551C199.225 63.197 199.062 62.5552 199.062 61.8296C199.062 61.2529 199.155 60.7273 199.341 60.2529C199.527 59.7785 199.783 59.3692 200.108 59.025C200.443 58.6716 200.839 58.4018 201.294 58.2158C201.759 58.0204 202.262 57.9227 202.801 57.9227C203.276 57.9227 203.718 58.0158 204.127 58.2018C204.536 58.3785 204.89 58.625 205.187 58.9413C205.494 59.2576 205.727 59.6343 205.885 60.0715C206.052 60.4994 206.131 60.9692 206.122 61.4808L206.108 62.0947H200.122L199.801 60.9506H204.866L204.657 61.1878V60.8529C204.629 60.5459 204.527 60.2715 204.35 60.0297C204.173 59.7878 203.95 59.5971 203.68 59.4576C203.411 59.318 203.118 59.2483 202.801 59.2483C202.299 59.2483 201.876 59.346 201.532 59.5413C201.187 59.7273 200.927 60.0064 200.75 60.3785C200.573 60.7413 200.485 61.1924 200.485 61.7319C200.485 62.2435 200.592 62.69 200.806 63.0714C201.02 63.4435 201.322 63.7319 201.713 63.9365C202.104 64.1411 202.555 64.2435 203.066 64.2435C203.429 64.2435 203.764 64.183 204.071 64.0621C204.387 63.9412 204.727 63.7226 205.09 63.4063L205.815 64.4249C205.592 64.6481 205.318 64.8435 204.992 65.0109C204.676 65.1783 204.336 65.3132 203.973 65.4155C203.62 65.5085 203.271 65.5551 202.927 65.5551ZM210.895 68.6247C210.374 68.6247 209.853 68.541 209.332 68.3736C208.82 68.2154 208.407 68.0061 208.09 67.7457L208.62 66.6294C208.807 66.769 209.025 66.8899 209.276 66.9922C209.527 67.1038 209.793 67.1876 210.072 67.2434C210.351 67.3085 210.625 67.341 210.895 67.341C211.406 67.341 211.834 67.2573 212.179 67.0899C212.523 66.9225 212.783 66.676 212.96 66.3504C213.137 66.0248 213.225 65.6202 213.225 65.1365V63.7272L213.378 63.8249C213.332 64.1132 213.178 64.3923 212.918 64.6621C212.667 64.9225 212.351 65.1365 211.969 65.3039C211.588 65.4713 211.197 65.5551 210.797 65.5551C210.1 65.5551 209.476 65.3923 208.927 65.0667C208.388 64.7318 207.96 64.2807 207.644 63.7133C207.328 63.1365 207.169 62.4807 207.169 61.7459C207.169 61.011 207.323 60.3599 207.63 59.7925C207.946 59.2157 208.374 58.7646 208.914 58.439C209.462 58.1041 210.076 57.9367 210.755 57.9367C211.034 57.9367 211.304 57.9739 211.565 58.0483C211.825 58.1134 212.067 58.2111 212.29 58.3413C212.513 58.4623 212.713 58.5971 212.89 58.746C213.067 58.8948 213.211 59.0529 213.323 59.2204C213.434 59.3878 213.504 59.5459 213.532 59.6948L213.225 59.8064V58.0902H214.662V64.969C214.662 65.5551 214.574 66.0713 214.397 66.5178C214.23 66.9736 213.983 67.355 213.658 67.662C213.332 67.9782 212.937 68.2154 212.472 68.3736C212.006 68.541 211.481 68.6247 210.895 68.6247ZM210.951 64.2295C211.406 64.2295 211.811 64.1225 212.165 63.9086C212.518 63.6947 212.792 63.4016 212.988 63.0296C213.183 62.6575 213.281 62.2296 213.281 61.7459C213.281 61.2622 213.178 60.8343 212.974 60.4622C212.778 60.0808 212.504 59.7831 212.151 59.5692C211.806 59.3553 211.406 59.2483 210.951 59.2483C210.504 59.2483 210.104 59.3599 209.751 59.5832C209.407 59.7971 209.132 60.0948 208.927 60.4762C208.732 60.8482 208.634 61.2715 208.634 61.7459C208.634 62.2203 208.732 62.6482 208.927 63.0296C209.132 63.4016 209.407 63.6947 209.751 63.9086C210.104 64.1225 210.504 64.2295 210.951 64.2295ZM216.914 65.4155V58.0902H218.352V65.4155H216.914ZM217.612 56.4716C217.305 56.4716 217.068 56.3926 216.9 56.2344C216.733 56.0763 216.649 55.853 216.649 55.5647C216.649 55.2949 216.733 55.0763 216.9 54.9089C217.077 54.7415 217.314 54.6577 217.612 54.6577C217.919 54.6577 218.156 54.7368 218.324 54.8949C218.491 55.0531 218.575 55.2763 218.575 55.5647C218.575 55.8344 218.486 56.053 218.31 56.2205C218.142 56.3879 217.91 56.4716 217.612 56.4716ZM223.002 65.5551C222.388 65.5551 221.835 65.4481 221.342 65.2341C220.849 65.0202 220.44 64.7039 220.114 64.2853L221.091 63.4481C221.37 63.7737 221.672 64.0109 221.998 64.1598C222.333 64.2993 222.709 64.369 223.128 64.369C223.295 64.369 223.449 64.3504 223.588 64.3132C223.737 64.2667 223.863 64.2016 223.965 64.1179C224.077 64.0342 224.16 63.9365 224.216 63.8249C224.272 63.704 224.3 63.5737 224.3 63.4342C224.3 63.1923 224.212 62.997 224.035 62.8482C223.942 62.7831 223.793 62.7133 223.588 62.6389C223.393 62.5552 223.137 62.4714 222.821 62.3877C222.281 62.2482 221.84 62.0901 221.495 61.9133C221.151 61.7366 220.886 61.5366 220.7 61.3133C220.561 61.1366 220.458 60.9459 220.393 60.7413C220.328 60.5273 220.295 60.2948 220.295 60.0436C220.295 59.7366 220.361 59.4576 220.491 59.2064C220.63 58.946 220.816 58.7227 221.049 58.5367C221.291 58.3413 221.57 58.1925 221.886 58.0902C222.212 57.9879 222.556 57.9367 222.919 57.9367C223.263 57.9367 223.602 57.9832 223.937 58.0762C224.281 58.1692 224.598 58.3041 224.886 58.4809C225.174 58.6576 225.416 58.8669 225.612 59.1088L224.788 60.0157C224.612 59.839 224.416 59.6855 224.202 59.5553C223.998 59.4157 223.788 59.3087 223.574 59.2343C223.36 59.1599 223.165 59.1227 222.988 59.1227C222.793 59.1227 222.616 59.1413 222.458 59.1785C222.3 59.2157 222.165 59.2715 222.054 59.346C221.951 59.4204 221.872 59.5134 221.816 59.625C221.761 59.7366 221.733 59.8622 221.733 60.0017C221.742 60.1227 221.77 60.2389 221.816 60.3506C221.872 60.4529 221.947 60.5413 222.04 60.6157C222.142 60.6901 222.295 60.7692 222.5 60.8529C222.705 60.9366 222.965 61.0157 223.281 61.0901C223.747 61.211 224.128 61.3459 224.426 61.4947C224.733 61.6343 224.974 61.797 225.151 61.9831C225.337 62.1598 225.467 62.3645 225.542 62.597C225.616 62.8296 225.653 63.09 225.653 63.3784C225.653 63.797 225.533 64.1737 225.291 64.5086C225.058 64.8342 224.742 65.09 224.342 65.276C223.942 65.462 223.495 65.5551 223.002 65.5551ZM228.144 65.4155V56.2205H229.581V65.4155H228.144ZM226.623 59.4855V58.0902H231.284V59.4855H226.623ZM235.943 65.5551C235.189 65.5551 234.52 65.3969 233.933 65.0807C233.357 64.7551 232.901 64.3132 232.566 63.7551C232.241 63.197 232.078 62.5552 232.078 61.8296C232.078 61.2529 232.171 60.7273 232.357 60.2529C232.543 59.7785 232.799 59.3692 233.124 59.025C233.459 58.6716 233.854 58.4018 234.31 58.2158C234.775 58.0204 235.278 57.9227 235.817 57.9227C236.292 57.9227 236.733 58.0158 237.143 58.2018C237.552 58.3785 237.905 58.625 238.203 58.9413C238.51 59.2576 238.743 59.6343 238.901 60.0715C239.068 60.4994 239.147 60.9692 239.138 61.4808L239.124 62.0947H233.138L232.817 60.9506H237.882L237.673 61.1878V60.8529C237.645 60.5459 237.543 60.2715 237.366 60.0297C237.189 59.7878 236.966 59.5971 236.696 59.4576C236.426 59.318 236.133 59.2483 235.817 59.2483C235.315 59.2483 234.892 59.346 234.547 59.5413C234.203 59.7273 233.943 60.0064 233.766 60.3785C233.589 60.7413 233.501 61.1924 233.501 61.7319C233.501 62.2435 233.608 62.69 233.822 63.0714C234.036 63.4435 234.338 63.7319 234.729 63.9365C235.119 64.1411 235.571 64.2435 236.082 64.2435C236.445 64.2435 236.78 64.183 237.087 64.0621C237.403 63.9412 237.743 63.7226 238.105 63.4063L238.831 64.4249C238.608 64.6481 238.333 64.8435 238.008 65.0109C237.692 65.1783 237.352 65.3132 236.989 65.4155C236.636 65.5085 236.287 65.5551 235.943 65.5551ZM240.7 65.4155V58.0902H242.151V60.3924L242.011 59.8343C242.114 59.4808 242.286 59.1599 242.528 58.8716C242.779 58.5832 243.063 58.3553 243.379 58.1879C243.704 58.0204 244.039 57.9367 244.383 57.9367C244.542 57.9367 244.69 57.9507 244.83 57.9786C244.979 58.0065 245.095 58.039 245.179 58.0762L244.802 59.639C244.69 59.5925 244.565 59.5553 244.425 59.5273C244.295 59.4901 244.165 59.4715 244.035 59.4715C243.783 59.4715 243.542 59.5227 243.309 59.625C243.086 59.718 242.886 59.8529 242.709 60.0297C242.542 60.1971 242.407 60.3971 242.304 60.6296C242.202 60.8529 242.151 61.0994 242.151 61.3691V65.4155H240.7ZM169.546 82.6247L171.025 79.2062L171.039 80.3504L167.384 72.0902H169.058L171.346 77.4761C171.393 77.5691 171.449 77.7133 171.514 77.9086C171.579 78.0946 171.635 78.2807 171.681 78.4667L171.318 78.5504C171.393 78.3551 171.463 78.1598 171.528 77.9644C171.602 77.7691 171.672 77.5737 171.737 77.3784L173.649 72.0902H175.351L172.337 79.4155L171.095 82.6247H169.546ZM179.583 79.5551C178.866 79.5551 178.224 79.3923 177.657 79.0667C177.099 78.7318 176.657 78.2807 176.332 77.7133C176.006 77.1365 175.843 76.4807 175.843 75.7459C175.843 75.011 176.006 74.3599 176.332 73.7925C176.657 73.2157 177.099 72.7646 177.657 72.439C178.224 72.1041 178.866 71.9367 179.583 71.9367C180.29 71.9367 180.922 72.1041 181.48 72.439C182.048 72.7646 182.494 73.2157 182.82 73.7925C183.145 74.3599 183.308 75.011 183.308 75.7459C183.308 76.4807 183.145 77.1365 182.82 77.7133C182.494 78.2807 182.048 78.7318 181.48 79.0667C180.922 79.3923 180.29 79.5551 179.583 79.5551ZM179.583 78.2435C180.02 78.2435 180.41 78.1365 180.755 77.9226C181.099 77.6993 181.369 77.4016 181.564 77.0296C181.759 76.6482 181.852 76.2203 181.843 75.7459C181.852 75.2622 181.759 74.8343 181.564 74.4622C181.369 74.0808 181.099 73.7831 180.755 73.5692C180.41 73.3553 180.02 73.2483 179.583 73.2483C179.145 73.2483 178.75 73.3599 178.397 73.5832C178.052 73.7971 177.783 74.0948 177.587 74.4762C177.392 74.8482 177.299 75.2715 177.308 75.7459C177.299 76.2203 177.392 76.6482 177.587 77.0296C177.783 77.4016 178.052 77.6993 178.397 77.9226C178.75 78.1365 179.145 78.2435 179.583 78.2435ZM187.441 79.5551C186.92 79.5551 186.465 79.4341 186.074 79.1923C185.693 78.9504 185.395 78.6109 185.181 78.1737C184.976 77.7365 184.874 77.2156 184.874 76.611V72.0902H186.311V76.2203C186.311 76.6482 186.376 77.0203 186.507 77.3365C186.646 77.6435 186.841 77.8807 187.093 78.0481C187.353 78.2156 187.665 78.2993 188.027 78.2993C188.297 78.2993 188.544 78.2574 188.767 78.1737C188.99 78.0807 189.181 77.9551 189.339 77.797C189.506 77.6388 189.637 77.4481 189.73 77.2249C189.823 77.0017 189.869 76.7598 189.869 76.4993V72.0902H191.306V79.4155H189.869V77.8807L190.12 77.7133C190.009 78.0574 189.818 78.369 189.548 78.6481C189.288 78.9272 188.976 79.1504 188.613 79.3179C188.251 79.476 187.86 79.5551 187.441 79.5551ZM193.322 79.4155V72.0902H194.773V74.3924L194.634 73.8343C194.736 73.4808 194.908 73.1599 195.15 72.8716C195.401 72.5832 195.685 72.3553 196.001 72.1879C196.327 72.0204 196.662 71.9367 197.006 71.9367C197.164 71.9367 197.313 71.9507 197.452 71.9786C197.601 72.0065 197.717 72.039 197.801 72.0762L197.424 73.639C197.313 73.5925 197.187 73.5553 197.048 73.5273C196.917 73.4901 196.787 73.4715 196.657 73.4715C196.406 73.4715 196.164 73.5227 195.931 73.625C195.708 73.718 195.508 73.8529 195.331 74.0297C195.164 74.1971 195.029 74.3971 194.927 74.6296C194.824 74.8529 194.773 75.0994 194.773 75.3691V79.4155H193.322ZM203.098 79.4155V72.0902H204.535V79.4155H203.098ZM203.795 70.4716C203.488 70.4716 203.251 70.3926 203.084 70.2344C202.916 70.0763 202.832 69.853 202.832 69.5647C202.832 69.2949 202.916 69.0763 203.084 68.9089C203.26 68.7415 203.498 68.6577 203.795 68.6577C204.102 68.6577 204.339 68.7368 204.507 68.8949C204.674 69.0531 204.758 69.2763 204.758 69.5647C204.758 69.8344 204.67 70.053 204.493 70.2205C204.325 70.3879 204.093 70.4716 203.795 70.4716ZM206.744 79.4155V72.0902H208.181V73.5971L207.93 73.7645C208.023 73.439 208.204 73.1413 208.474 72.8716C208.744 72.5925 209.065 72.3692 209.437 72.2018C209.809 72.0251 210.19 71.9367 210.581 71.9367C211.139 71.9367 211.604 72.0483 211.976 72.2716C212.348 72.4855 212.627 72.8157 212.813 73.2622C212.999 73.7087 213.092 74.2715 213.092 74.9506V79.4155H211.655V75.0482C211.655 74.6296 211.599 74.2855 211.488 74.0157C211.376 73.7366 211.204 73.5366 210.972 73.4157C210.739 73.2855 210.451 73.2297 210.106 73.2483C209.827 73.2483 209.572 73.2948 209.339 73.3878C209.107 73.4715 208.902 73.5925 208.725 73.7506C208.558 73.9087 208.423 74.0948 208.321 74.3087C208.227 74.5134 208.181 74.7366 208.181 74.9785V79.4155H207.469C207.348 79.4155 207.228 79.4155 207.107 79.4155C206.986 79.4155 206.865 79.4155 206.744 79.4155ZM215.949 79.4155V70.2205H217.386V79.4155H215.949ZM214.428 73.4855V72.0902H219.088V73.4855H214.428ZM223.747 79.5551C222.994 79.5551 222.324 79.3969 221.738 79.0807C221.161 78.7551 220.706 78.3132 220.371 77.7551C220.045 77.197 219.882 76.5552 219.882 75.8296C219.882 75.2529 219.975 74.7273 220.162 74.2529C220.348 73.7785 220.603 73.3692 220.929 73.025C221.264 72.6716 221.659 72.4018 222.115 72.2158C222.58 72.0204 223.082 71.9227 223.622 71.9227C224.096 71.9227 224.538 72.0158 224.947 72.2018C225.357 72.3785 225.71 72.625 226.008 72.9413C226.315 73.2576 226.547 73.6343 226.705 74.0715C226.873 74.4994 226.952 74.9692 226.943 75.4808L226.929 76.0947H220.943L220.622 74.9506H225.687L225.478 75.1878V74.8529C225.45 74.5459 225.347 74.2715 225.171 74.0297C224.994 73.7878 224.771 73.5971 224.501 73.4576C224.231 73.318 223.938 73.2483 223.622 73.2483C223.12 73.2483 222.696 73.346 222.352 73.5413C222.008 73.7273 221.748 74.0064 221.571 74.3785C221.394 74.7413 221.306 75.1924 221.306 75.7319C221.306 76.2435 221.413 76.69 221.627 77.0714C221.841 77.4435 222.143 77.7319 222.534 77.9365C222.924 78.1411 223.375 78.2435 223.887 78.2435C224.25 78.2435 224.585 78.183 224.892 78.0621C225.208 77.9412 225.547 77.7226 225.91 77.4063L226.636 78.4249C226.412 78.6481 226.138 78.8435 225.812 79.0109C225.496 79.1783 225.157 79.3132 224.794 79.4155C224.44 79.5085 224.092 79.5551 223.747 79.5551ZM228.505 79.4155V72.0902H229.956V74.3924L229.816 73.8343C229.918 73.4808 230.091 73.1599 230.332 72.8716C230.584 72.5832 230.867 72.3553 231.184 72.1879C231.509 72.0204 231.844 71.9367 232.188 71.9367C232.346 71.9367 232.495 71.9507 232.635 71.9786C232.783 72.0065 232.9 72.039 232.983 72.0762L232.607 73.639C232.495 73.5925 232.37 73.5553 232.23 73.5273C232.1 73.4901 231.97 73.4715 231.839 73.4715C231.588 73.4715 231.346 73.5227 231.114 73.625C230.891 73.718 230.691 73.8529 230.514 74.0297C230.346 74.1971 230.211 74.3971 230.109 74.6296C230.007 74.8529 229.956 75.0994 229.956 75.3691V79.4155H228.505ZM237.237 79.5551C236.484 79.5551 235.814 79.3969 235.228 79.0807C234.651 78.7551 234.195 78.3132 233.861 77.7551C233.535 77.197 233.372 76.5552 233.372 75.8296C233.372 75.2529 233.465 74.7273 233.651 74.2529C233.837 73.7785 234.093 73.3692 234.419 73.025C234.754 72.6716 235.149 72.4018 235.605 72.2158C236.07 72.0204 236.572 71.9227 237.112 71.9227C237.586 71.9227 238.028 72.0158 238.437 72.2018C238.846 72.3785 239.2 72.625 239.498 72.9413C239.805 73.2576 240.037 73.6343 240.195 74.0715C240.363 74.4994 240.442 74.9692 240.432 75.4808L240.418 76.0947H234.433L234.112 74.9506H239.177L238.967 75.1878V74.8529C238.939 74.5459 238.837 74.2715 238.66 74.0297C238.484 73.7878 238.26 73.5971 237.991 73.4576C237.721 73.318 237.428 73.2483 237.112 73.2483C236.609 73.2483 236.186 73.346 235.842 73.5413C235.498 73.7273 235.237 74.0064 235.061 74.3785C234.884 74.7413 234.795 75.1924 234.795 75.7319C234.795 76.2435 234.902 76.69 235.116 77.0714C235.33 77.4435 235.633 77.7319 236.023 77.9365C236.414 78.1411 236.865 78.2435 237.377 78.2435C237.74 78.2435 238.074 78.183 238.381 78.0621C238.698 77.9412 239.037 77.7226 239.4 77.4063L240.125 78.4249C239.902 78.6481 239.628 78.8435 239.302 79.0109C238.986 79.1783 238.646 79.3132 238.284 79.4155C237.93 79.5085 237.581 79.5551 237.237 79.5551ZM244.436 79.5551C243.822 79.5551 243.269 79.4481 242.776 79.2341C242.283 79.0202 241.873 78.7039 241.548 78.2853L242.525 77.4481C242.804 77.7737 243.106 78.0109 243.431 78.1598C243.766 78.2993 244.143 78.369 244.562 78.369C244.729 78.369 244.883 78.3504 245.022 78.3132C245.171 78.2667 245.297 78.2016 245.399 78.1179C245.51 78.0342 245.594 77.9365 245.65 77.8249C245.706 77.704 245.734 77.5737 245.734 77.4342C245.734 77.1923 245.645 76.997 245.469 76.8482C245.376 76.7831 245.227 76.7133 245.022 76.6389C244.827 76.5552 244.571 76.4714 244.255 76.3877C243.715 76.2482 243.273 76.0901 242.929 75.9133C242.585 75.7366 242.32 75.5366 242.134 75.3133C241.994 75.1366 241.892 74.9459 241.827 74.7413C241.762 74.5273 241.729 74.2948 241.729 74.0436C241.729 73.7366 241.794 73.4576 241.925 73.2064C242.064 72.946 242.25 72.7227 242.483 72.5367C242.725 72.3413 243.004 72.1925 243.32 72.0902C243.645 71.9879 243.99 71.9367 244.352 71.9367C244.697 71.9367 245.036 71.9832 245.371 72.0762C245.715 72.1692 246.031 72.3041 246.32 72.4809C246.608 72.6576 246.85 72.8669 247.045 73.1088L246.222 74.0157C246.045 73.839 245.85 73.6855 245.636 73.5553C245.431 73.4157 245.222 73.3087 245.008 73.2343C244.794 73.1599 244.599 73.1227 244.422 73.1227C244.227 73.1227 244.05 73.1413 243.892 73.1785C243.734 73.2157 243.599 73.2715 243.487 73.346C243.385 73.4204 243.306 73.5134 243.25 73.625C243.194 73.7366 243.166 73.8622 243.166 74.0017C243.176 74.1227 243.204 74.2389 243.25 74.3506C243.306 74.4529 243.38 74.5413 243.473 74.6157C243.576 74.6901 243.729 74.7692 243.934 74.8529C244.138 74.9366 244.399 75.0157 244.715 75.0901C245.18 75.211 245.562 75.3459 245.859 75.4947C246.166 75.6343 246.408 75.797 246.585 75.9831C246.771 76.1598 246.901 76.3645 246.976 76.597C247.05 76.8296 247.087 77.09 247.087 77.3784C247.087 77.797 246.966 78.1737 246.724 78.5086C246.492 78.8342 246.176 79.09 245.776 79.276C245.376 79.462 244.929 79.5551 244.436 79.5551ZM249.578 79.4155V70.2205H251.015V79.4155H249.578ZM248.057 73.4855V72.0902H252.717V73.4855H248.057Z" fill="#1D1D1D"/>
<circle cx="209.823" cy="449.86" r="65.932" fill="#FBD348"/>
<path d="M176.156 449.124V441.255L176.505 441.338L173.296 445.259L173.24 445.092H179.31V446.473H172.305L171.663 445.217L176.449 439.357H177.607V449.124H176.156ZM181.488 449.278C181.181 449.278 180.944 449.189 180.776 449.013C180.609 448.826 180.525 448.566 180.525 448.231C180.525 447.924 180.614 447.673 180.79 447.478C180.967 447.282 181.2 447.185 181.488 447.185C181.795 447.185 182.032 447.278 182.2 447.464C182.367 447.64 182.451 447.896 182.451 448.231C182.451 448.538 182.362 448.789 182.186 448.985C182.009 449.18 181.776 449.278 181.488 449.278ZM187.332 449.124L191.113 439.357H192.648L196.401 449.124H194.797L192.564 443.236C192.536 443.171 192.48 443.013 192.397 442.762C192.322 442.51 192.234 442.231 192.132 441.924C192.029 441.617 191.936 441.338 191.853 441.087C191.769 440.827 191.713 440.659 191.685 440.585L192.006 440.571C191.95 440.729 191.88 440.929 191.797 441.171C191.722 441.413 191.639 441.669 191.546 441.938C191.462 442.208 191.378 442.464 191.294 442.706C191.211 442.938 191.141 443.134 191.085 443.292L188.867 449.124H187.332ZM189.006 446.696L189.564 445.245H194.001L194.643 446.696H189.006ZM197.757 452.194V441.799H199.209V443.473L198.985 443.348C199.041 443.069 199.199 442.803 199.46 442.552C199.72 442.292 200.036 442.083 200.408 441.924C200.79 441.757 201.181 441.673 201.581 441.673C202.241 441.673 202.827 441.836 203.339 442.162C203.85 442.487 204.255 442.934 204.553 443.501C204.85 444.068 204.999 444.72 204.999 445.454C204.999 446.18 204.85 446.831 204.553 447.408C204.264 447.975 203.864 448.426 203.353 448.761C202.841 449.087 202.264 449.25 201.622 449.25C201.194 449.25 200.781 449.166 200.381 448.999C199.981 448.822 199.641 448.599 199.362 448.329C199.083 448.059 198.911 447.78 198.846 447.492L199.209 447.296V452.194H197.757ZM201.385 447.924C201.813 447.924 202.194 447.817 202.529 447.603C202.864 447.389 203.129 447.096 203.325 446.724C203.52 446.352 203.618 445.929 203.618 445.454C203.618 444.98 203.52 444.562 203.325 444.199C203.139 443.827 202.878 443.534 202.543 443.32C202.208 443.106 201.822 442.999 201.385 442.999C200.948 442.999 200.562 443.106 200.227 443.32C199.892 443.524 199.627 443.813 199.432 444.185C199.236 444.557 199.139 444.98 199.139 445.454C199.139 445.929 199.236 446.352 199.432 446.724C199.627 447.096 199.892 447.389 200.227 447.603C200.562 447.817 200.948 447.924 201.385 447.924ZM206.56 452.194V441.799H208.011V443.473L207.788 443.348C207.843 443.069 208.002 442.803 208.262 442.552C208.523 442.292 208.839 442.083 209.211 441.924C209.592 441.757 209.983 441.673 210.383 441.673C211.043 441.673 211.629 441.836 212.141 442.162C212.653 442.487 213.057 442.934 213.355 443.501C213.653 444.068 213.801 444.72 213.801 445.454C213.801 446.18 213.653 446.831 213.355 447.408C213.067 447.975 212.667 448.426 212.155 448.761C211.643 449.087 211.067 449.25 210.425 449.25C209.997 449.25 209.583 449.166 209.183 448.999C208.783 448.822 208.443 448.599 208.164 448.329C207.885 448.059 207.713 447.78 207.648 447.492L208.011 447.296V452.194H206.56ZM210.188 447.924C210.615 447.924 210.997 447.817 211.332 447.603C211.667 447.389 211.932 447.096 212.127 446.724C212.322 446.352 212.42 445.929 212.42 445.454C212.42 444.98 212.322 444.562 212.127 444.199C211.941 443.827 211.681 443.534 211.346 443.32C211.011 443.106 210.625 442.999 210.188 442.999C209.75 442.999 209.364 443.106 209.029 443.32C208.695 443.524 208.43 443.813 208.234 444.185C208.039 444.557 207.941 444.98 207.941 445.454C207.941 445.929 208.039 446.352 208.234 446.724C208.43 447.096 208.695 447.389 209.029 447.603C209.364 447.817 209.75 447.924 210.188 447.924ZM215.39 449.124V438.799H216.827V449.124H215.39ZM219.888 452.333L221.367 448.915L221.381 450.059L217.725 441.799H219.399L221.688 447.185C221.734 447.278 221.79 447.422 221.855 447.617C221.92 447.803 221.976 447.989 222.022 448.175L221.66 448.259C221.734 448.064 221.804 447.868 221.869 447.673C221.943 447.478 222.013 447.282 222.078 447.087L223.99 441.799H225.692L222.678 449.124L221.436 452.333H219.888ZM231.473 449.124V440.976C231.473 440.557 231.566 440.185 231.752 439.859C231.938 439.534 232.194 439.278 232.52 439.092C232.845 438.906 233.222 438.813 233.65 438.813C233.948 438.813 234.227 438.869 234.487 438.98C234.747 439.092 234.957 439.241 235.115 439.427L234.627 440.529C234.506 440.417 234.371 440.329 234.222 440.264C234.082 440.19 233.948 440.152 233.817 440.152C233.622 440.152 233.454 440.185 233.315 440.25C233.185 440.306 233.087 440.399 233.022 440.529C232.957 440.65 232.924 440.799 232.924 440.976V449.124H232.199C232.078 449.124 231.957 449.124 231.836 449.124C231.715 449.124 231.594 449.124 231.473 449.124ZM230.301 443.25V441.924H234.654V443.25H230.301ZM239.176 449.264C238.46 449.264 237.818 449.101 237.25 448.775C236.692 448.44 236.25 447.989 235.925 447.422C235.599 446.845 235.436 446.189 235.436 445.454C235.436 444.72 235.599 444.068 235.925 443.501C236.25 442.924 236.692 442.473 237.25 442.148C237.818 441.813 238.46 441.645 239.176 441.645C239.883 441.645 240.515 441.813 241.074 442.148C241.641 442.473 242.087 442.924 242.413 443.501C242.739 444.068 242.901 444.72 242.901 445.454C242.901 446.189 242.739 446.845 242.413 447.422C242.087 447.989 241.641 448.44 241.074 448.775C240.515 449.101 239.883 449.264 239.176 449.264ZM239.176 447.952C239.613 447.952 240.004 447.845 240.348 447.631C240.692 447.408 240.962 447.11 241.157 446.738C241.353 446.357 241.446 445.929 241.436 445.454C241.446 444.971 241.353 444.543 241.157 444.171C240.962 443.789 240.692 443.492 240.348 443.278C240.004 443.064 239.613 442.957 239.176 442.957C238.739 442.957 238.343 443.069 237.99 443.292C237.646 443.506 237.376 443.803 237.181 444.185C236.985 444.557 236.892 444.98 236.902 445.454C236.892 445.929 236.985 446.357 237.181 446.738C237.376 447.11 237.646 447.408 237.99 447.631C238.343 447.845 238.739 447.952 239.176 447.952ZM244.467 449.124V441.799H245.918V444.101L245.779 443.543C245.881 443.189 246.053 442.869 246.295 442.58C246.546 442.292 246.83 442.064 247.146 441.896C247.472 441.729 247.807 441.645 248.151 441.645C248.309 441.645 248.458 441.659 248.597 441.687C248.746 441.715 248.863 441.748 248.946 441.785L248.57 443.348C248.458 443.301 248.332 443.264 248.193 443.236C248.063 443.199 247.932 443.18 247.802 443.18C247.551 443.18 247.309 443.231 247.077 443.334C246.853 443.427 246.653 443.562 246.477 443.738C246.309 443.906 246.174 444.106 246.072 444.338C245.97 444.562 245.918 444.808 245.918 445.078V449.124H244.467ZM185.812 463.124V454.976C185.812 454.557 185.905 454.185 186.091 453.859C186.277 453.534 186.533 453.278 186.859 453.092C187.184 452.906 187.561 452.813 187.989 452.813C188.287 452.813 188.566 452.869 188.826 452.98C189.087 453.092 189.296 453.241 189.454 453.427L188.966 454.529C188.845 454.417 188.71 454.329 188.561 454.264C188.422 454.19 188.287 454.152 188.156 454.152C187.961 454.152 187.794 454.185 187.654 454.25C187.524 454.306 187.426 454.399 187.361 454.529C187.296 454.65 187.264 454.799 187.264 454.976V463.124H186.538C186.417 463.124 186.296 463.124 186.175 463.124C186.054 463.124 185.933 463.124 185.812 463.124ZM184.64 457.25V455.924H188.994V457.25H184.64ZM193.062 463.264C192.541 463.264 192.085 463.143 191.695 462.901C191.313 462.659 191.016 462.32 190.802 461.882C190.597 461.445 190.495 460.924 190.495 460.32V455.799H191.932V459.929C191.932 460.357 191.997 460.729 192.127 461.045C192.267 461.352 192.462 461.589 192.713 461.757C192.974 461.924 193.285 462.008 193.648 462.008C193.918 462.008 194.164 461.966 194.388 461.882C194.611 461.789 194.802 461.664 194.96 461.506C195.127 461.347 195.257 461.157 195.35 460.934C195.443 460.71 195.49 460.468 195.49 460.208V455.799H196.927V463.124H195.49V461.589L195.741 461.422C195.629 461.766 195.439 462.078 195.169 462.357C194.909 462.636 194.597 462.859 194.234 463.026C193.871 463.185 193.481 463.264 193.062 463.264ZM198.943 463.124V455.799H200.38V457.306L200.129 457.473C200.222 457.148 200.403 456.85 200.673 456.58C200.943 456.301 201.264 456.078 201.636 455.91C202.008 455.734 202.389 455.645 202.78 455.645C203.338 455.645 203.803 455.757 204.175 455.98C204.547 456.194 204.826 456.524 205.012 456.971C205.198 457.417 205.291 457.98 205.291 458.659V463.124H203.854V458.757C203.854 458.338 203.799 457.994 203.687 457.724C203.575 457.445 203.403 457.245 203.171 457.124C202.938 456.994 202.65 456.938 202.306 456.957C202.026 456.957 201.771 457.003 201.538 457.096C201.306 457.18 201.101 457.301 200.924 457.459C200.757 457.617 200.622 457.803 200.52 458.017C200.427 458.222 200.38 458.445 200.38 458.687V463.124H199.668C199.547 463.124 199.427 463.124 199.306 463.124C199.185 463.124 199.064 463.124 198.943 463.124ZM210.297 463.264C209.627 463.264 209.027 463.101 208.497 462.775C207.976 462.44 207.562 461.989 207.255 461.422C206.948 460.845 206.795 460.189 206.795 459.454C206.795 458.72 206.943 458.068 207.241 457.501C207.548 456.924 207.962 456.473 208.483 456.148C209.004 455.813 209.595 455.645 210.255 455.645C210.618 455.645 210.967 455.706 211.301 455.827C211.646 455.938 211.953 456.096 212.222 456.301C212.492 456.496 212.701 456.715 212.85 456.957C213.008 457.189 213.087 457.427 213.087 457.669L212.669 457.696V452.799H214.106V463.124H212.669V461.38H212.948C212.948 461.603 212.873 461.827 212.725 462.05C212.576 462.264 212.376 462.464 212.125 462.65C211.883 462.836 211.599 462.985 211.274 463.096C210.957 463.208 210.632 463.264 210.297 463.264ZM210.492 462.022C210.929 462.022 211.315 461.91 211.65 461.687C211.985 461.464 212.246 461.161 212.432 460.78C212.627 460.389 212.725 459.948 212.725 459.454C212.725 458.961 212.627 458.524 212.432 458.143C212.246 457.752 211.985 457.445 211.65 457.222C211.315 456.999 210.929 456.887 210.492 456.887C210.055 456.887 209.669 456.999 209.334 457.222C208.999 457.445 208.734 457.752 208.539 458.143C208.353 458.524 208.26 458.961 208.26 459.454C208.26 459.948 208.353 460.389 208.539 460.78C208.734 461.161 208.999 461.464 209.334 461.687C209.669 461.91 210.055 462.022 210.492 462.022ZM216.322 463.124V455.799H217.759V463.124H216.322ZM217.019 454.18C216.712 454.18 216.475 454.101 216.308 453.943C216.14 453.785 216.056 453.562 216.056 453.273C216.056 453.004 216.14 452.785 216.308 452.618C216.484 452.45 216.722 452.366 217.019 452.366C217.326 452.366 217.563 452.445 217.731 452.604C217.898 452.762 217.982 452.985 217.982 453.273C217.982 453.543 217.894 453.762 217.717 453.929C217.549 454.097 217.317 454.18 217.019 454.18ZM219.968 463.124V455.799H221.405V457.306L221.154 457.473C221.247 457.148 221.428 456.85 221.698 456.58C221.968 456.301 222.289 456.078 222.661 455.91C223.033 455.734 223.414 455.645 223.805 455.645C224.363 455.645 224.828 455.757 225.2 455.98C225.572 456.194 225.851 456.524 226.037 456.971C226.223 457.417 226.316 457.98 226.316 458.659V463.124H224.879V458.757C224.879 458.338 224.823 457.994 224.712 457.724C224.6 457.445 224.428 457.245 224.196 457.124C223.963 456.994 223.675 456.938 223.33 456.957C223.051 456.957 222.796 457.003 222.563 457.096C222.331 457.18 222.126 457.301 221.949 457.459C221.782 457.617 221.647 457.803 221.544 458.017C221.451 458.222 221.405 458.445 221.405 458.687V463.124H220.693C220.572 463.124 220.451 463.124 220.331 463.124C220.21 463.124 220.089 463.124 219.968 463.124ZM231.545 466.333C231.024 466.333 230.503 466.25 229.982 466.082C229.471 465.924 229.057 465.715 228.74 465.454L229.271 464.338C229.457 464.478 229.675 464.599 229.926 464.701C230.178 464.812 230.443 464.896 230.722 464.952C231.001 465.017 231.275 465.05 231.545 465.05C232.057 465.05 232.485 464.966 232.829 464.799C233.173 464.631 233.433 464.385 233.61 464.059C233.787 463.733 233.875 463.329 233.875 462.845V461.436L234.029 461.533C233.982 461.822 233.829 462.101 233.568 462.371C233.317 462.631 233.001 462.845 232.619 463.013C232.238 463.18 231.847 463.264 231.447 463.264C230.75 463.264 230.126 463.101 229.578 462.775C229.038 462.44 228.61 461.989 228.294 461.422C227.978 460.845 227.82 460.189 227.82 459.454C227.82 458.72 227.973 458.068 228.28 457.501C228.596 456.924 229.024 456.473 229.564 456.148C230.112 455.813 230.726 455.645 231.405 455.645C231.685 455.645 231.954 455.683 232.215 455.757C232.475 455.822 232.717 455.92 232.94 456.05C233.164 456.171 233.364 456.306 233.54 456.455C233.717 456.603 233.861 456.762 233.973 456.929C234.084 457.096 234.154 457.255 234.182 457.403L233.875 457.515V455.799H235.312V462.678C235.312 463.264 235.224 463.78 235.047 464.226C234.88 464.682 234.633 465.064 234.308 465.371C233.982 465.687 233.587 465.924 233.122 466.082C232.657 466.25 232.131 466.333 231.545 466.333ZM231.601 461.938C232.057 461.938 232.461 461.831 232.815 461.617C233.168 461.403 233.443 461.11 233.638 460.738C233.833 460.366 233.931 459.938 233.931 459.454C233.931 458.971 233.829 458.543 233.624 458.171C233.429 457.789 233.154 457.492 232.801 457.278C232.457 457.064 232.057 456.957 231.601 456.957C231.154 456.957 230.754 457.069 230.401 457.292C230.057 457.506 229.782 457.803 229.578 458.185C229.382 458.557 229.285 458.98 229.285 459.454C229.285 459.929 229.382 460.357 229.578 460.738C229.782 461.11 230.057 461.403 230.401 461.617C230.754 461.831 231.154 461.938 231.601 461.938Z" fill="#1D1D1D"/>
<circle cx="108.663" cy="259.75" r="65.932" fill="#FBD348"/>
<path d="M78.8721 252.14C78.1837 252.14 77.5837 251.981 77.0721 251.665C76.5698 251.349 76.0954 250.819 75.6489 250.074L76.821 249.335C77.0535 249.679 77.2814 249.963 77.5047 250.186C77.7372 250.4 77.9744 250.558 78.2163 250.661C78.4581 250.763 78.7139 250.814 78.9837 250.814C79.3093 250.814 79.6116 250.735 79.8906 250.577C80.1697 250.409 80.3929 250.181 80.5604 249.893C80.7278 249.605 80.8115 249.279 80.8115 248.916C80.8115 248.554 80.7464 248.247 80.6162 247.995C80.486 247.735 80.2953 247.54 80.0441 247.409C79.793 247.27 79.4953 247.2 79.1511 247.2C78.993 247.2 78.8256 247.219 78.6488 247.256C78.4814 247.284 78.3 247.33 78.1046 247.395C77.9093 247.451 77.6954 247.526 77.4628 247.619L77.0442 246.516L80.0581 243.196L80.3511 243.628H76.1931V242.233H81.7883L82.0673 242.791L78.8721 246.335L78.5232 245.972C78.5977 245.935 78.7186 245.903 78.886 245.875C79.0628 245.837 79.2069 245.819 79.3186 245.819C79.7279 245.819 80.1092 245.898 80.4627 246.056C80.8255 246.205 81.1371 246.419 81.3976 246.698C81.6673 246.968 81.8766 247.289 82.0255 247.661C82.1836 248.023 82.2627 248.414 82.2627 248.833C82.2627 249.465 82.1092 250.033 81.8022 250.535C81.5045 251.028 81.0999 251.419 80.5883 251.707C80.0767 251.995 79.5046 252.14 78.8721 252.14ZM84.3458 252.153C84.0388 252.153 83.8016 252.065 83.6342 251.888C83.4668 251.702 83.383 251.442 83.383 251.107C83.383 250.8 83.4714 250.549 83.6481 250.354C83.8249 250.158 84.0574 250.061 84.3458 250.061C84.6528 250.061 84.89 250.154 85.0574 250.34C85.2248 250.516 85.3086 250.772 85.3086 251.107C85.3086 251.414 85.2202 251.665 85.0435 251.86C84.8667 252.056 84.6342 252.153 84.3458 252.153ZM95.1707 252.14C94.4917 252.14 93.8685 252.019 93.301 251.777C92.7336 251.535 92.2406 251.191 91.822 250.744C91.4034 250.288 91.0779 249.754 90.8453 249.14C90.6221 248.526 90.5104 247.851 90.5104 247.116C90.5104 246.419 90.6314 245.772 90.8732 245.177C91.1244 244.572 91.4685 244.042 91.9057 243.586C92.3429 243.131 92.8499 242.777 93.4266 242.526C94.0033 242.275 94.6266 242.149 95.2963 242.149C95.7707 242.149 96.2312 242.224 96.6777 242.372C97.1335 242.512 97.5428 242.712 97.9055 242.972C98.2776 243.224 98.5799 243.512 98.8125 243.837L97.8079 244.884C97.5381 244.614 97.2637 244.391 96.9846 244.214C96.7149 244.028 96.4358 243.889 96.1475 243.796C95.8684 243.703 95.5847 243.656 95.2963 243.656C94.8405 243.656 94.4126 243.744 94.0126 243.921C93.622 244.089 93.2778 244.326 92.9801 244.633C92.6918 244.94 92.4639 245.307 92.2964 245.735C92.129 246.154 92.0453 246.614 92.0453 247.116C92.0453 247.647 92.1243 248.13 92.2825 248.568C92.4499 248.995 92.6825 249.363 92.9801 249.67C93.2778 249.977 93.6313 250.214 94.0405 250.381C94.4591 250.54 94.9196 250.619 95.4219 250.619C95.7289 250.619 96.0312 250.577 96.3288 250.493C96.6265 250.409 96.9056 250.288 97.166 250.13C97.4265 249.972 97.6637 249.786 97.8776 249.572L98.6311 250.8C98.4172 251.051 98.1241 251.279 97.7521 251.484C97.3893 251.688 96.98 251.851 96.5242 251.972C96.0777 252.084 95.6265 252.14 95.1707 252.14ZM100.315 252V241.675H101.753V246.182L101.501 246.349C101.594 246.023 101.776 245.726 102.046 245.456C102.315 245.177 102.636 244.954 103.008 244.786C103.38 244.61 103.762 244.521 104.152 244.521C104.711 244.521 105.176 244.633 105.548 244.856C105.92 245.07 106.199 245.4 106.385 245.847C106.571 246.293 106.664 246.856 106.664 247.535V252H105.227V247.633C105.227 247.214 105.171 246.87 105.059 246.6C104.948 246.321 104.776 246.121 104.543 246C104.311 245.87 104.022 245.814 103.678 245.833C103.399 245.833 103.143 245.879 102.911 245.972C102.678 246.056 102.473 246.177 102.297 246.335C102.129 246.493 101.994 246.679 101.892 246.893C101.799 247.098 101.753 247.321 101.753 247.563V252H101.041C100.92 252 100.799 252 100.678 252C100.557 252 100.436 252 100.315 252ZM111.907 252.14C111.19 252.14 110.548 251.977 109.981 251.651C109.423 251.316 108.981 250.865 108.655 250.298C108.33 249.721 108.167 249.065 108.167 248.33C108.167 247.595 108.33 246.944 108.655 246.377C108.981 245.8 109.423 245.349 109.981 245.023C110.548 244.689 111.19 244.521 111.907 244.521C112.613 244.521 113.246 244.689 113.804 245.023C114.372 245.349 114.818 245.8 115.144 246.377C115.469 246.944 115.632 247.595 115.632 248.33C115.632 249.065 115.469 249.721 115.144 250.298C114.818 250.865 114.372 251.316 113.804 251.651C113.246 251.977 112.613 252.14 111.907 252.14ZM111.907 250.828C112.344 250.828 112.734 250.721 113.079 250.507C113.423 250.284 113.693 249.986 113.888 249.614C114.083 249.233 114.176 248.805 114.167 248.33C114.176 247.847 114.083 247.419 113.888 247.047C113.693 246.665 113.423 246.368 113.079 246.154C112.734 245.94 112.344 245.833 111.907 245.833C111.469 245.833 111.074 245.944 110.721 246.168C110.376 246.382 110.107 246.679 109.911 247.061C109.716 247.433 109.623 247.856 109.632 248.33C109.623 248.805 109.716 249.233 109.911 249.614C110.107 249.986 110.376 250.284 110.721 250.507C111.074 250.721 111.469 250.828 111.907 250.828ZM120.491 252.14C119.775 252.14 119.133 251.977 118.565 251.651C118.007 251.316 117.565 250.865 117.24 250.298C116.914 249.721 116.752 249.065 116.752 248.33C116.752 247.595 116.914 246.944 117.24 246.377C117.565 245.8 118.007 245.349 118.565 245.023C119.133 244.689 119.775 244.521 120.491 244.521C121.198 244.521 121.83 244.689 122.389 245.023C122.956 245.349 123.402 245.8 123.728 246.377C124.054 246.944 124.216 247.595 124.216 248.33C124.216 249.065 124.054 249.721 123.728 250.298C123.402 250.865 122.956 251.316 122.389 251.651C121.83 251.977 121.198 252.14 120.491 252.14ZM120.491 250.828C120.928 250.828 121.319 250.721 121.663 250.507C122.007 250.284 122.277 249.986 122.472 249.614C122.668 249.233 122.761 248.805 122.751 248.33C122.761 247.847 122.668 247.419 122.472 247.047C122.277 246.665 122.007 246.368 121.663 246.154C121.319 245.94 120.928 245.833 120.491 245.833C120.054 245.833 119.658 245.944 119.305 246.168C118.961 246.382 118.691 246.679 118.496 247.061C118.3 247.433 118.207 247.856 118.217 248.33C118.207 248.805 118.3 249.233 118.496 249.614C118.691 249.986 118.961 250.284 119.305 250.507C119.658 250.721 120.054 250.828 120.491 250.828ZM128.224 252.14C127.61 252.14 127.057 252.033 126.564 251.819C126.071 251.605 125.661 251.288 125.336 250.87L126.313 250.033C126.592 250.358 126.894 250.595 127.22 250.744C127.554 250.884 127.931 250.954 128.35 250.954C128.517 250.954 128.671 250.935 128.81 250.898C128.959 250.851 129.085 250.786 129.187 250.702C129.299 250.619 129.382 250.521 129.438 250.409C129.494 250.288 129.522 250.158 129.522 250.019C129.522 249.777 129.433 249.581 129.257 249.433C129.164 249.368 129.015 249.298 128.81 249.223C128.615 249.14 128.359 249.056 128.043 248.972C127.503 248.833 127.061 248.675 126.717 248.498C126.373 248.321 126.108 248.121 125.922 247.898C125.782 247.721 125.68 247.53 125.615 247.326C125.55 247.112 125.517 246.879 125.517 246.628C125.517 246.321 125.582 246.042 125.713 245.791C125.852 245.53 126.038 245.307 126.271 245.121C126.513 244.926 126.792 244.777 127.108 244.675C127.434 244.572 127.778 244.521 128.14 244.521C128.485 244.521 128.824 244.568 129.159 244.661C129.503 244.754 129.819 244.889 130.108 245.065C130.396 245.242 130.638 245.451 130.833 245.693L130.01 246.6C129.833 246.423 129.638 246.27 129.424 246.14C129.22 246 129.01 245.893 128.796 245.819C128.582 245.744 128.387 245.707 128.21 245.707C128.015 245.707 127.838 245.726 127.68 245.763C127.522 245.8 127.387 245.856 127.275 245.93C127.173 246.005 127.094 246.098 127.038 246.209C126.982 246.321 126.954 246.447 126.954 246.586C126.964 246.707 126.992 246.823 127.038 246.935C127.094 247.037 127.168 247.126 127.261 247.2C127.364 247.275 127.517 247.354 127.722 247.437C127.927 247.521 128.187 247.6 128.503 247.675C128.968 247.795 129.35 247.93 129.647 248.079C129.954 248.219 130.196 248.382 130.373 248.568C130.559 248.744 130.689 248.949 130.764 249.181C130.838 249.414 130.875 249.674 130.875 249.963C130.875 250.381 130.754 250.758 130.512 251.093C130.28 251.419 129.964 251.674 129.564 251.86C129.164 252.047 128.717 252.14 128.224 252.14ZM135.878 252.14C135.124 252.14 134.454 251.981 133.868 251.665C133.292 251.34 132.836 250.898 132.501 250.34C132.175 249.781 132.013 249.14 132.013 248.414C132.013 247.837 132.106 247.312 132.292 246.837C132.478 246.363 132.734 245.954 133.059 245.61C133.394 245.256 133.789 244.986 134.245 244.8C134.71 244.605 135.213 244.507 135.752 244.507C136.226 244.507 136.668 244.6 137.078 244.786C137.487 244.963 137.84 245.21 138.138 245.526C138.445 245.842 138.678 246.219 138.836 246.656C139.003 247.084 139.082 247.554 139.073 248.065L139.059 248.679H133.073L132.752 247.535H137.817L137.608 247.772V247.437C137.58 247.13 137.478 246.856 137.301 246.614C137.124 246.372 136.901 246.182 136.631 246.042C136.361 245.903 136.068 245.833 135.752 245.833C135.25 245.833 134.827 245.93 134.482 246.126C134.138 246.312 133.878 246.591 133.701 246.963C133.524 247.326 133.436 247.777 133.436 248.316C133.436 248.828 133.543 249.275 133.757 249.656C133.971 250.028 134.273 250.316 134.664 250.521C135.054 250.726 135.506 250.828 136.017 250.828C136.38 250.828 136.715 250.767 137.022 250.647C137.338 250.526 137.678 250.307 138.04 249.991L138.766 251.009C138.543 251.233 138.268 251.428 137.943 251.595C137.626 251.763 137.287 251.898 136.924 252C136.571 252.093 136.222 252.14 135.878 252.14ZM68.1731 269.209L69.6522 265.791L69.6661 266.935L66.0104 258.675H67.6848L69.9731 264.061C70.0196 264.154 70.0754 264.298 70.1405 264.493C70.2056 264.679 70.2614 264.865 70.308 265.051L69.9452 265.135C70.0196 264.94 70.0894 264.744 70.1545 264.549C70.2289 264.354 70.2987 264.158 70.3638 263.963L72.2753 258.675H73.9776L70.9637 266L69.7219 269.209H68.1731ZM78.2094 266.14C77.4932 266.14 76.8513 265.977 76.2839 265.651C75.7258 265.316 75.2839 264.865 74.9583 264.298C74.6328 263.721 74.47 263.065 74.47 262.33C74.47 261.595 74.6328 260.944 74.9583 260.377C75.2839 259.8 75.7258 259.349 76.2839 259.023C76.8513 258.689 77.4932 258.521 78.2094 258.521C78.9164 258.521 79.5489 258.689 80.107 259.023C80.6744 259.349 81.1209 259.8 81.4465 260.377C81.7721 260.944 81.9349 261.595 81.9349 262.33C81.9349 263.065 81.7721 263.721 81.4465 264.298C81.1209 264.865 80.6744 265.316 80.107 265.651C79.5489 265.977 78.9164 266.14 78.2094 266.14ZM78.2094 264.828C78.6466 264.828 79.0373 264.721 79.3815 264.507C79.7256 264.284 79.9954 263.986 80.1907 263.614C80.3861 263.233 80.4791 262.805 80.4698 262.33C80.4791 261.847 80.3861 261.419 80.1907 261.047C79.9954 260.665 79.7256 260.368 79.3815 260.154C79.0373 259.94 78.6466 259.833 78.2094 259.833C77.7722 259.833 77.3769 259.944 77.0234 260.168C76.6792 260.382 76.4095 260.679 76.2141 261.061C76.0188 261.433 75.9258 261.856 75.9351 262.33C75.9258 262.805 76.0188 263.233 76.2141 263.614C76.4095 263.986 76.6792 264.284 77.0234 264.507C77.3769 264.721 77.7722 264.828 78.2094 264.828ZM86.0682 266.14C85.5473 266.14 85.0915 266.019 84.7008 265.777C84.3195 265.535 84.0218 265.195 83.8078 264.758C83.6032 264.321 83.5009 263.8 83.5009 263.195V258.675H84.938V262.805C84.938 263.233 85.0032 263.605 85.1334 263.921C85.2729 264.228 85.4683 264.465 85.7194 264.633C85.9799 264.8 86.2915 264.884 86.6543 264.884C86.924 264.884 87.1705 264.842 87.3938 264.758C87.617 264.665 87.8077 264.54 87.9659 264.381C88.1333 264.223 88.2635 264.033 88.3565 263.809C88.4496 263.586 88.4961 263.344 88.4961 263.084V258.675H89.9332V266H88.4961V264.465L88.7472 264.298C88.6356 264.642 88.4449 264.954 88.1751 265.233C87.9147 265.512 87.6031 265.735 87.2403 265.902C86.8775 266.06 86.4868 266.14 86.0682 266.14ZM91.949 266V258.675H93.4001V260.977L93.2606 260.419C93.3629 260.065 93.535 259.744 93.7769 259.456C94.028 259.168 94.3117 258.94 94.628 258.772C94.9536 258.605 95.2884 258.521 95.6326 258.521C95.7907 258.521 95.9396 258.535 96.0791 258.563C96.2279 258.591 96.3442 258.623 96.4279 258.661L96.0512 260.223C95.9396 260.177 95.814 260.14 95.6745 260.112C95.5442 260.075 95.414 260.056 95.2838 260.056C95.0326 260.056 94.7908 260.107 94.5582 260.209C94.335 260.303 94.135 260.437 93.9582 260.614C93.7908 260.782 93.6559 260.982 93.5536 261.214C93.4513 261.437 93.4001 261.684 93.4001 261.954V266H91.949ZM101.515 266V255.675H102.952V266H101.515ZM108.271 266.14C107.518 266.14 106.848 265.981 106.262 265.665C105.685 265.34 105.23 264.898 104.895 264.34C104.569 263.781 104.406 263.14 104.406 262.414C104.406 261.837 104.499 261.312 104.685 260.837C104.871 260.363 105.127 259.954 105.453 259.61C105.788 259.256 106.183 258.986 106.639 258.8C107.104 258.605 107.606 258.507 108.146 258.507C108.62 258.507 109.062 258.6 109.471 258.786C109.881 258.963 110.234 259.21 110.532 259.526C110.839 259.842 111.071 260.219 111.229 260.656C111.397 261.084 111.476 261.554 111.467 262.065L111.453 262.679H105.467L105.146 261.535H110.211L110.002 261.772V261.437C109.974 261.13 109.871 260.856 109.695 260.614C109.518 260.372 109.295 260.182 109.025 260.042C108.755 259.903 108.462 259.833 108.146 259.833C107.643 259.833 107.22 259.93 106.876 260.126C106.532 260.312 106.271 260.591 106.095 260.963C105.918 261.326 105.83 261.777 105.83 262.316C105.83 262.828 105.937 263.275 106.15 263.656C106.364 264.028 106.667 264.316 107.057 264.521C107.448 264.726 107.899 264.828 108.411 264.828C108.774 264.828 109.109 264.767 109.415 264.647C109.732 264.526 110.071 264.307 110.434 263.991L111.16 265.009C110.936 265.233 110.662 265.428 110.336 265.595C110.02 265.763 109.681 265.898 109.318 266C108.964 266.093 108.616 266.14 108.271 266.14ZM115.292 266L112.195 258.675H113.743L115.976 264.158L115.711 264.284L118.097 258.675H119.576L116.325 266H115.292ZM124.105 266.14C123.351 266.14 122.682 265.981 122.096 265.665C121.519 265.34 121.063 264.898 120.728 264.34C120.403 263.781 120.24 263.14 120.24 262.414C120.24 261.837 120.333 261.312 120.519 260.837C120.705 260.363 120.961 259.954 121.286 259.61C121.621 259.256 122.016 258.986 122.472 258.8C122.937 258.605 123.44 258.507 123.979 258.507C124.454 258.507 124.895 258.6 125.305 258.786C125.714 258.963 126.067 259.21 126.365 259.526C126.672 259.842 126.905 260.219 127.063 260.656C127.23 261.084 127.309 261.554 127.3 262.065L127.286 262.679H121.3L120.979 261.535H126.044L125.835 261.772V261.437C125.807 261.13 125.705 260.856 125.528 260.614C125.351 260.372 125.128 260.182 124.858 260.042C124.588 259.903 124.295 259.833 123.979 259.833C123.477 259.833 123.054 259.93 122.709 260.126C122.365 260.312 122.105 260.591 121.928 260.963C121.751 261.326 121.663 261.777 121.663 262.316C121.663 262.828 121.77 263.275 121.984 263.656C122.198 264.028 122.5 264.316 122.891 264.521C123.282 264.726 123.733 264.828 124.244 264.828C124.607 264.828 124.942 264.767 125.249 264.647C125.565 264.526 125.905 264.307 126.267 263.991L126.993 265.009C126.77 265.233 126.495 265.428 126.17 265.595C125.854 265.763 125.514 265.898 125.151 266C124.798 266.093 124.449 266.14 124.105 266.14ZM128.89 266V255.675H130.327V266H128.89ZM139.567 266.14C138.851 266.14 138.209 265.977 137.642 265.651C137.084 265.316 136.642 264.865 136.316 264.298C135.991 263.721 135.828 263.065 135.828 262.33C135.828 261.595 135.991 260.944 136.316 260.377C136.642 259.8 137.084 259.349 137.642 259.023C138.209 258.689 138.851 258.521 139.567 258.521C140.274 258.521 140.907 258.689 141.465 259.023C142.032 259.349 142.479 259.8 142.804 260.377C143.13 260.944 143.293 261.595 143.293 262.33C143.293 263.065 143.13 263.721 142.804 264.298C142.479 264.865 142.032 265.316 141.465 265.651C140.907 265.977 140.274 266.14 139.567 266.14ZM139.567 264.828C140.005 264.828 140.395 264.721 140.739 264.507C141.084 264.284 141.353 263.986 141.549 263.614C141.744 263.233 141.837 262.805 141.828 262.33C141.837 261.847 141.744 261.419 141.549 261.047C141.353 260.665 141.084 260.368 140.739 260.154C140.395 259.94 140.005 259.833 139.567 259.833C139.13 259.833 138.735 259.944 138.381 260.168C138.037 260.382 137.767 260.679 137.572 261.061C137.377 261.433 137.284 261.856 137.293 262.33C137.284 262.805 137.377 263.233 137.572 263.614C137.767 263.986 138.037 264.284 138.381 264.507C138.735 264.721 139.13 264.828 139.567 264.828ZM145.382 266V257.851C145.382 257.433 145.475 257.061 145.661 256.735C145.847 256.41 146.103 256.154 146.428 255.968C146.754 255.782 147.13 255.689 147.558 255.689C147.856 255.689 148.135 255.745 148.395 255.856C148.656 255.968 148.865 256.117 149.023 256.303L148.535 257.405C148.414 257.293 148.279 257.205 148.13 257.14C147.991 257.065 147.856 257.028 147.726 257.028C147.53 257.028 147.363 257.061 147.223 257.126C147.093 257.182 146.996 257.275 146.93 257.405C146.865 257.526 146.833 257.675 146.833 257.851V266H146.107C145.986 266 145.865 266 145.744 266C145.623 266 145.503 266 145.382 266ZM144.21 260.126V258.8H148.563V260.126H144.21ZM67.564 280V272.675H69.0012V280H67.564ZM68.2617 271.056C67.9547 271.056 67.7175 270.977 67.55 270.819C67.3826 270.661 67.2989 270.438 67.2989 270.149C67.2989 269.879 67.3826 269.661 67.55 269.493C67.7268 269.326 67.964 269.242 68.2617 269.242C68.5686 269.242 68.8058 269.321 68.9733 269.479C69.1407 269.638 69.2244 269.861 69.2244 270.149C69.2244 270.419 69.136 270.638 68.9593 270.805C68.7919 270.972 68.5593 271.056 68.2617 271.056ZM71.2102 280V272.675H72.6474V274.182L72.3962 274.349C72.4892 274.023 72.6706 273.726 72.9404 273.456C73.2102 273.177 73.5311 272.954 73.9032 272.786C74.2752 272.61 74.6566 272.521 75.0473 272.521C75.6054 272.521 76.0705 272.633 76.4426 272.856C76.8147 273.07 77.0937 273.4 77.2798 273.847C77.4658 274.293 77.5588 274.856 77.5588 275.535V280H76.1217V275.633C76.1217 275.214 76.0659 274.87 75.9542 274.6C75.8426 274.321 75.6705 274.121 75.438 274C75.2054 273.87 74.9171 273.814 74.5729 273.833C74.2938 273.833 74.038 273.879 73.8055 273.972C73.5729 274.056 73.3683 274.177 73.1915 274.335C73.0241 274.493 72.8892 274.679 72.7869 274.893C72.6939 275.098 72.6474 275.321 72.6474 275.563V280H71.9358C71.8148 280 71.6939 280 71.573 280C71.4521 280 71.3311 280 71.2102 280ZM81.9084 280L78.8108 272.675H80.3596L82.5921 278.158L82.327 278.284L84.7129 272.675H86.192L82.9409 280H81.9084ZM90.5955 280.14C89.8792 280.14 89.2374 279.977 88.6699 279.651C88.1118 279.316 87.67 278.865 87.3444 278.298C87.0188 277.721 86.856 277.065 86.856 276.33C86.856 275.595 87.0188 274.944 87.3444 274.377C87.67 273.8 88.1118 273.349 88.6699 273.023C89.2374 272.689 89.8792 272.521 90.5955 272.521C91.3024 272.521 91.9349 272.689 92.4931 273.023C93.0605 273.349 93.507 273.8 93.8326 274.377C94.1581 274.944 94.3209 275.595 94.3209 276.33C94.3209 277.065 94.1581 277.721 93.8326 278.298C93.507 278.865 93.0605 279.316 92.4931 279.651C91.9349 279.977 91.3024 280.14 90.5955 280.14ZM90.5955 278.828C91.0327 278.828 91.4233 278.721 91.7675 278.507C92.1117 278.284 92.3814 277.986 92.5768 277.614C92.7721 277.233 92.8652 276.805 92.8558 276.33C92.8652 275.847 92.7721 275.419 92.5768 275.047C92.3814 274.665 92.1117 274.368 91.7675 274.154C91.4233 273.94 91.0327 273.833 90.5955 273.833C90.1583 273.833 89.7629 273.944 89.4094 274.168C89.0653 274.382 88.7955 274.679 88.6002 275.061C88.4048 275.433 88.3118 275.856 88.3211 276.33C88.3118 276.805 88.4048 277.233 88.6002 277.614C88.7955 277.986 89.0653 278.284 89.4094 278.507C89.7629 278.721 90.1583 278.828 90.5955 278.828ZM95.9148 280V269.675H97.352V280H95.9148ZM101.434 280L98.3369 272.675H99.8857L102.118 278.158L101.853 278.284L104.239 272.675H105.718L102.467 280H101.434ZM110.247 280.14C109.494 280.14 108.824 279.981 108.238 279.665C107.661 279.34 107.205 278.898 106.87 278.34C106.545 277.781 106.382 277.14 106.382 276.414C106.382 275.837 106.475 275.312 106.661 274.837C106.847 274.363 107.103 273.954 107.429 273.61C107.763 273.256 108.159 272.986 108.615 272.8C109.08 272.605 109.582 272.507 110.122 272.507C110.596 272.507 111.038 272.6 111.447 272.786C111.856 272.963 112.21 273.21 112.508 273.526C112.814 273.842 113.047 274.219 113.205 274.656C113.373 275.084 113.452 275.554 113.442 276.065L113.428 276.679H107.443L107.122 275.535H112.187L111.977 275.772V275.437C111.949 275.13 111.847 274.856 111.67 274.614C111.494 274.372 111.27 274.182 111.001 274.042C110.731 273.903 110.438 273.833 110.122 273.833C109.619 273.833 109.196 273.93 108.852 274.126C108.508 274.312 108.247 274.591 108.07 274.963C107.894 275.326 107.805 275.777 107.805 276.316C107.805 276.828 107.912 277.275 108.126 277.656C108.34 278.028 108.643 278.316 109.033 278.521C109.424 278.726 109.875 278.828 110.387 278.828C110.749 278.828 111.084 278.767 111.391 278.647C111.708 278.526 112.047 278.307 112.41 277.991L113.135 279.009C112.912 279.233 112.638 279.428 112.312 279.595C111.996 279.763 111.656 279.898 111.294 280C110.94 280.093 110.591 280.14 110.247 280.14ZM114.976 280V272.675H116.427V274.237L116.162 274.405C116.237 274.163 116.353 273.93 116.511 273.707C116.679 273.484 116.879 273.289 117.111 273.121C117.353 272.944 117.609 272.805 117.879 272.703C118.158 272.6 118.441 272.549 118.73 272.549C119.148 272.549 119.516 272.619 119.832 272.758C120.148 272.898 120.409 273.107 120.613 273.386C120.818 273.665 120.967 274.014 121.06 274.433L120.837 274.377L120.934 274.14C121.037 273.926 121.176 273.726 121.353 273.54C121.539 273.344 121.748 273.172 121.981 273.023C122.213 272.875 122.46 272.758 122.72 272.675C122.981 272.591 123.237 272.549 123.488 272.549C124.036 272.549 124.488 272.661 124.841 272.884C125.204 273.107 125.474 273.447 125.65 273.903C125.836 274.358 125.929 274.926 125.929 275.605V280H124.478V275.689C124.478 275.27 124.423 274.93 124.311 274.67C124.209 274.4 124.05 274.2 123.837 274.07C123.623 273.94 123.348 273.875 123.013 273.875C122.753 273.875 122.506 273.921 122.274 274.014C122.051 274.098 121.855 274.219 121.688 274.377C121.52 274.535 121.39 274.721 121.297 274.935C121.204 275.14 121.158 275.368 121.158 275.619V280H119.706V275.661C119.706 275.279 119.651 274.958 119.539 274.698C119.427 274.428 119.265 274.223 119.051 274.084C118.837 273.944 118.576 273.875 118.269 273.875C118.009 273.875 117.767 273.921 117.544 274.014C117.32 274.098 117.125 274.219 116.958 274.377C116.79 274.526 116.66 274.707 116.567 274.921C116.474 275.126 116.427 275.349 116.427 275.591V280H114.976ZM131.272 280.14C130.519 280.14 129.849 279.981 129.263 279.665C128.686 279.34 128.23 278.898 127.895 278.34C127.57 277.781 127.407 277.14 127.407 276.414C127.407 275.837 127.5 275.312 127.686 274.837C127.872 274.363 128.128 273.954 128.454 273.61C128.788 273.256 129.184 272.986 129.64 272.8C130.105 272.605 130.607 272.507 131.146 272.507C131.621 272.507 132.063 272.6 132.472 272.786C132.881 272.963 133.235 273.21 133.532 273.526C133.839 273.842 134.072 274.219 134.23 274.656C134.398 275.084 134.477 275.554 134.467 276.065L134.453 276.679H128.467L128.147 275.535H133.212L133.002 275.772V275.437C132.974 275.13 132.872 274.856 132.695 274.614C132.519 274.372 132.295 274.182 132.026 274.042C131.756 273.903 131.463 273.833 131.146 273.833C130.644 273.833 130.221 273.93 129.877 274.126C129.533 274.312 129.272 274.591 129.095 274.963C128.919 275.326 128.83 275.777 128.83 276.316C128.83 276.828 128.937 277.275 129.151 277.656C129.365 278.028 129.667 278.316 130.058 278.521C130.449 278.726 130.9 278.828 131.412 278.828C131.774 278.828 132.109 278.767 132.416 278.647C132.732 278.526 133.072 278.307 133.435 277.991L134.16 279.009C133.937 279.233 133.663 279.428 133.337 279.595C133.021 279.763 132.681 279.898 132.319 280C131.965 280.093 131.616 280.14 131.272 280.14ZM136.029 280V272.675H137.466V274.182L137.215 274.349C137.308 274.023 137.49 273.726 137.759 273.456C138.029 273.177 138.35 272.954 138.722 272.786C139.094 272.61 139.476 272.521 139.866 272.521C140.424 272.521 140.889 272.633 141.262 272.856C141.634 273.07 141.913 273.4 142.099 273.847C142.285 274.293 142.378 274.856 142.378 275.535V280H140.941V275.633C140.941 275.214 140.885 274.87 140.773 274.6C140.662 274.321 140.489 274.121 140.257 274C140.024 273.87 139.736 273.814 139.392 273.833C139.113 273.833 138.857 273.879 138.624 273.972C138.392 274.056 138.187 274.177 138.011 274.335C137.843 274.493 137.708 274.679 137.606 274.893C137.513 275.098 137.466 275.321 137.466 275.563V280H136.755C136.634 280 136.513 280 136.392 280C136.271 280 136.15 280 136.029 280ZM145.234 280V270.805H146.672V280H145.234ZM143.713 274.07V272.675H148.374V274.07H143.713Z" fill="#1D1D1D"/>
</svg>
