<svg width="696" height="656" viewBox="0 0 696 656" fill="none" xmlns="http://www.w3.org/2000/svg">
<path d="M359.307 101.288C386.174 97.3689 414.571 95.9941 442.69 97.2504C470.81 98.5068 498.038 102.367 522.643 108.585C547.248 114.803 568.692 123.244 585.611 133.37C602.531 143.497 614.556 155.087 620.922 167.405C627.288 179.722 627.856 192.498 622.59 204.919C617.324 217.34 606.338 229.136 590.332 239.555C574.326 249.974 553.649 258.79 529.617 265.441C505.584 272.092 478.721 276.433 450.735 278.189" stroke="#FBD348" stroke-width="6.97652"/>
<path d="M367.192 494.094C374.502 479.941 386.417 468.758 400.908 462.449C415.398 456.14 431.568 455.097 446.661 459.495C461.754 463.894 474.837 473.464 483.681 486.573C492.524 499.683 496.582 515.521 495.161 531.39C493.74 547.259 486.93 562.176 475.89 573.6C464.85 585.024 450.263 592.248 434.616 594.041C418.968 595.833 403.228 592.084 390.077 583.432C376.925 574.78 367.177 561.76 362.492 546.591" stroke="#CB3C79" stroke-width="2.61619" stroke-dasharray="8.72 8.72"/>
<rect x="436.92" y="509.286" width="123.833" height="43.6033" rx="8.72065" fill="#CB3C79"/>
<path d="M465.547 529.274C464.84 529.274 464.193 529.153 463.607 528.911C463.021 528.67 462.514 528.325 462.086 527.879C461.658 527.423 461.324 526.888 461.082 526.274C460.849 525.651 460.733 524.972 460.733 524.237C460.733 523.53 460.858 522.874 461.11 522.27C461.361 521.665 461.71 521.135 462.156 520.679C462.603 520.223 463.124 519.87 463.719 519.619C464.314 519.368 464.961 519.242 465.658 519.242C466.133 519.242 466.593 519.312 467.04 519.451C467.486 519.591 467.895 519.786 468.268 520.037C468.64 520.279 468.951 520.563 469.202 520.888L468.044 522.158C467.802 521.907 467.551 521.698 467.291 521.53C467.04 521.353 466.775 521.223 466.496 521.14C466.226 521.047 465.947 521 465.658 521C465.23 521 464.826 521.079 464.444 521.237C464.072 521.395 463.747 521.619 463.468 521.907C463.198 522.195 462.984 522.54 462.826 522.939C462.668 523.33 462.589 523.767 462.589 524.251C462.589 524.744 462.663 525.191 462.812 525.591C462.97 525.991 463.189 526.335 463.468 526.623C463.756 526.911 464.096 527.135 464.486 527.293C464.886 527.442 465.323 527.516 465.798 527.516C466.105 527.516 466.402 527.474 466.691 527.391C466.979 527.307 467.244 527.191 467.486 527.042C467.737 526.884 467.965 526.702 468.17 526.498L469.063 527.935C468.84 528.186 468.542 528.414 468.17 528.618C467.798 528.823 467.379 528.986 466.914 529.107C466.458 529.218 466.002 529.274 465.547 529.274ZM473.997 529.274C473.262 529.274 472.606 529.111 472.029 528.786C471.452 528.451 470.997 527.995 470.662 527.418C470.327 526.842 470.159 526.186 470.159 525.451C470.159 524.716 470.327 524.06 470.662 523.484C470.997 522.907 471.452 522.456 472.029 522.13C472.606 521.795 473.262 521.628 473.997 521.628C474.722 521.628 475.373 521.795 475.95 522.13C476.527 522.456 476.978 522.907 477.303 523.484C477.638 524.06 477.806 524.716 477.806 525.451C477.806 526.186 477.638 526.842 477.303 527.418C476.978 527.995 476.527 528.451 475.95 528.786C475.373 529.111 474.722 529.274 473.997 529.274ZM473.997 527.753C474.397 527.753 474.75 527.651 475.057 527.446C475.373 527.242 475.62 526.967 475.797 526.623C475.983 526.279 476.071 525.888 476.062 525.451C476.071 525.005 475.983 524.609 475.797 524.265C475.62 523.921 475.373 523.651 475.057 523.456C474.75 523.251 474.397 523.149 473.997 523.149C473.597 523.149 473.234 523.251 472.908 523.456C472.592 523.651 472.345 523.926 472.169 524.279C471.992 524.623 471.904 525.014 471.904 525.451C471.904 525.888 471.992 526.279 472.169 526.623C472.345 526.967 472.592 527.242 472.908 527.446C473.234 527.651 473.597 527.753 473.997 527.753ZM479.341 529.135V521.781H481.015L481.043 523.288L480.722 523.456C480.815 523.121 480.997 522.819 481.266 522.549C481.536 522.27 481.857 522.046 482.229 521.879C482.601 521.712 482.983 521.628 483.373 521.628C483.931 521.628 484.397 521.74 484.769 521.963C485.15 522.186 485.434 522.521 485.62 522.967C485.815 523.414 485.913 523.972 485.913 524.642V529.135H484.197V524.767C484.197 524.395 484.145 524.088 484.043 523.846C483.941 523.595 483.783 523.414 483.569 523.302C483.355 523.181 483.094 523.126 482.787 523.135C482.536 523.135 482.304 523.177 482.09 523.26C481.885 523.335 481.704 523.446 481.545 523.595C481.397 523.735 481.276 523.898 481.183 524.084C481.099 524.27 481.057 524.474 481.057 524.698V529.135H480.206C480.039 529.135 479.88 529.135 479.732 529.135C479.592 529.135 479.462 529.135 479.341 529.135ZM488.639 529.135V519.912H490.355V529.135H488.639ZM487.188 523.372V521.781H491.96V523.372H487.188ZM493.462 529.135V521.781H495.178V529.135H493.462ZM494.299 520.219C493.955 520.219 493.685 520.135 493.49 519.967C493.304 519.791 493.211 519.544 493.211 519.228C493.211 518.93 493.309 518.688 493.504 518.502C493.699 518.316 493.964 518.223 494.299 518.223C494.653 518.223 494.922 518.312 495.109 518.488C495.304 518.656 495.402 518.902 495.402 519.228C495.402 519.516 495.304 519.754 495.109 519.94C494.913 520.126 494.643 520.219 494.299 520.219ZM497.355 529.135V521.781H499.029L499.057 523.288L498.736 523.456C498.829 523.121 499.01 522.819 499.28 522.549C499.55 522.27 499.871 522.046 500.243 521.879C500.615 521.712 500.996 521.628 501.387 521.628C501.945 521.628 502.41 521.74 502.782 521.963C503.164 522.186 503.447 522.521 503.633 522.967C503.829 523.414 503.926 523.972 503.926 524.642V529.135H502.21V524.767C502.21 524.395 502.159 524.088 502.057 523.846C501.954 523.595 501.796 523.414 501.582 523.302C501.368 523.181 501.108 523.126 500.801 523.135C500.55 523.135 500.317 523.177 500.103 523.26C499.899 523.335 499.717 523.446 499.559 523.595C499.41 523.735 499.289 523.898 499.196 524.084C499.113 524.27 499.071 524.474 499.071 524.698V529.135H498.22C498.052 529.135 497.894 529.135 497.745 529.135C497.606 529.135 497.475 529.135 497.355 529.135ZM508.411 529.274C507.88 529.274 507.42 529.158 507.029 528.925C506.639 528.683 506.341 528.344 506.136 527.907C505.932 527.46 505.829 526.93 505.829 526.316V521.781H507.545V525.953C507.545 526.344 507.606 526.679 507.727 526.958C507.848 527.228 508.025 527.437 508.257 527.586C508.49 527.735 508.769 527.809 509.094 527.809C509.336 527.809 509.555 527.772 509.75 527.697C509.955 527.614 510.131 527.502 510.28 527.363C510.429 527.214 510.545 527.042 510.629 526.846C510.713 526.642 510.755 526.423 510.755 526.191V521.781H512.471V529.135H510.797L510.769 527.6L511.076 527.432C510.964 527.786 510.773 528.102 510.504 528.381C510.243 528.651 509.931 528.87 509.569 529.037C509.206 529.195 508.82 529.274 508.411 529.274ZM517.845 529.274C517.11 529.274 516.454 529.111 515.878 528.786C515.301 528.451 514.845 527.995 514.51 527.418C514.175 526.842 514.008 526.186 514.008 525.451C514.008 524.716 514.175 524.06 514.51 523.484C514.845 522.907 515.301 522.456 515.878 522.13C516.454 521.795 517.11 521.628 517.845 521.628C518.571 521.628 519.222 521.795 519.799 522.13C520.375 522.456 520.826 522.907 521.152 523.484C521.487 524.06 521.654 524.716 521.654 525.451C521.654 526.186 521.487 526.842 521.152 527.418C520.826 527.995 520.375 528.451 519.799 528.786C519.222 529.111 518.571 529.274 517.845 529.274ZM517.845 527.753C518.245 527.753 518.599 527.651 518.906 527.446C519.222 527.242 519.468 526.967 519.645 526.623C519.831 526.279 519.919 525.888 519.91 525.451C519.919 525.005 519.831 524.609 519.645 524.265C519.468 523.921 519.222 523.651 518.906 523.456C518.599 523.251 518.245 523.149 517.845 523.149C517.445 523.149 517.082 523.251 516.757 523.456C516.44 523.651 516.194 523.926 516.017 524.279C515.841 524.623 515.752 525.014 515.752 525.451C515.752 525.888 515.841 526.279 516.017 526.623C516.194 526.967 516.44 527.242 516.757 527.446C517.082 527.651 517.445 527.753 517.845 527.753ZM525.743 529.274C525.213 529.274 524.752 529.158 524.361 528.925C523.971 528.683 523.673 528.344 523.468 527.907C523.264 527.46 523.162 526.93 523.162 526.316V521.781H524.878V525.953C524.878 526.344 524.938 526.679 525.059 526.958C525.18 527.228 525.357 527.437 525.589 527.586C525.822 527.735 526.101 527.809 526.427 527.809C526.668 527.809 526.887 527.772 527.082 527.697C527.287 527.614 527.464 527.502 527.613 527.363C527.761 527.214 527.878 527.042 527.961 526.846C528.045 526.642 528.087 526.423 528.087 526.191V521.781H529.803V529.135H528.129L528.101 527.6L528.408 527.432C528.296 527.786 528.106 528.102 527.836 528.381C527.575 528.651 527.264 528.87 526.901 529.037C526.538 529.195 526.152 529.274 525.743 529.274ZM534.27 529.274C533.619 529.274 533.033 529.167 532.512 528.953C532.001 528.73 531.582 528.414 531.257 528.004L532.373 527.042C532.652 527.358 532.964 527.586 533.308 527.725C533.652 527.865 534.015 527.935 534.396 527.935C534.554 527.935 534.694 527.916 534.815 527.879C534.945 527.842 535.056 527.786 535.149 527.711C535.242 527.637 535.312 527.553 535.359 527.46C535.415 527.358 535.442 527.246 535.442 527.125C535.442 526.902 535.359 526.725 535.191 526.595C535.098 526.53 534.949 526.46 534.745 526.386C534.549 526.311 534.294 526.237 533.977 526.163C533.475 526.032 533.057 525.884 532.722 525.716C532.387 525.539 532.126 525.344 531.94 525.13C531.782 524.953 531.661 524.753 531.577 524.53C531.503 524.307 531.466 524.065 531.466 523.805C531.466 523.479 531.536 523.186 531.675 522.926C531.824 522.656 532.024 522.423 532.275 522.228C532.526 522.033 532.819 521.884 533.154 521.781C533.489 521.679 533.838 521.628 534.201 521.628C534.573 521.628 534.931 521.674 535.275 521.767C535.629 521.86 535.954 521.995 536.252 522.172C536.559 522.34 536.819 522.544 537.033 522.786L536.084 523.832C535.908 523.665 535.712 523.516 535.498 523.386C535.294 523.256 535.084 523.153 534.87 523.079C534.656 522.995 534.456 522.953 534.27 522.953C534.094 522.953 533.936 522.972 533.796 523.009C533.657 523.037 533.54 523.084 533.447 523.149C533.354 523.214 533.28 523.298 533.224 523.4C533.177 523.493 533.154 523.605 533.154 523.735C533.163 523.846 533.191 523.953 533.238 524.056C533.294 524.149 533.368 524.228 533.461 524.293C533.563 524.358 533.717 524.432 533.922 524.516C534.126 524.6 534.391 524.679 534.717 524.753C535.173 524.874 535.554 525.009 535.861 525.158C536.168 525.307 536.41 525.479 536.587 525.674C536.763 525.842 536.889 526.037 536.963 526.26C537.038 526.484 537.075 526.73 537.075 527C537.075 527.437 536.949 527.828 536.698 528.172C536.456 528.516 536.122 528.786 535.694 528.981C535.275 529.177 534.801 529.274 534.27 529.274ZM458.038 543.274C457.387 543.274 456.801 543.111 456.28 542.786C455.768 542.451 455.359 542 455.052 541.432C454.754 540.856 454.605 540.195 454.605 539.451C454.605 538.716 454.754 538.06 455.052 537.484C455.35 536.907 455.754 536.456 456.266 536.13C456.787 535.795 457.373 535.628 458.024 535.628C458.377 535.628 458.717 535.684 459.042 535.795C459.377 535.907 459.675 536.06 459.935 536.256C460.196 536.442 460.401 536.651 460.549 536.884C460.708 537.116 460.796 537.358 460.814 537.609L460.354 537.665V532.809H462.07V543.135H460.41L460.368 541.404L460.703 541.432C460.694 541.665 460.61 541.888 460.452 542.102C460.303 542.316 460.108 542.511 459.866 542.688C459.624 542.865 459.34 543.009 459.015 543.121C458.698 543.223 458.373 543.274 458.038 543.274ZM458.373 541.823C458.773 541.823 459.126 541.721 459.433 541.516C459.74 541.311 459.977 541.032 460.145 540.679C460.321 540.325 460.41 539.916 460.41 539.451C460.41 538.995 460.321 538.591 460.145 538.237C459.977 537.874 459.74 537.595 459.433 537.4C459.126 537.195 458.773 537.093 458.373 537.093C457.973 537.093 457.619 537.195 457.312 537.4C457.005 537.595 456.763 537.874 456.587 538.237C456.419 538.591 456.336 538.995 456.336 539.451C456.336 539.916 456.419 540.325 456.587 540.679C456.763 541.032 457.005 541.311 457.312 541.516C457.619 541.721 457.973 541.823 458.373 541.823ZM467.465 543.274C466.693 543.274 466.009 543.111 465.414 542.786C464.828 542.46 464.367 542.018 464.032 541.46C463.707 540.893 463.544 540.246 463.544 539.521C463.544 538.944 463.637 538.419 463.823 537.944C464.009 537.47 464.265 537.06 464.591 536.716C464.925 536.363 465.321 536.093 465.777 535.907C466.242 535.712 466.749 535.614 467.297 535.614C467.781 535.614 468.232 535.707 468.651 535.893C469.069 536.079 469.432 536.335 469.739 536.66C470.046 536.977 470.279 537.358 470.437 537.805C470.604 538.242 470.683 538.721 470.674 539.242L470.66 539.842H464.702L464.381 538.67H469.223L469 538.907V538.6C468.972 538.312 468.879 538.06 468.721 537.846C468.562 537.623 468.358 537.451 468.107 537.33C467.865 537.2 467.595 537.135 467.297 537.135C466.842 537.135 466.456 537.223 466.139 537.4C465.832 537.577 465.6 537.832 465.442 538.167C465.284 538.493 465.204 538.902 465.204 539.395C465.204 539.87 465.302 540.284 465.497 540.637C465.702 540.991 465.986 541.265 466.349 541.46C466.721 541.646 467.153 541.739 467.646 541.739C467.99 541.739 468.307 541.684 468.595 541.572C468.883 541.46 469.195 541.26 469.53 540.972L470.381 542.158C470.13 542.39 469.842 542.59 469.516 542.758C469.2 542.916 468.865 543.042 468.511 543.135C468.158 543.228 467.809 543.274 467.465 543.274ZM474.416 543.135L471.318 535.781H473.188L475.281 541.279L474.918 541.377L477.123 535.781H478.951L475.7 543.135H474.416ZM483.448 543.274C482.676 543.274 481.992 543.111 481.397 542.786C480.811 542.46 480.351 542.018 480.016 541.46C479.69 540.893 479.527 540.246 479.527 539.521C479.527 538.944 479.62 538.419 479.806 537.944C479.992 537.47 480.248 537.06 480.574 536.716C480.909 536.363 481.304 536.093 481.76 535.907C482.225 535.712 482.732 535.614 483.281 535.614C483.764 535.614 484.216 535.707 484.634 535.893C485.053 536.079 485.416 536.335 485.723 536.66C486.029 536.977 486.262 537.358 486.42 537.805C486.588 538.242 486.667 538.721 486.657 539.242L486.643 539.842H480.685L480.365 538.67H485.206L484.983 538.907V538.6C484.955 538.312 484.862 538.06 484.704 537.846C484.546 537.623 484.341 537.451 484.09 537.33C483.848 537.2 483.578 537.135 483.281 537.135C482.825 537.135 482.439 537.223 482.123 537.4C481.816 537.577 481.583 537.832 481.425 538.167C481.267 538.493 481.188 538.902 481.188 539.395C481.188 539.87 481.285 540.284 481.481 540.637C481.685 540.991 481.969 541.265 482.332 541.46C482.704 541.646 483.137 541.739 483.63 541.739C483.974 541.739 484.29 541.684 484.578 541.572C484.867 541.46 485.178 541.26 485.513 540.972L486.364 542.158C486.113 542.39 485.825 542.59 485.499 542.758C485.183 542.916 484.848 543.042 484.495 543.135C484.141 543.228 483.792 543.274 483.448 543.274ZM488.191 543.135V532.809H489.922V543.135H488.191ZM495.165 543.274C494.43 543.274 493.774 543.111 493.197 542.786C492.62 542.451 492.165 541.995 491.83 541.418C491.495 540.842 491.327 540.186 491.327 539.451C491.327 538.716 491.495 538.06 491.83 537.484C492.165 536.907 492.62 536.456 493.197 536.13C493.774 535.795 494.43 535.628 495.165 535.628C495.89 535.628 496.541 535.795 497.118 536.13C497.695 536.456 498.146 536.907 498.471 537.484C498.806 538.06 498.974 538.716 498.974 539.451C498.974 540.186 498.806 540.842 498.471 541.418C498.146 541.995 497.695 542.451 497.118 542.786C496.541 543.111 495.89 543.274 495.165 543.274ZM495.165 541.753C495.565 541.753 495.918 541.651 496.225 541.446C496.541 541.242 496.788 540.967 496.965 540.623C497.151 540.279 497.239 539.888 497.23 539.451C497.239 539.005 497.151 538.609 496.965 538.265C496.788 537.921 496.541 537.651 496.225 537.456C495.918 537.251 495.565 537.149 495.165 537.149C494.765 537.149 494.402 537.251 494.076 537.456C493.76 537.651 493.513 537.926 493.337 538.279C493.16 538.623 493.072 539.014 493.072 539.451C493.072 539.888 493.16 540.279 493.337 540.623C493.513 540.967 493.76 541.242 494.076 541.446C494.402 541.651 494.765 541.753 495.165 541.753ZM500.509 546.204V535.781H502.197L502.225 537.456L501.932 537.33C501.988 537.042 502.146 536.772 502.407 536.521C502.667 536.26 502.983 536.051 503.355 535.893C503.737 535.735 504.132 535.656 504.541 535.656C505.192 535.656 505.769 535.819 506.272 536.144C506.783 536.47 507.183 536.916 507.471 537.484C507.769 538.051 507.918 538.707 507.918 539.451C507.918 540.186 507.769 540.842 507.471 541.418C507.183 541.986 506.783 542.437 506.272 542.772C505.769 543.097 505.202 543.26 504.569 543.26C504.141 543.26 503.727 543.177 503.327 543.009C502.937 542.842 502.602 542.623 502.323 542.353C502.053 542.084 501.886 541.8 501.821 541.502L502.239 541.307V546.204H500.509ZM504.22 541.739C504.611 541.739 504.96 541.642 505.267 541.446C505.574 541.251 505.811 540.981 505.979 540.637C506.155 540.293 506.244 539.898 506.244 539.451C506.244 539.005 506.16 538.614 505.992 538.279C505.825 537.935 505.588 537.665 505.281 537.47C504.974 537.274 504.62 537.177 504.22 537.177C503.811 537.177 503.453 537.274 503.146 537.47C502.848 537.656 502.611 537.921 502.434 538.265C502.258 538.609 502.169 539.005 502.169 539.451C502.169 539.898 502.258 540.293 502.434 540.637C502.611 540.981 502.848 541.251 503.146 541.446C503.453 541.642 503.811 541.739 504.22 541.739ZM509.42 543.135V535.781H511.108L511.136 537.26L510.857 537.372C510.941 537.13 511.066 536.907 511.234 536.702C511.401 536.488 511.601 536.307 511.834 536.158C512.066 536 512.313 535.879 512.573 535.795C512.834 535.702 513.099 535.656 513.368 535.656C513.768 535.656 514.122 535.721 514.429 535.851C514.745 535.972 515.006 536.167 515.21 536.437C515.424 536.707 515.582 537.051 515.685 537.47L515.419 537.414L515.531 537.191C515.633 536.967 515.778 536.767 515.964 536.591C516.15 536.405 516.359 536.242 516.592 536.102C516.824 535.953 517.066 535.842 517.317 535.767C517.578 535.693 517.833 535.656 518.085 535.656C518.643 535.656 519.108 535.767 519.48 535.991C519.852 536.214 520.131 536.553 520.317 537.009C520.503 537.465 520.596 538.028 520.596 538.698V543.135H518.866V538.809C518.866 538.437 518.815 538.13 518.712 537.888C518.619 537.646 518.471 537.47 518.266 537.358C518.071 537.237 517.824 537.177 517.526 537.177C517.294 537.177 517.071 537.219 516.857 537.302C516.652 537.377 516.475 537.488 516.326 537.637C516.178 537.777 516.061 537.939 515.978 538.126C515.894 538.312 515.852 538.516 515.852 538.739V543.135H514.122V538.795C514.122 538.442 514.071 538.149 513.968 537.916C513.866 537.674 513.717 537.493 513.522 537.372C513.327 537.242 513.089 537.177 512.81 537.177C512.578 537.177 512.359 537.219 512.154 537.302C511.95 537.377 511.773 537.484 511.624 537.623C511.475 537.763 511.359 537.926 511.275 538.112C511.192 538.298 511.15 538.502 511.15 538.725V543.135H509.42ZM525.948 543.274C525.176 543.274 524.492 543.111 523.897 542.786C523.311 542.46 522.85 542.018 522.515 541.46C522.19 540.893 522.027 540.246 522.027 539.521C522.027 538.944 522.12 538.419 522.306 537.944C522.492 537.47 522.748 537.06 523.073 536.716C523.408 536.363 523.804 536.093 524.259 535.907C524.724 535.712 525.231 535.614 525.78 535.614C526.264 535.614 526.715 535.707 527.134 535.893C527.552 536.079 527.915 536.335 528.222 536.66C528.529 536.977 528.762 537.358 528.92 537.805C529.087 538.242 529.166 538.721 529.157 539.242L529.143 539.842H523.185L522.864 538.67H527.706L527.483 538.907V538.6C527.455 538.312 527.362 538.06 527.203 537.846C527.045 537.623 526.841 537.451 526.59 537.33C526.348 537.2 526.078 537.135 525.78 537.135C525.324 537.135 524.938 537.223 524.622 537.4C524.315 537.577 524.083 537.832 523.925 538.167C523.766 538.493 523.687 538.902 523.687 539.395C523.687 539.87 523.785 540.284 523.98 540.637C524.185 540.991 524.469 541.265 524.831 541.46C525.204 541.646 525.636 541.739 526.129 541.739C526.473 541.739 526.79 541.684 527.078 541.572C527.366 541.46 527.678 541.26 528.013 540.972L528.864 542.158C528.613 542.39 528.324 542.59 527.999 542.758C527.683 542.916 527.348 543.042 526.994 543.135C526.641 543.228 526.292 543.274 525.948 543.274ZM530.677 543.135V535.781H532.351L532.379 537.288L532.058 537.456C532.151 537.121 532.333 536.819 532.602 536.549C532.872 536.27 533.193 536.046 533.565 535.879C533.937 535.712 534.319 535.628 534.709 535.628C535.267 535.628 535.733 535.74 536.105 535.963C536.486 536.186 536.77 536.521 536.956 536.967C537.151 537.414 537.249 537.972 537.249 538.642V543.135H535.533V538.767C535.533 538.395 535.481 538.088 535.379 537.846C535.277 537.595 535.119 537.414 534.905 537.302C534.691 537.181 534.43 537.126 534.123 537.135C533.872 537.135 533.64 537.177 533.426 537.26C533.221 537.335 533.04 537.446 532.882 537.595C532.733 537.735 532.612 537.898 532.519 538.084C532.435 538.27 532.393 538.474 532.393 538.698V543.135H531.542C531.375 543.135 531.216 543.135 531.068 543.135C530.928 543.135 530.798 543.135 530.677 543.135ZM539.975 543.135V533.912H541.691V543.135H539.975ZM538.524 537.372V535.781H543.296V537.372H538.524Z" fill="white"/>
<path d="M353.559 504.305C318.391 503.43 284.53 499.657 253.909 493.2C223.289 486.744 196.508 477.73 175.097 466.675C153.686 455.62 138.063 442.739 129.121 428.769C120.179 414.798 118.092 400.011 122.981 385.252C127.869 370.492 139.637 356.05 157.611 342.749C175.586 329.448 199.415 317.549 227.74 307.731C256.064 297.914 288.328 290.37 322.69 285.53C357.052 280.69 392.839 278.65 428.007 279.525" stroke="#FBD348" stroke-width="6.97652"/>
<circle cx="467.969" cy="269.123" r="65.932" fill="#FBD348"/>
<path d="M427.959 260.539V250.771H431.782C432.479 250.771 433.107 250.888 433.665 251.12C434.233 251.353 434.717 251.688 435.117 252.125C435.517 252.562 435.824 253.078 436.037 253.674C436.251 254.269 436.358 254.929 436.358 255.655C436.358 256.381 436.251 257.046 436.037 257.65C435.824 258.246 435.517 258.762 435.117 259.199C434.726 259.627 434.247 259.957 433.679 260.19C433.112 260.422 432.479 260.539 431.782 260.539H427.959ZM429.466 259.241L429.424 259.087H431.712C432.205 259.087 432.642 259.008 433.024 258.85C433.414 258.692 433.74 258.469 434 258.181C434.27 257.883 434.475 257.52 434.614 257.092C434.754 256.664 434.824 256.185 434.824 255.655C434.824 255.125 434.754 254.65 434.614 254.232C434.475 253.804 434.27 253.441 434 253.143C433.731 252.846 433.405 252.618 433.024 252.46C432.642 252.302 432.205 252.223 431.712 252.223H429.382L429.466 252.097V259.241ZM441.452 260.678C440.698 260.678 440.029 260.52 439.443 260.204C438.866 259.878 438.41 259.436 438.075 258.878C437.75 258.32 437.587 257.678 437.587 256.953C437.587 256.376 437.68 255.85 437.866 255.376C438.052 254.902 438.308 254.492 438.633 254.148C438.968 253.795 439.364 253.525 439.819 253.339C440.285 253.143 440.787 253.046 441.326 253.046C441.801 253.046 442.243 253.139 442.652 253.325C443.061 253.502 443.415 253.748 443.712 254.064C444.019 254.381 444.252 254.757 444.41 255.195C444.577 255.622 444.656 256.092 444.647 256.604L444.633 257.218H438.647L438.326 256.074H443.391L443.182 256.311V255.976C443.154 255.669 443.052 255.395 442.875 255.153C442.698 254.911 442.475 254.72 442.205 254.581C441.936 254.441 441.643 254.371 441.326 254.371C440.824 254.371 440.401 254.469 440.057 254.664C439.712 254.85 439.452 255.129 439.275 255.502C439.098 255.864 439.01 256.315 439.01 256.855C439.01 257.367 439.117 257.813 439.331 258.194C439.545 258.567 439.847 258.855 440.238 259.06C440.629 259.264 441.08 259.367 441.591 259.367C441.954 259.367 442.289 259.306 442.596 259.185C442.912 259.064 443.252 258.846 443.615 258.529L444.34 259.548C444.117 259.771 443.843 259.966 443.517 260.134C443.201 260.301 442.861 260.436 442.498 260.539C442.145 260.632 441.796 260.678 441.452 260.678ZM449.321 260.678C448.642 260.678 448.032 260.511 447.493 260.176C446.962 259.841 446.539 259.385 446.223 258.808C445.916 258.232 445.763 257.585 445.763 256.869C445.763 256.153 445.916 255.506 446.223 254.929C446.539 254.353 446.962 253.897 447.493 253.562C448.032 253.227 448.642 253.06 449.321 253.06C449.972 253.06 450.562 253.195 451.093 253.464C451.632 253.725 452.041 254.083 452.32 254.539L451.525 255.515C451.376 255.302 451.186 255.106 450.953 254.929C450.721 254.753 450.474 254.613 450.214 254.511C449.953 254.409 449.702 254.357 449.46 254.357C449.014 254.357 448.614 254.469 448.26 254.692C447.916 254.906 447.642 255.204 447.437 255.585C447.232 255.967 447.13 256.395 447.13 256.869C447.13 257.343 447.237 257.771 447.451 258.153C447.665 258.525 447.949 258.822 448.302 259.046C448.655 259.269 449.046 259.38 449.474 259.38C449.725 259.38 449.967 259.339 450.2 259.255C450.441 259.171 450.674 259.046 450.897 258.878C451.12 258.711 451.33 258.506 451.525 258.264L452.32 259.241C452.023 259.66 451.595 260.004 451.037 260.273C450.488 260.543 449.916 260.678 449.321 260.678ZM453.913 260.539V253.213H455.35V260.539H453.913ZM454.611 251.595C454.304 251.595 454.067 251.516 453.899 251.357C453.732 251.199 453.648 250.976 453.648 250.688C453.648 250.418 453.732 250.199 453.899 250.032C454.076 249.864 454.313 249.781 454.611 249.781C454.918 249.781 455.155 249.86 455.323 250.018C455.49 250.176 455.574 250.399 455.574 250.688C455.574 250.957 455.485 251.176 455.309 251.344C455.141 251.511 454.909 251.595 454.611 251.595ZM460.615 260.678C459.945 260.678 459.345 260.515 458.815 260.19C458.294 259.855 457.88 259.404 457.573 258.836C457.266 258.26 457.113 257.604 457.113 256.869C457.113 256.134 457.262 255.483 457.559 254.915C457.866 254.339 458.28 253.888 458.801 253.562C459.322 253.227 459.913 253.06 460.573 253.06C460.936 253.06 461.285 253.12 461.62 253.241C461.964 253.353 462.271 253.511 462.541 253.716C462.81 253.911 463.02 254.129 463.169 254.371C463.327 254.604 463.406 254.841 463.406 255.083L462.987 255.111V250.213H464.424V260.539H462.987V258.794H463.266C463.266 259.018 463.192 259.241 463.043 259.464C462.894 259.678 462.694 259.878 462.443 260.064C462.201 260.25 461.917 260.399 461.592 260.511C461.276 260.622 460.95 260.678 460.615 260.678ZM460.811 259.436C461.248 259.436 461.634 259.325 461.969 259.101C462.304 258.878 462.564 258.576 462.75 258.194C462.945 257.804 463.043 257.362 463.043 256.869C463.043 256.376 462.945 255.939 462.75 255.557C462.564 255.167 462.304 254.86 461.969 254.636C461.634 254.413 461.248 254.302 460.811 254.302C460.373 254.302 459.987 254.413 459.652 254.636C459.318 254.86 459.052 255.167 458.857 255.557C458.671 255.939 458.578 256.376 458.578 256.869C458.578 257.362 458.671 257.804 458.857 258.194C459.052 258.576 459.318 258.878 459.652 259.101C459.987 259.325 460.373 259.436 460.811 259.436ZM469.821 260.678C469.068 260.678 468.398 260.52 467.812 260.204C467.235 259.878 466.78 259.436 466.445 258.878C466.119 258.32 465.956 257.678 465.956 256.953C465.956 256.376 466.049 255.85 466.235 255.376C466.421 254.902 466.677 254.492 467.003 254.148C467.338 253.795 467.733 253.525 468.189 253.339C468.654 253.143 469.156 253.046 469.696 253.046C470.17 253.046 470.612 253.139 471.021 253.325C471.431 253.502 471.784 253.748 472.082 254.064C472.389 254.381 472.621 254.757 472.779 255.195C472.947 255.622 473.026 256.092 473.017 256.604L473.003 257.218H467.017L466.696 256.074H471.761L471.551 256.311V255.976C471.524 255.669 471.421 255.395 471.244 255.153C471.068 254.911 470.844 254.72 470.575 254.581C470.305 254.441 470.012 254.371 469.696 254.371C469.193 254.371 468.77 254.469 468.426 254.664C468.082 254.85 467.821 255.129 467.645 255.502C467.468 255.864 467.379 256.315 467.379 256.855C467.379 257.367 467.486 257.813 467.7 258.194C467.914 258.567 468.217 258.855 468.607 259.06C468.998 259.264 469.449 259.367 469.961 259.367C470.324 259.367 470.658 259.306 470.965 259.185C471.282 259.064 471.621 258.846 471.984 258.529L472.71 259.548C472.486 259.771 472.212 259.966 471.886 260.134C471.57 260.301 471.231 260.436 470.868 260.539C470.514 260.632 470.165 260.678 469.821 260.678ZM478.726 260.539V253.213H480.163V260.539H478.726ZM479.424 251.595C479.117 251.595 478.88 251.516 478.712 251.357C478.545 251.199 478.461 250.976 478.461 250.688C478.461 250.418 478.545 250.199 478.712 250.032C478.889 249.864 479.126 249.781 479.424 249.781C479.731 249.781 479.968 249.86 480.136 250.018C480.303 250.176 480.387 250.399 480.387 250.688C480.387 250.957 480.298 251.176 480.122 251.344C479.954 251.511 479.722 251.595 479.424 251.595ZM483.168 260.539V252.39C483.168 251.971 483.261 251.599 483.447 251.274C483.633 250.948 483.889 250.692 484.214 250.506C484.54 250.32 484.917 250.227 485.344 250.227C485.642 250.227 485.921 250.283 486.182 250.395C486.442 250.506 486.651 250.655 486.81 250.841L486.321 251.944C486.2 251.832 486.065 251.744 485.917 251.678C485.777 251.604 485.642 251.567 485.512 251.567C485.317 251.567 485.149 251.599 485.01 251.664C484.879 251.72 484.782 251.813 484.717 251.944C484.651 252.064 484.619 252.213 484.619 252.39V260.539H483.893C483.772 260.539 483.651 260.539 483.531 260.539C483.41 260.539 483.289 260.539 483.168 260.539ZM481.996 254.664V253.339H486.349V254.664H481.996ZM491.998 260.539V253.213H493.435V260.539H491.998ZM492.696 251.595C492.389 251.595 492.151 251.516 491.984 251.357C491.817 251.199 491.733 250.976 491.733 250.688C491.733 250.418 491.817 250.199 491.984 250.032C492.161 249.864 492.398 249.781 492.696 249.781C493.003 249.781 493.24 249.86 493.407 250.018C493.575 250.176 493.658 250.399 493.658 250.688C493.658 250.957 493.57 251.176 493.393 251.344C493.226 251.511 492.993 251.595 492.696 251.595ZM496.551 260.539V251.344H497.988V260.539H496.551ZM495.03 254.609V253.213H499.691V254.609H495.03ZM500.804 253.911L500.274 253.269C500.636 253.102 500.934 252.911 501.167 252.697C501.399 252.483 501.515 252.297 501.515 252.139C501.515 252.018 501.464 251.911 501.362 251.818C501.26 251.716 501.167 251.632 501.083 251.567C500.878 251.399 500.739 251.26 500.664 251.148C500.599 251.037 500.567 250.92 500.567 250.799C500.567 250.576 500.646 250.399 500.804 250.269C500.962 250.13 501.167 250.06 501.418 250.06C501.678 250.06 501.911 250.13 502.115 250.269C502.329 250.399 502.497 250.581 502.618 250.813C502.739 251.046 502.799 251.32 502.799 251.637C502.799 251.878 502.748 252.116 502.646 252.348C502.543 252.581 502.399 252.799 502.213 253.004C502.036 253.209 501.827 253.39 501.585 253.548C501.343 253.706 501.083 253.827 500.804 253.911ZM506.807 260.678C506.193 260.678 505.639 260.571 505.146 260.357C504.653 260.143 504.244 259.827 503.918 259.408L504.895 258.571C505.174 258.897 505.476 259.134 505.802 259.283C506.137 259.422 506.514 259.492 506.932 259.492C507.1 259.492 507.253 259.473 507.393 259.436C507.542 259.39 507.667 259.325 507.769 259.241C507.881 259.157 507.965 259.06 508.021 258.948C508.076 258.827 508.104 258.697 508.104 258.557C508.104 258.315 508.016 258.12 507.839 257.971C507.746 257.906 507.597 257.836 507.393 257.762C507.197 257.678 506.942 257.594 506.625 257.511C506.086 257.371 505.644 257.213 505.3 257.036C504.956 256.86 504.69 256.66 504.504 256.436C504.365 256.26 504.263 256.069 504.197 255.864C504.132 255.65 504.1 255.418 504.1 255.167C504.1 254.86 504.165 254.581 504.295 254.329C504.435 254.069 504.621 253.846 504.853 253.66C505.095 253.464 505.374 253.316 505.69 253.213C506.016 253.111 506.36 253.06 506.723 253.06C507.067 253.06 507.407 253.106 507.741 253.199C508.086 253.292 508.402 253.427 508.69 253.604C508.979 253.781 509.221 253.99 509.416 254.232L508.593 255.139C508.416 254.962 508.221 254.809 508.007 254.678C507.802 254.539 507.593 254.432 507.379 254.357C507.165 254.283 506.969 254.246 506.793 254.246C506.597 254.246 506.421 254.264 506.262 254.302C506.104 254.339 505.969 254.395 505.858 254.469C505.756 254.543 505.676 254.636 505.621 254.748C505.565 254.86 505.537 254.985 505.537 255.125C505.546 255.246 505.574 255.362 505.621 255.474C505.676 255.576 505.751 255.664 505.844 255.739C505.946 255.813 506.1 255.892 506.304 255.976C506.509 256.06 506.769 256.139 507.086 256.213C507.551 256.334 507.932 256.469 508.23 256.618C508.537 256.757 508.779 256.92 508.955 257.106C509.141 257.283 509.272 257.488 509.346 257.72C509.421 257.953 509.458 258.213 509.458 258.501C509.458 258.92 509.337 259.297 509.095 259.632C508.862 259.957 508.546 260.213 508.146 260.399C507.746 260.585 507.3 260.678 506.807 260.678ZM424.271 274.539V267.213H425.722V269.515L425.583 268.957C425.685 268.604 425.857 268.283 426.099 267.995C426.35 267.706 426.634 267.478 426.95 267.311C427.276 267.143 427.611 267.06 427.955 267.06C428.113 267.06 428.262 267.074 428.401 267.102C428.55 267.13 428.666 267.162 428.75 267.199L428.373 268.762C428.262 268.716 428.136 268.678 427.997 268.65C427.866 268.613 427.736 268.595 427.606 268.595C427.355 268.595 427.113 268.646 426.88 268.748C426.657 268.841 426.457 268.976 426.28 269.153C426.113 269.32 425.978 269.52 425.876 269.753C425.773 269.976 425.722 270.222 425.722 270.492V274.539H424.271ZM430.136 274.539V267.213H431.573V274.539H430.136ZM430.834 265.595C430.527 265.595 430.289 265.516 430.122 265.357C429.954 265.199 429.871 264.976 429.871 264.688C429.871 264.418 429.954 264.199 430.122 264.032C430.299 263.864 430.536 263.781 430.834 263.781C431.141 263.781 431.378 263.86 431.545 264.018C431.713 264.176 431.796 264.399 431.796 264.688C431.796 264.957 431.708 265.176 431.531 265.344C431.364 265.511 431.131 265.595 430.834 265.595ZM437.061 277.748C436.54 277.748 436.019 277.664 435.498 277.497C434.987 277.338 434.573 277.129 434.257 276.869L434.787 275.752C434.973 275.892 435.191 276.013 435.443 276.115C435.694 276.227 435.959 276.311 436.238 276.366C436.517 276.432 436.791 276.464 437.061 276.464C437.573 276.464 438.001 276.38 438.345 276.213C438.689 276.046 438.949 275.799 439.126 275.473C439.303 275.148 439.391 274.743 439.391 274.26V272.85L439.545 272.948C439.498 273.236 439.345 273.515 439.084 273.785C438.833 274.046 438.517 274.26 438.135 274.427C437.754 274.594 437.363 274.678 436.963 274.678C436.266 274.678 435.643 274.515 435.094 274.19C434.554 273.855 434.126 273.404 433.81 272.836C433.494 272.26 433.336 271.604 433.336 270.869C433.336 270.134 433.489 269.483 433.796 268.915C434.112 268.339 434.54 267.888 435.08 267.562C435.629 267.227 436.242 267.06 436.922 267.06C437.201 267.06 437.47 267.097 437.731 267.171C437.991 267.236 438.233 267.334 438.456 267.464C438.68 267.585 438.88 267.72 439.056 267.869C439.233 268.018 439.377 268.176 439.489 268.343C439.601 268.511 439.67 268.669 439.698 268.818L439.391 268.929V267.213H440.828V274.092C440.828 274.678 440.74 275.194 440.563 275.641C440.396 276.097 440.149 276.478 439.824 276.785C439.498 277.101 439.103 277.338 438.638 277.497C438.173 277.664 437.647 277.748 437.061 277.748ZM437.117 273.353C437.573 273.353 437.977 273.246 438.331 273.032C438.684 272.818 438.959 272.525 439.154 272.153C439.349 271.781 439.447 271.353 439.447 270.869C439.447 270.385 439.345 269.957 439.14 269.585C438.945 269.204 438.67 268.906 438.317 268.692C437.973 268.478 437.573 268.371 437.117 268.371C436.67 268.371 436.27 268.483 435.917 268.706C435.573 268.92 435.298 269.218 435.094 269.599C434.898 269.971 434.801 270.395 434.801 270.869C434.801 271.343 434.898 271.771 435.094 272.153C435.298 272.525 435.573 272.818 435.917 273.032C436.27 273.246 436.67 273.353 437.117 273.353ZM442.843 274.539V264.213H444.281V268.72L444.029 268.888C444.122 268.562 444.304 268.264 444.574 267.995C444.843 267.716 445.164 267.492 445.536 267.325C445.908 267.148 446.29 267.06 446.68 267.06C447.239 267.06 447.704 267.171 448.076 267.395C448.448 267.609 448.727 267.939 448.913 268.385C449.099 268.832 449.192 269.395 449.192 270.074V274.539H447.755V270.171C447.755 269.753 447.699 269.409 447.587 269.139C447.476 268.86 447.304 268.66 447.071 268.539C446.839 268.409 446.55 268.353 446.206 268.371C445.927 268.371 445.671 268.418 445.439 268.511C445.206 268.595 445.001 268.716 444.825 268.874C444.657 269.032 444.522 269.218 444.42 269.432C444.327 269.636 444.281 269.86 444.281 270.102V274.539H443.569C443.448 274.539 443.327 274.539 443.206 274.539C443.085 274.539 442.964 274.539 442.843 274.539ZM452.049 274.539V265.344H453.486V274.539H452.049ZM450.528 268.609V267.213H455.188V268.609H450.528ZM461.203 274.539V266.39C461.203 265.971 461.296 265.599 461.482 265.274C461.668 264.948 461.924 264.692 462.249 264.506C462.575 264.32 462.951 264.227 463.379 264.227C463.677 264.227 463.956 264.283 464.217 264.395C464.477 264.506 464.686 264.655 464.844 264.841L464.356 265.944C464.235 265.832 464.1 265.744 463.951 265.678C463.812 265.604 463.677 265.567 463.547 265.567C463.351 265.567 463.184 265.599 463.044 265.664C462.914 265.72 462.817 265.813 462.751 265.944C462.686 266.064 462.654 266.213 462.654 266.39V274.539H461.928C461.807 274.539 461.686 274.539 461.565 274.539C461.445 274.539 461.324 274.539 461.203 274.539ZM460.031 268.664V267.339H464.384V268.664H460.031ZM468.905 274.678C468.189 274.678 467.547 274.515 466.98 274.19C466.422 273.855 465.98 273.404 465.654 272.836C465.329 272.26 465.166 271.604 465.166 270.869C465.166 270.134 465.329 269.483 465.654 268.915C465.98 268.339 466.422 267.888 466.98 267.562C467.547 267.227 468.189 267.06 468.905 267.06C469.612 267.06 470.245 267.227 470.803 267.562C471.37 267.888 471.817 268.339 472.142 268.915C472.468 269.483 472.631 270.134 472.631 270.869C472.631 271.604 472.468 272.26 472.142 272.836C471.817 273.404 471.37 273.855 470.803 274.19C470.245 274.515 469.612 274.678 468.905 274.678ZM468.905 273.367C469.343 273.367 469.733 273.26 470.077 273.046C470.422 272.822 470.691 272.525 470.887 272.153C471.082 271.771 471.175 271.343 471.166 270.869C471.175 270.385 471.082 269.957 470.887 269.585C470.691 269.204 470.422 268.906 470.077 268.692C469.733 268.478 469.343 268.371 468.905 268.371C468.468 268.371 468.073 268.483 467.719 268.706C467.375 268.92 467.105 269.218 466.91 269.599C466.715 269.971 466.622 270.395 466.631 270.869C466.622 271.343 466.715 271.771 466.91 272.153C467.105 272.525 467.375 272.822 467.719 273.046C468.073 273.26 468.468 273.367 468.905 273.367ZM474.197 274.539V267.213H475.648V269.515L475.508 268.957C475.611 268.604 475.783 268.283 476.025 267.995C476.276 267.706 476.56 267.478 476.876 267.311C477.201 267.143 477.536 267.06 477.88 267.06C478.039 267.06 478.187 267.074 478.327 267.102C478.476 267.13 478.592 267.162 478.676 267.199L478.299 268.762C478.187 268.716 478.062 268.678 477.922 268.65C477.792 268.613 477.662 268.595 477.532 268.595C477.28 268.595 477.039 268.646 476.806 268.748C476.583 268.841 476.383 268.976 476.206 269.153C476.039 269.32 475.904 269.52 475.801 269.753C475.699 269.976 475.648 270.222 475.648 270.492V274.539H474.197ZM484.963 277.748L486.442 274.329L486.456 275.473L482.8 267.213H484.475L486.763 272.599C486.809 272.692 486.865 272.836 486.93 273.032C486.995 273.218 487.051 273.404 487.098 273.59L486.735 273.673C486.809 273.478 486.879 273.283 486.944 273.087C487.019 272.892 487.088 272.697 487.154 272.501L489.065 267.213H490.767L487.754 274.539L486.512 277.748H484.963ZM494.999 274.678C494.283 274.678 493.641 274.515 493.074 274.19C492.516 273.855 492.074 273.404 491.748 272.836C491.423 272.26 491.26 271.604 491.26 270.869C491.26 270.134 491.423 269.483 491.748 268.915C492.074 268.339 492.516 267.888 493.074 267.562C493.641 267.227 494.283 267.06 494.999 267.06C495.706 267.06 496.339 267.227 496.897 267.562C497.464 267.888 497.911 268.339 498.236 268.915C498.562 269.483 498.725 270.134 498.725 270.869C498.725 271.604 498.562 272.26 498.236 272.836C497.911 273.404 497.464 273.855 496.897 274.19C496.339 274.515 495.706 274.678 494.999 274.678ZM494.999 273.367C495.436 273.367 495.827 273.26 496.171 273.046C496.515 272.822 496.785 272.525 496.981 272.153C497.176 271.771 497.269 271.343 497.26 270.869C497.269 270.385 497.176 269.957 496.981 269.585C496.785 269.204 496.515 268.906 496.171 268.692C495.827 268.478 495.436 268.371 494.999 268.371C494.562 268.371 494.167 268.483 493.813 268.706C493.469 268.92 493.199 269.218 493.004 269.599C492.809 269.971 492.716 270.395 492.725 270.869C492.716 271.343 492.809 271.771 493.004 272.153C493.199 272.525 493.469 272.822 493.813 273.046C494.167 273.26 494.562 273.367 494.999 273.367ZM502.858 274.678C502.337 274.678 501.881 274.557 501.491 274.315C501.109 274.073 500.812 273.734 500.598 273.297C500.393 272.86 500.291 272.339 500.291 271.734V267.213H501.728V271.343C501.728 271.771 501.793 272.143 501.923 272.46C502.063 272.767 502.258 273.004 502.509 273.171C502.77 273.339 503.081 273.422 503.444 273.422C503.714 273.422 503.96 273.38 504.184 273.297C504.407 273.204 504.598 273.078 504.756 272.92C504.923 272.762 505.053 272.571 505.146 272.348C505.239 272.125 505.286 271.883 505.286 271.622V267.213H506.723V274.539H505.286V273.004L505.537 272.836C505.425 273.18 505.235 273.492 504.965 273.771C504.704 274.05 504.393 274.273 504.03 274.441C503.667 274.599 503.277 274.678 502.858 274.678ZM508.739 274.539V267.213H510.19V269.515L510.05 268.957C510.153 268.604 510.325 268.283 510.567 267.995C510.818 267.706 511.102 267.478 511.418 267.311C511.743 267.143 512.078 267.06 512.422 267.06C512.581 267.06 512.729 267.074 512.869 267.102C513.018 267.13 513.134 267.162 513.218 267.199L512.841 268.762C512.729 268.716 512.604 268.678 512.464 268.65C512.334 268.613 512.204 268.595 512.074 268.595C511.822 268.595 511.581 268.646 511.348 268.748C511.125 268.841 510.925 268.976 510.748 269.153C510.581 269.32 510.446 269.52 510.343 269.753C510.241 269.976 510.19 270.222 510.19 270.492V274.539H508.739ZM448.605 288.678C447.926 288.678 447.317 288.511 446.777 288.176C446.247 287.841 445.824 287.385 445.508 286.808C445.201 286.232 445.047 285.585 445.047 284.869C445.047 284.153 445.201 283.506 445.508 282.929C445.824 282.353 446.247 281.897 446.777 281.562C447.317 281.227 447.926 281.06 448.605 281.06C449.256 281.06 449.847 281.195 450.377 281.464C450.917 281.725 451.326 282.083 451.605 282.539L450.81 283.515C450.661 283.302 450.47 283.106 450.238 282.929C450.005 282.753 449.759 282.613 449.498 282.511C449.238 282.409 448.987 282.357 448.745 282.357C448.298 282.357 447.898 282.469 447.545 282.692C447.201 282.906 446.926 283.204 446.722 283.585C446.517 283.967 446.415 284.395 446.415 284.869C446.415 285.343 446.522 285.771 446.735 286.153C446.949 286.525 447.233 286.822 447.587 287.046C447.94 287.269 448.331 287.38 448.759 287.38C449.01 287.38 449.252 287.339 449.484 287.255C449.726 287.171 449.959 287.046 450.182 286.878C450.405 286.711 450.614 286.506 450.81 286.264L451.605 287.241C451.307 287.66 450.88 288.004 450.321 288.273C449.773 288.543 449.201 288.678 448.605 288.678ZM456.254 288.678C455.537 288.678 454.896 288.515 454.328 288.19C453.77 287.855 453.328 287.404 453.003 286.836C452.677 286.26 452.514 285.604 452.514 284.869C452.514 284.134 452.677 283.483 453.003 282.915C453.328 282.339 453.77 281.888 454.328 281.562C454.896 281.227 455.537 281.06 456.254 281.06C456.961 281.06 457.593 281.227 458.151 281.562C458.719 281.888 459.165 282.339 459.491 282.915C459.816 283.483 459.979 284.134 459.979 284.869C459.979 285.604 459.816 286.26 459.491 286.836C459.165 287.404 458.719 287.855 458.151 288.19C457.593 288.515 456.961 288.678 456.254 288.678ZM456.254 287.367C456.691 287.367 457.082 287.26 457.426 287.046C457.77 286.822 458.04 286.525 458.235 286.153C458.43 285.771 458.523 285.343 458.514 284.869C458.523 284.385 458.43 283.957 458.235 283.585C458.04 283.204 457.77 282.906 457.426 282.692C457.082 282.478 456.691 282.371 456.254 282.371C455.816 282.371 455.421 282.483 455.068 282.706C454.723 282.92 454.454 283.218 454.258 283.599C454.063 283.971 453.97 284.395 453.979 284.869C453.97 285.343 454.063 285.771 454.258 286.153C454.454 286.525 454.723 286.822 455.068 287.046C455.421 287.26 455.816 287.367 456.254 287.367ZM464.112 288.678C463.592 288.678 463.136 288.557 462.745 288.315C462.364 288.073 462.066 287.734 461.852 287.297C461.647 286.86 461.545 286.339 461.545 285.734V281.213H462.982V285.343C462.982 285.771 463.047 286.143 463.178 286.46C463.317 286.767 463.512 287.004 463.764 287.171C464.024 287.339 464.336 287.422 464.698 287.422C464.968 287.422 465.215 287.38 465.438 287.297C465.661 287.204 465.852 287.078 466.01 286.92C466.178 286.762 466.308 286.571 466.401 286.348C466.494 286.125 466.54 285.883 466.54 285.622V281.213H467.977V288.539H466.54V287.004L466.791 286.836C466.68 287.18 466.489 287.492 466.219 287.771C465.959 288.05 465.647 288.273 465.285 288.441C464.922 288.599 464.531 288.678 464.112 288.678ZM469.993 288.539V281.213H471.43V282.72L471.179 282.888C471.272 282.562 471.454 282.264 471.723 281.995C471.993 281.716 472.314 281.492 472.686 281.325C473.058 281.148 473.44 281.06 473.83 281.06C474.388 281.06 474.854 281.171 475.226 281.395C475.598 281.609 475.877 281.939 476.063 282.385C476.249 282.832 476.342 283.395 476.342 284.074V288.539H474.905V284.171C474.905 283.753 474.849 283.409 474.737 283.139C474.626 282.86 474.454 282.66 474.221 282.539C473.988 282.409 473.7 282.353 473.356 282.371C473.077 282.371 472.821 282.418 472.589 282.511C472.356 282.595 472.151 282.716 471.975 282.874C471.807 283.032 471.672 283.218 471.57 283.432C471.477 283.636 471.43 283.86 471.43 284.102V288.539H470.719C470.598 288.539 470.477 288.539 470.356 288.539C470.235 288.539 470.114 288.539 469.993 288.539ZM481.403 288.678C480.724 288.678 480.115 288.511 479.575 288.176C479.045 287.841 478.622 287.385 478.305 286.808C477.998 286.232 477.845 285.585 477.845 284.869C477.845 284.153 477.998 283.506 478.305 282.929C478.622 282.353 479.045 281.897 479.575 281.562C480.115 281.227 480.724 281.06 481.403 281.06C482.054 281.06 482.645 281.195 483.175 281.464C483.715 281.725 484.124 282.083 484.403 282.539L483.608 283.515C483.459 283.302 483.268 283.106 483.036 282.929C482.803 282.753 482.556 282.613 482.296 282.511C482.036 282.409 481.784 282.357 481.543 282.357C481.096 282.357 480.696 282.469 480.343 282.692C479.998 282.906 479.724 283.204 479.519 283.585C479.315 283.967 479.212 284.395 479.212 284.869C479.212 285.343 479.319 285.771 479.533 286.153C479.747 286.525 480.031 286.822 480.384 287.046C480.738 287.269 481.129 287.38 481.556 287.38C481.808 287.38 482.049 287.339 482.282 287.255C482.524 287.171 482.756 287.046 482.98 286.878C483.203 286.711 483.412 286.506 483.608 286.264L484.403 287.241C484.105 287.66 483.677 288.004 483.119 288.273C482.57 288.543 481.998 288.678 481.403 288.678ZM485.996 288.539V281.213H487.433V288.539H485.996ZM486.693 279.595C486.386 279.595 486.149 279.516 485.982 279.357C485.814 279.199 485.731 278.976 485.731 278.688C485.731 278.418 485.814 278.199 485.982 278.032C486.159 277.864 486.396 277.781 486.693 277.781C487 277.781 487.238 277.86 487.405 278.018C487.572 278.176 487.656 278.399 487.656 278.688C487.656 278.957 487.568 279.176 487.391 279.344C487.224 279.511 486.991 279.595 486.693 279.595ZM489.67 288.539V278.213H491.107V288.539H489.67Z" fill="#1D1D1D"/>
<circle cx="325.823" cy="112.151" r="65.932" fill="#FBD348"/>
<path d="M305.15 111.555C304.62 111.555 304.127 111.485 303.671 111.346C303.224 111.206 302.815 110.997 302.443 110.718C302.08 110.43 301.755 110.076 301.466 109.657L302.499 108.471C302.955 109.123 303.392 109.574 303.811 109.825C304.229 110.076 304.727 110.202 305.303 110.202C305.657 110.202 305.978 110.146 306.266 110.034C306.555 109.923 306.783 109.769 306.95 109.574C307.117 109.378 307.201 109.155 307.201 108.904C307.201 108.737 307.173 108.578 307.117 108.43C307.062 108.281 306.973 108.146 306.852 108.025C306.741 107.904 306.592 107.792 306.406 107.69C306.229 107.588 306.02 107.499 305.778 107.425C305.536 107.341 305.257 107.271 304.941 107.216C304.438 107.113 304.001 106.978 303.629 106.811C303.257 106.644 302.945 106.434 302.694 106.183C302.443 105.932 302.257 105.648 302.136 105.332C302.015 105.006 301.955 104.644 301.955 104.244C301.955 103.853 302.038 103.49 302.206 103.155C302.383 102.82 302.62 102.532 302.918 102.29C303.224 102.039 303.583 101.848 303.992 101.718C304.401 101.579 304.843 101.509 305.317 101.509C305.82 101.509 306.28 101.574 306.699 101.704C307.117 101.834 307.489 102.03 307.815 102.29C308.141 102.541 308.41 102.853 308.624 103.225L307.564 104.272C307.378 103.965 307.169 103.709 306.936 103.504C306.703 103.29 306.448 103.132 306.169 103.03C305.89 102.918 305.592 102.862 305.276 102.862C304.913 102.862 304.597 102.918 304.327 103.03C304.057 103.141 303.843 103.3 303.685 103.504C303.536 103.699 303.462 103.932 303.462 104.202C303.462 104.397 303.499 104.579 303.573 104.746C303.648 104.904 303.759 105.048 303.908 105.179C304.066 105.299 304.276 105.411 304.536 105.513C304.797 105.606 305.108 105.69 305.471 105.765C305.983 105.876 306.438 106.02 306.838 106.197C307.238 106.365 307.578 106.565 307.857 106.797C308.136 107.03 308.345 107.29 308.485 107.578C308.634 107.867 308.708 108.178 308.708 108.513C308.708 109.137 308.564 109.676 308.275 110.132C307.987 110.588 307.578 110.941 307.048 111.192C306.517 111.434 305.885 111.555 305.15 111.555ZM313.899 111.555C313.145 111.555 312.476 111.397 311.89 111.081C311.313 110.755 310.857 110.313 310.522 109.755C310.197 109.197 310.034 108.555 310.034 107.83C310.034 107.253 310.127 106.727 310.313 106.253C310.499 105.778 310.755 105.369 311.08 105.025C311.415 104.672 311.811 104.402 312.266 104.216C312.731 104.02 313.234 103.923 313.773 103.923C314.248 103.923 314.69 104.016 315.099 104.202C315.508 104.379 315.862 104.625 316.159 104.941C316.466 105.258 316.699 105.634 316.857 106.072C317.024 106.499 317.103 106.969 317.094 107.481L317.08 108.095H311.094L310.773 106.951H315.838L315.629 107.188V106.853C315.601 106.546 315.499 106.272 315.322 106.03C315.145 105.788 314.922 105.597 314.652 105.458C314.383 105.318 314.09 105.248 313.773 105.248C313.271 105.248 312.848 105.346 312.504 105.541C312.159 105.727 311.899 106.006 311.722 106.378C311.545 106.741 311.457 107.192 311.457 107.732C311.457 108.244 311.564 108.69 311.778 109.071C311.992 109.443 312.294 109.732 312.685 109.937C313.076 110.141 313.527 110.243 314.038 110.243C314.401 110.243 314.736 110.183 315.043 110.062C315.359 109.941 315.699 109.723 316.062 109.406L316.787 110.425C316.564 110.648 316.29 110.843 315.964 111.011C315.648 111.178 315.308 111.313 314.945 111.416C314.592 111.509 314.243 111.555 313.899 111.555ZM322.074 111.555C321.321 111.555 320.651 111.397 320.065 111.081C319.489 110.755 319.033 110.313 318.698 109.755C318.372 109.197 318.21 108.555 318.21 107.83C318.21 107.253 318.303 106.727 318.489 106.253C318.675 105.778 318.93 105.369 319.256 105.025C319.591 104.672 319.986 104.402 320.442 104.216C320.907 104.02 321.409 103.923 321.949 103.923C322.423 103.923 322.865 104.016 323.274 104.202C323.684 104.379 324.037 104.625 324.335 104.941C324.642 105.258 324.874 105.634 325.033 106.072C325.2 106.499 325.279 106.969 325.27 107.481L325.256 108.095H319.27L318.949 106.951H324.014L323.805 107.188V106.853C323.777 106.546 323.674 106.272 323.498 106.03C323.321 105.788 323.098 105.597 322.828 105.458C322.558 105.318 322.265 105.248 321.949 105.248C321.447 105.248 321.023 105.346 320.679 105.541C320.335 105.727 320.075 106.006 319.898 106.378C319.721 106.741 319.633 107.192 319.633 107.732C319.633 108.244 319.74 108.69 319.954 109.071C320.168 109.443 320.47 109.732 320.861 109.937C321.251 110.141 321.702 110.243 322.214 110.243C322.577 110.243 322.912 110.183 323.219 110.062C323.535 109.941 323.874 109.723 324.237 109.406L324.963 110.425C324.74 110.648 324.465 110.843 324.14 111.011C323.823 111.178 323.484 111.313 323.121 111.416C322.767 111.509 322.419 111.555 322.074 111.555ZM331.649 111.416V102.22H333.086V111.416H331.649ZM330.128 105.485V104.09H334.789V105.485H330.128ZM336.097 111.416V101.09H337.534V105.597L337.283 105.765C337.376 105.439 337.558 105.141 337.827 104.872C338.097 104.592 338.418 104.369 338.79 104.202C339.162 104.025 339.544 103.937 339.934 103.937C340.493 103.937 340.958 104.048 341.33 104.272C341.702 104.486 341.981 104.816 342.167 105.262C342.353 105.709 342.446 106.272 342.446 106.951V111.416H341.009V107.048C341.009 106.63 340.953 106.285 340.841 106.016C340.73 105.737 340.558 105.537 340.325 105.416C340.093 105.285 339.804 105.23 339.46 105.248C339.181 105.248 338.925 105.295 338.693 105.388C338.46 105.472 338.255 105.592 338.079 105.751C337.911 105.909 337.776 106.095 337.674 106.309C337.581 106.513 337.534 106.737 337.534 106.978V111.416H336.823C336.702 111.416 336.581 111.416 336.46 111.416C336.339 111.416 336.218 111.416 336.097 111.416ZM347.814 111.555C347.061 111.555 346.391 111.397 345.805 111.081C345.228 110.755 344.772 110.313 344.437 109.755C344.112 109.197 343.949 108.555 343.949 107.83C343.949 107.253 344.042 106.727 344.228 106.253C344.414 105.778 344.67 105.369 344.996 105.025C345.33 104.672 345.726 104.402 346.182 104.216C346.647 104.02 347.149 103.923 347.688 103.923C348.163 103.923 348.605 104.016 349.014 104.202C349.423 104.379 349.777 104.625 350.074 104.941C350.381 105.258 350.614 105.634 350.772 106.072C350.94 106.499 351.019 106.969 351.009 107.481L350.995 108.095H345.009L344.689 106.951H349.754L349.544 107.188V106.853C349.516 106.546 349.414 106.272 349.237 106.03C349.061 105.788 348.837 105.597 348.568 105.458C348.298 105.318 348.005 105.248 347.688 105.248C347.186 105.248 346.763 105.346 346.419 105.541C346.075 105.727 345.814 106.006 345.637 106.378C345.461 106.741 345.372 107.192 345.372 107.732C345.372 108.244 345.479 108.69 345.693 109.071C345.907 109.443 346.209 109.732 346.6 109.937C346.991 110.141 347.442 110.243 347.954 110.243C348.316 110.243 348.651 110.183 348.958 110.062C349.274 109.941 349.614 109.723 349.977 109.406L350.702 110.425C350.479 110.648 350.205 110.843 349.879 111.011C349.563 111.178 349.223 111.313 348.861 111.416C348.507 111.509 348.158 111.555 347.814 111.555ZM303.471 125.555C303.155 125.555 302.839 125.504 302.523 125.402C302.216 125.299 301.932 125.164 301.672 124.997C301.42 124.82 301.206 124.63 301.03 124.425C300.862 124.211 300.751 123.997 300.695 123.783L301.058 123.588V125.374H299.62V115.09H301.058V119.765L300.834 119.639C300.881 119.425 300.983 119.22 301.141 119.025C301.299 118.82 301.499 118.639 301.741 118.481C301.992 118.313 302.262 118.183 302.551 118.09C302.839 117.988 303.132 117.937 303.43 117.937C304.09 117.937 304.676 118.099 305.188 118.425C305.699 118.751 306.104 119.202 306.402 119.778C306.699 120.346 306.848 120.997 306.848 121.732C306.848 122.467 306.699 123.123 306.402 123.699C306.113 124.276 305.713 124.732 305.202 125.067C304.69 125.392 304.113 125.555 303.471 125.555ZM303.234 124.243C303.662 124.243 304.044 124.136 304.378 123.923C304.713 123.699 304.978 123.402 305.174 123.03C305.369 122.648 305.467 122.216 305.467 121.732C305.467 121.258 305.369 120.834 305.174 120.462C304.988 120.081 304.727 119.783 304.392 119.569C304.058 119.355 303.671 119.248 303.234 119.248C302.797 119.248 302.411 119.355 302.076 119.569C301.741 119.783 301.476 120.081 301.281 120.462C301.086 120.834 300.988 121.258 300.988 121.732C300.988 122.216 301.086 122.648 301.281 123.03C301.476 123.402 301.741 123.699 302.076 123.923C302.411 124.136 302.797 124.243 303.234 124.243ZM311.828 125.555C311.074 125.555 310.405 125.397 309.818 125.081C309.242 124.755 308.786 124.313 308.451 123.755C308.126 123.197 307.963 122.555 307.963 121.83C307.963 121.253 308.056 120.727 308.242 120.253C308.428 119.778 308.684 119.369 309.009 119.025C309.344 118.672 309.739 118.402 310.195 118.216C310.66 118.02 311.163 117.923 311.702 117.923C312.177 117.923 312.618 118.016 313.028 118.202C313.437 118.379 313.79 118.625 314.088 118.941C314.395 119.258 314.628 119.634 314.786 120.072C314.953 120.499 315.032 120.969 315.023 121.481L315.009 122.095H309.023L308.702 120.951H313.767L313.558 121.188V120.853C313.53 120.546 313.428 120.272 313.251 120.03C313.074 119.788 312.851 119.597 312.581 119.458C312.311 119.318 312.018 119.248 311.702 119.248C311.2 119.248 310.777 119.346 310.432 119.541C310.088 119.727 309.828 120.006 309.651 120.378C309.474 120.741 309.386 121.192 309.386 121.732C309.386 122.244 309.493 122.69 309.707 123.071C309.921 123.443 310.223 123.732 310.614 123.937C311.005 124.141 311.456 124.243 311.967 124.243C312.33 124.243 312.665 124.183 312.972 124.062C313.288 123.941 313.628 123.723 313.99 123.406L314.716 124.425C314.493 124.648 314.218 124.843 313.893 125.011C313.577 125.178 313.237 125.313 312.874 125.416C312.521 125.509 312.172 125.555 311.828 125.555ZM316.585 125.416V118.09H318.022V119.597L317.771 119.765C317.864 119.439 318.045 119.141 318.315 118.872C318.585 118.592 318.906 118.369 319.278 118.202C319.65 118.025 320.031 117.937 320.422 117.937C320.98 117.937 321.445 118.048 321.817 118.272C322.189 118.486 322.468 118.816 322.654 119.262C322.84 119.709 322.933 120.272 322.933 120.951V125.416H321.496V121.048C321.496 120.63 321.441 120.285 321.329 120.016C321.217 119.737 321.045 119.537 320.813 119.416C320.58 119.285 320.292 119.23 319.948 119.248C319.668 119.248 319.413 119.295 319.18 119.388C318.948 119.472 318.743 119.592 318.566 119.751C318.399 119.909 318.264 120.095 318.162 120.309C318.069 120.513 318.022 120.737 318.022 120.978V125.416H317.31C317.189 125.416 317.069 125.416 316.948 125.416C316.827 125.416 316.706 125.416 316.585 125.416ZM328.302 125.555C327.548 125.555 326.878 125.397 326.292 125.081C325.716 124.755 325.26 124.313 324.925 123.755C324.599 123.197 324.437 122.555 324.437 121.83C324.437 121.253 324.53 120.727 324.716 120.253C324.902 119.778 325.158 119.369 325.483 119.025C325.818 118.672 326.213 118.402 326.669 118.216C327.134 118.02 327.636 117.923 328.176 117.923C328.65 117.923 329.092 118.016 329.502 118.202C329.911 118.379 330.264 118.625 330.562 118.941C330.869 119.258 331.101 119.634 331.26 120.072C331.427 120.499 331.506 120.969 331.497 121.481L331.483 122.095H325.497L325.176 120.951H330.241L330.032 121.188V120.853C330.004 120.546 329.902 120.272 329.725 120.03C329.548 119.788 329.325 119.597 329.055 119.458C328.785 119.318 328.492 119.248 328.176 119.248C327.674 119.248 327.25 119.346 326.906 119.541C326.562 119.727 326.302 120.006 326.125 120.378C325.948 120.741 325.86 121.192 325.86 121.732C325.86 122.244 325.967 122.69 326.181 123.071C326.395 123.443 326.697 123.732 327.088 123.937C327.478 124.141 327.93 124.243 328.441 124.243C328.804 124.243 329.139 124.183 329.446 124.062C329.762 123.941 330.102 123.723 330.464 123.406L331.19 124.425C330.967 124.648 330.692 124.843 330.367 125.011C330.05 125.178 329.711 125.313 329.348 125.416C328.995 125.509 328.646 125.555 328.302 125.555ZM333.854 125.416V117.267C333.854 116.848 333.947 116.476 334.133 116.151C334.319 115.825 334.575 115.569 334.901 115.383C335.226 115.197 335.603 115.104 336.031 115.104C336.328 115.104 336.607 115.16 336.868 115.272C337.128 115.383 337.338 115.532 337.496 115.718L337.007 116.82C336.886 116.709 336.752 116.62 336.603 116.555C336.463 116.481 336.328 116.444 336.198 116.444C336.003 116.444 335.835 116.476 335.696 116.541C335.566 116.597 335.468 116.69 335.403 116.82C335.338 116.941 335.305 117.09 335.305 117.267V125.416H334.58C334.459 125.416 334.338 125.416 334.217 125.416C334.096 125.416 333.975 125.416 333.854 125.416ZM332.682 119.541V118.216H337.035V119.541H332.682ZM338.779 125.416V118.09H340.217V125.416H338.779ZM339.477 116.472C339.17 116.472 338.933 116.393 338.765 116.234C338.598 116.076 338.514 115.853 338.514 115.565C338.514 115.295 338.598 115.076 338.765 114.909C338.942 114.741 339.179 114.658 339.477 114.658C339.784 114.658 340.021 114.737 340.189 114.895C340.356 115.053 340.44 115.276 340.44 115.565C340.44 115.834 340.351 116.053 340.175 116.22C340.007 116.388 339.775 116.472 339.477 116.472ZM343.327 125.416V116.22H344.764V125.416H343.327ZM341.806 119.485V118.09H346.466V119.485H341.806ZM350.489 125.555C349.875 125.555 349.322 125.448 348.829 125.234C348.336 125.02 347.926 124.704 347.601 124.285L348.578 123.448C348.857 123.774 349.159 124.011 349.484 124.16C349.819 124.299 350.196 124.369 350.615 124.369C350.782 124.369 350.936 124.35 351.075 124.313C351.224 124.267 351.35 124.202 351.452 124.118C351.563 124.034 351.647 123.937 351.703 123.825C351.759 123.704 351.787 123.574 351.787 123.434C351.787 123.192 351.698 122.997 351.522 122.848C351.429 122.783 351.28 122.713 351.075 122.639C350.88 122.555 350.624 122.471 350.308 122.388C349.768 122.248 349.326 122.09 348.982 121.913C348.638 121.737 348.373 121.537 348.187 121.313C348.047 121.137 347.945 120.946 347.88 120.741C347.815 120.527 347.782 120.295 347.782 120.044C347.782 119.737 347.847 119.458 347.978 119.206C348.117 118.946 348.303 118.723 348.536 118.537C348.778 118.341 349.057 118.193 349.373 118.09C349.698 117.988 350.043 117.937 350.405 117.937C350.75 117.937 351.089 117.983 351.424 118.076C351.768 118.169 352.084 118.304 352.373 118.481C352.661 118.658 352.903 118.867 353.098 119.109L352.275 120.016C352.098 119.839 351.903 119.685 351.689 119.555C351.484 119.416 351.275 119.309 351.061 119.234C350.847 119.16 350.652 119.123 350.475 119.123C350.28 119.123 350.103 119.141 349.945 119.179C349.787 119.216 349.652 119.272 349.54 119.346C349.438 119.42 349.359 119.513 349.303 119.625C349.247 119.737 349.219 119.862 349.219 120.002C349.229 120.123 349.257 120.239 349.303 120.351C349.359 120.453 349.433 120.541 349.526 120.616C349.629 120.69 349.782 120.769 349.987 120.853C350.191 120.937 350.452 121.016 350.768 121.09C351.233 121.211 351.615 121.346 351.912 121.495C352.219 121.634 352.461 121.797 352.638 121.983C352.824 122.16 352.954 122.364 353.029 122.597C353.103 122.83 353.14 123.09 353.14 123.378C353.14 123.797 353.019 124.174 352.777 124.509C352.545 124.834 352.229 125.09 351.829 125.276C351.429 125.462 350.982 125.555 350.489 125.555Z" fill="#1D1D1D"/>
<circle cx="325.823" cy="495.86" r="65.932" fill="#FBD348"/>
<path d="M313.51 495.264C312.979 495.264 312.486 495.194 312.03 495.054C311.584 494.915 311.175 494.706 310.803 494.426C310.44 494.138 310.114 493.785 309.826 493.366L310.858 492.18C311.314 492.831 311.751 493.282 312.17 493.533C312.589 493.785 313.086 493.91 313.663 493.91C314.016 493.91 314.337 493.854 314.626 493.743C314.914 493.631 315.142 493.478 315.309 493.282C315.477 493.087 315.561 492.864 315.561 492.613C315.561 492.445 315.533 492.287 315.477 492.138C315.421 491.989 315.333 491.854 315.212 491.734C315.1 491.613 314.951 491.501 314.765 491.399C314.589 491.296 314.379 491.208 314.137 491.134C313.896 491.05 313.616 490.98 313.3 490.924C312.798 490.822 312.361 490.687 311.989 490.52C311.617 490.352 311.305 490.143 311.054 489.892C310.803 489.641 310.617 489.357 310.496 489.041C310.375 488.715 310.314 488.352 310.314 487.952C310.314 487.562 310.398 487.199 310.565 486.864C310.742 486.529 310.979 486.241 311.277 485.999C311.584 485.748 311.942 485.557 312.351 485.427C312.761 485.287 313.203 485.217 313.677 485.217C314.179 485.217 314.64 485.283 315.058 485.413C315.477 485.543 315.849 485.738 316.175 485.999C316.5 486.25 316.77 486.562 316.984 486.934L315.923 487.98C315.737 487.673 315.528 487.417 315.295 487.213C315.063 486.999 314.807 486.841 314.528 486.738C314.249 486.627 313.951 486.571 313.635 486.571C313.272 486.571 312.956 486.627 312.686 486.738C312.417 486.85 312.203 487.008 312.044 487.213C311.896 487.408 311.821 487.641 311.821 487.91C311.821 488.106 311.858 488.287 311.933 488.455C312.007 488.613 312.119 488.757 312.268 488.887C312.426 489.008 312.635 489.12 312.896 489.222C313.156 489.315 313.468 489.399 313.83 489.473C314.342 489.585 314.798 489.729 315.198 489.906C315.598 490.073 315.937 490.273 316.216 490.506C316.495 490.738 316.705 490.999 316.844 491.287C316.993 491.575 317.068 491.887 317.068 492.222C317.068 492.845 316.923 493.385 316.635 493.84C316.347 494.296 315.937 494.65 315.407 494.901C314.877 495.143 314.244 495.264 313.51 495.264ZM319.747 495.124V485.929H321.184V495.124H319.747ZM318.226 489.194V487.799H322.886V489.194H318.226ZM326.945 495.264C326.341 495.264 325.787 495.096 325.285 494.761C324.792 494.426 324.397 493.971 324.099 493.394C323.801 492.817 323.652 492.166 323.652 491.441C323.652 490.706 323.801 490.055 324.099 489.487C324.406 488.91 324.815 488.459 325.327 488.134C325.848 487.808 326.429 487.645 327.071 487.645C327.452 487.645 327.801 487.701 328.117 487.813C328.434 487.924 328.708 488.083 328.941 488.287C329.182 488.482 329.378 488.71 329.527 488.971C329.685 489.231 329.782 489.51 329.82 489.808L329.499 489.696V487.799H330.95V495.124H329.499V493.38L329.834 493.282C329.778 493.533 329.661 493.78 329.485 494.022C329.317 494.254 329.099 494.464 328.829 494.65C328.569 494.836 328.275 494.985 327.95 495.096C327.634 495.208 327.299 495.264 326.945 495.264ZM327.322 493.938C327.759 493.938 328.145 493.831 328.48 493.617C328.815 493.403 329.075 493.11 329.262 492.738C329.457 492.357 329.555 491.924 329.555 491.441C329.555 490.966 329.457 490.543 329.262 490.171C329.075 489.799 328.815 489.506 328.48 489.292C328.145 489.078 327.759 488.971 327.322 488.971C326.894 488.971 326.513 489.078 326.178 489.292C325.852 489.506 325.592 489.799 325.397 490.171C325.21 490.543 325.117 490.966 325.117 491.441C325.117 491.924 325.21 492.357 325.397 492.738C325.592 493.11 325.852 493.403 326.178 493.617C326.513 493.831 326.894 493.938 327.322 493.938ZM332.956 495.124V487.799H334.408V490.101L334.268 489.543C334.37 489.189 334.542 488.869 334.784 488.58C335.035 488.292 335.319 488.064 335.635 487.896C335.961 487.729 336.296 487.645 336.64 487.645C336.798 487.645 336.947 487.659 337.087 487.687C337.235 487.715 337.352 487.748 337.435 487.785L337.059 489.348C336.947 489.301 336.821 489.264 336.682 489.236C336.552 489.199 336.421 489.18 336.291 489.18C336.04 489.18 335.798 489.231 335.566 489.334C335.342 489.427 335.142 489.562 334.966 489.738C334.798 489.906 334.663 490.106 334.561 490.338C334.459 490.562 334.408 490.808 334.408 491.078V495.124H332.956ZM339.763 495.124V485.929H341.201V495.124H339.763ZM338.243 489.194V487.799H342.903V489.194H338.243ZM285.564 509.264C284.885 509.264 284.262 509.143 283.695 508.901C283.127 508.659 282.634 508.315 282.216 507.868C281.797 507.413 281.471 506.878 281.239 506.264C281.016 505.65 280.904 504.975 280.904 504.241C280.904 503.543 281.025 502.896 281.267 502.301C281.518 501.696 281.862 501.166 282.299 500.71C282.737 500.255 283.243 499.901 283.82 499.65C284.397 499.399 285.02 499.273 285.69 499.273C286.164 499.273 286.625 499.348 287.071 499.497C287.527 499.636 287.936 499.836 288.299 500.097C288.671 500.348 288.974 500.636 289.206 500.962L288.201 502.008C287.932 501.738 287.657 501.515 287.378 501.338C287.108 501.152 286.829 501.013 286.541 500.92C286.262 500.827 285.978 500.78 285.69 500.78C285.234 500.78 284.806 500.869 284.406 501.045C284.016 501.213 283.671 501.45 283.374 501.757C283.085 502.064 282.857 502.431 282.69 502.859C282.523 503.278 282.439 503.738 282.439 504.241C282.439 504.771 282.518 505.255 282.676 505.692C282.844 506.12 283.076 506.487 283.374 506.794C283.671 507.101 284.025 507.338 284.434 507.506C284.853 507.664 285.313 507.743 285.815 507.743C286.122 507.743 286.425 507.701 286.722 507.617C287.02 507.533 287.299 507.413 287.56 507.254C287.82 507.096 288.057 506.91 288.271 506.696L289.025 507.924C288.811 508.175 288.518 508.403 288.146 508.608C287.783 508.813 287.374 508.975 286.918 509.096C286.471 509.208 286.02 509.264 285.564 509.264ZM294.002 509.264C293.286 509.264 292.644 509.101 292.076 508.775C291.518 508.44 291.076 507.989 290.751 507.422C290.425 506.845 290.262 506.189 290.262 505.454C290.262 504.72 290.425 504.068 290.751 503.501C291.076 502.924 291.518 502.473 292.076 502.148C292.644 501.813 293.286 501.645 294.002 501.645C294.709 501.645 295.341 501.813 295.9 502.148C296.467 502.473 296.913 502.924 297.239 503.501C297.565 504.068 297.727 504.72 297.727 505.454C297.727 506.189 297.565 506.845 297.239 507.422C296.913 507.989 296.467 508.44 295.9 508.775C295.341 509.101 294.709 509.264 294.002 509.264ZM294.002 507.952C294.439 507.952 294.83 507.845 295.174 507.631C295.518 507.408 295.788 507.11 295.983 506.738C296.179 506.357 296.272 505.929 296.262 505.454C296.272 504.971 296.179 504.543 295.983 504.171C295.788 503.789 295.518 503.492 295.174 503.278C294.83 503.064 294.439 502.957 294.002 502.957C293.565 502.957 293.169 503.069 292.816 503.292C292.472 503.506 292.202 503.803 292.007 504.185C291.811 504.557 291.718 504.98 291.728 505.454C291.718 505.929 291.811 506.357 292.007 506.738C292.202 507.11 292.472 507.408 292.816 507.631C293.169 507.845 293.565 507.952 294.002 507.952ZM299.321 509.124V498.799H300.758V509.124H299.321ZM302.823 509.124V498.799H304.26V509.124H302.823ZM308.979 509.264C308.375 509.264 307.821 509.096 307.319 508.761C306.826 508.426 306.431 507.971 306.133 507.394C305.835 506.817 305.686 506.166 305.686 505.441C305.686 504.706 305.835 504.055 306.133 503.487C306.44 502.91 306.849 502.459 307.361 502.134C307.882 501.808 308.463 501.645 309.105 501.645C309.486 501.645 309.835 501.701 310.151 501.813C310.468 501.924 310.742 502.083 310.975 502.287C311.217 502.482 311.412 502.71 311.561 502.971C311.719 503.231 311.817 503.51 311.854 503.808L311.533 503.696V501.799H312.984V509.124H311.533V507.38L311.868 507.282C311.812 507.533 311.696 507.78 311.519 508.022C311.351 508.254 311.133 508.464 310.863 508.65C310.603 508.836 310.31 508.985 309.984 509.096C309.668 509.208 309.333 509.264 308.979 509.264ZM309.356 507.938C309.793 507.938 310.179 507.831 310.514 507.617C310.849 507.403 311.11 507.11 311.296 506.738C311.491 506.357 311.589 505.924 311.589 505.441C311.589 504.966 311.491 504.543 311.296 504.171C311.11 503.799 310.849 503.506 310.514 503.292C310.179 503.078 309.793 502.971 309.356 502.971C308.928 502.971 308.547 503.078 308.212 503.292C307.886 503.506 307.626 503.799 307.431 504.171C307.245 504.543 307.152 504.966 307.152 505.441C307.152 505.924 307.245 506.357 307.431 506.738C307.626 507.11 307.886 507.403 308.212 507.617C308.547 507.831 308.928 507.938 309.356 507.938ZM318.842 509.264C318.525 509.264 318.209 509.213 317.893 509.11C317.586 509.008 317.302 508.873 317.042 508.706C316.79 508.529 316.577 508.338 316.4 508.133C316.232 507.92 316.121 507.706 316.065 507.492L316.428 507.296V509.082H314.991V498.799H316.428V503.473L316.204 503.348C316.251 503.134 316.353 502.929 316.511 502.734C316.67 502.529 316.87 502.348 317.111 502.189C317.363 502.022 317.632 501.892 317.921 501.799C318.209 501.696 318.502 501.645 318.8 501.645C319.46 501.645 320.046 501.808 320.558 502.134C321.069 502.459 321.474 502.91 321.772 503.487C322.069 504.055 322.218 504.706 322.218 505.441C322.218 506.175 322.069 506.831 321.772 507.408C321.483 507.985 321.083 508.44 320.572 508.775C320.06 509.101 319.483 509.264 318.842 509.264ZM318.604 507.952C319.032 507.952 319.414 507.845 319.749 507.631C320.083 507.408 320.349 507.11 320.544 506.738C320.739 506.357 320.837 505.924 320.837 505.441C320.837 504.966 320.739 504.543 320.544 504.171C320.358 503.789 320.097 503.492 319.762 503.278C319.428 503.064 319.042 502.957 318.604 502.957C318.167 502.957 317.781 503.064 317.446 503.278C317.111 503.492 316.846 503.789 316.651 504.171C316.456 504.543 316.358 504.966 316.358 505.441C316.358 505.924 316.456 506.357 316.651 506.738C316.846 507.11 317.111 507.408 317.446 507.631C317.781 507.845 318.167 507.952 318.604 507.952ZM327.072 509.264C326.356 509.264 325.714 509.101 325.147 508.775C324.589 508.44 324.147 507.989 323.821 507.422C323.496 506.845 323.333 506.189 323.333 505.454C323.333 504.72 323.496 504.068 323.821 503.501C324.147 502.924 324.589 502.473 325.147 502.148C325.714 501.813 326.356 501.645 327.072 501.645C327.779 501.645 328.412 501.813 328.97 502.148C329.537 502.473 329.984 502.924 330.309 503.501C330.635 504.068 330.798 504.72 330.798 505.454C330.798 506.189 330.635 506.845 330.309 507.422C329.984 507.989 329.537 508.44 328.97 508.775C328.412 509.101 327.779 509.264 327.072 509.264ZM327.072 507.952C327.509 507.952 327.9 507.845 328.244 507.631C328.588 507.408 328.858 507.11 329.054 506.738C329.249 506.357 329.342 505.929 329.333 505.454C329.342 504.971 329.249 504.543 329.054 504.171C328.858 503.789 328.588 503.492 328.244 503.278C327.9 503.064 327.509 502.957 327.072 502.957C326.635 502.957 326.24 503.069 325.886 503.292C325.542 503.506 325.272 503.803 325.077 504.185C324.882 504.557 324.789 504.98 324.798 505.454C324.789 505.929 324.882 506.357 325.077 506.738C325.272 507.11 325.542 507.408 325.886 507.631C326.24 507.845 326.635 507.952 327.072 507.952ZM332.364 509.124V501.799H333.815V504.101L333.675 503.543C333.778 503.189 333.95 502.869 334.192 502.58C334.443 502.292 334.726 502.064 335.043 501.896C335.368 501.729 335.703 501.645 336.047 501.645C336.205 501.645 336.354 501.659 336.494 501.687C336.643 501.715 336.759 501.748 336.843 501.785L336.466 503.348C336.354 503.301 336.229 503.264 336.089 503.236C335.959 503.199 335.829 503.18 335.698 503.18C335.447 503.18 335.205 503.231 334.973 503.334C334.75 503.427 334.55 503.562 334.373 503.738C334.206 503.906 334.071 504.106 333.968 504.338C333.866 504.562 333.815 504.808 333.815 505.078V509.124H332.364ZM340.496 509.264C339.892 509.264 339.338 509.096 338.836 508.761C338.343 508.426 337.948 507.971 337.65 507.394C337.352 506.817 337.203 506.166 337.203 505.441C337.203 504.706 337.352 504.055 337.65 503.487C337.957 502.91 338.366 502.459 338.878 502.134C339.399 501.808 339.98 501.645 340.622 501.645C341.003 501.645 341.352 501.701 341.668 501.813C341.985 501.924 342.259 502.083 342.492 502.287C342.734 502.482 342.929 502.71 343.078 502.971C343.236 503.231 343.333 503.51 343.371 503.808L343.05 503.696V501.799H344.501V509.124H343.05V507.38L343.385 507.282C343.329 507.533 343.213 507.78 343.036 508.022C342.868 508.254 342.65 508.464 342.38 508.65C342.12 508.836 341.827 508.985 341.501 509.096C341.185 509.208 340.85 509.264 340.496 509.264ZM340.873 507.938C341.31 507.938 341.696 507.831 342.031 507.617C342.366 507.403 342.627 507.11 342.813 506.738C343.008 506.357 343.106 505.924 343.106 505.441C343.106 504.966 343.008 504.543 342.813 504.171C342.627 503.799 342.366 503.506 342.031 503.292C341.696 503.078 341.31 502.971 340.873 502.971C340.445 502.971 340.064 503.078 339.729 503.292C339.403 503.506 339.143 503.799 338.948 504.171C338.762 504.543 338.669 504.966 338.669 505.441C338.669 505.924 338.762 506.357 338.948 506.738C339.143 507.11 339.403 507.403 339.729 507.617C340.064 507.831 340.445 507.938 340.873 507.938ZM347.414 509.124V499.929H348.852V509.124H347.414ZM345.894 503.194V501.799H350.554V503.194H345.894ZM352.1 509.124V501.799H353.537V509.124H352.1ZM352.797 500.18C352.49 500.18 352.253 500.101 352.086 499.943C351.918 499.785 351.835 499.562 351.835 499.273C351.835 499.004 351.918 498.785 352.086 498.618C352.263 498.45 352.5 498.366 352.797 498.366C353.104 498.366 353.342 498.445 353.509 498.604C353.676 498.762 353.76 498.985 353.76 499.273C353.76 499.543 353.672 499.762 353.495 499.929C353.328 500.097 353.095 500.18 352.797 500.18ZM355.746 509.124V501.799H357.183V503.306L356.932 503.473C357.025 503.148 357.206 502.85 357.476 502.58C357.746 502.301 358.067 502.078 358.439 501.91C358.811 501.734 359.192 501.645 359.583 501.645C360.141 501.645 360.606 501.757 360.978 501.98C361.35 502.194 361.629 502.524 361.816 502.971C362.002 503.417 362.095 503.98 362.095 504.659V509.124H360.657V504.757C360.657 504.338 360.602 503.994 360.49 503.724C360.378 503.445 360.206 503.245 359.974 503.124C359.741 502.994 359.453 502.938 359.109 502.957C358.83 502.957 358.574 503.003 358.341 503.096C358.109 503.18 357.904 503.301 357.727 503.459C357.56 503.617 357.425 503.803 357.323 504.017C357.23 504.222 357.183 504.445 357.183 504.687V509.124H356.472C356.351 509.124 356.23 509.124 356.109 509.124C355.988 509.124 355.867 509.124 355.746 509.124ZM367.323 512.333C366.802 512.333 366.281 512.25 365.76 512.082C365.249 511.924 364.835 511.715 364.519 511.454L365.049 510.338C365.235 510.478 365.453 510.599 365.705 510.701C365.956 510.812 366.221 510.896 366.5 510.952C366.779 511.017 367.053 511.05 367.323 511.05C367.835 511.05 368.263 510.966 368.607 510.799C368.951 510.631 369.211 510.385 369.388 510.059C369.565 509.733 369.653 509.329 369.653 508.845V507.436L369.807 507.533C369.76 507.822 369.607 508.101 369.346 508.371C369.095 508.631 368.779 508.845 368.398 509.013C368.016 509.18 367.625 509.264 367.225 509.264C366.528 509.264 365.905 509.101 365.356 508.775C364.816 508.44 364.388 507.989 364.072 507.422C363.756 506.845 363.598 506.189 363.598 505.454C363.598 504.72 363.751 504.068 364.058 503.501C364.374 502.924 364.802 502.473 365.342 502.148C365.891 501.813 366.505 501.645 367.184 501.645C367.463 501.645 367.732 501.683 367.993 501.757C368.253 501.822 368.495 501.92 368.718 502.05C368.942 502.171 369.142 502.306 369.318 502.455C369.495 502.603 369.639 502.762 369.751 502.929C369.863 503.096 369.932 503.255 369.96 503.403L369.653 503.515V501.799H371.09V508.678C371.09 509.264 371.002 509.78 370.825 510.226C370.658 510.682 370.411 511.064 370.086 511.371C369.76 511.687 369.365 511.924 368.9 512.082C368.435 512.25 367.909 512.333 367.323 512.333ZM367.379 507.938C367.835 507.938 368.239 507.831 368.593 507.617C368.946 507.403 369.221 507.11 369.416 506.738C369.611 506.366 369.709 505.938 369.709 505.454C369.709 504.971 369.607 504.543 369.402 504.171C369.207 503.789 368.932 503.492 368.579 503.278C368.235 503.064 367.835 502.957 367.379 502.957C366.932 502.957 366.532 503.069 366.179 503.292C365.835 503.506 365.56 503.803 365.356 504.185C365.16 504.557 365.063 504.98 365.063 505.454C365.063 505.929 365.16 506.357 365.356 506.738C365.56 507.11 365.835 507.403 366.179 507.617C366.532 507.831 366.932 507.938 367.379 507.938Z" fill="#1D1D1D"/>
<circle cx="224.663" cy="305.75" r="65.932" fill="#FBD348"/>
<path d="M206.246 304.281C205.716 304.281 205.223 304.211 204.767 304.072C204.321 303.932 203.911 303.723 203.539 303.444C203.176 303.156 202.851 302.802 202.562 302.384L203.595 301.198C204.051 301.849 204.488 302.3 204.907 302.551C205.325 302.802 205.823 302.928 206.4 302.928C206.753 302.928 207.074 302.872 207.362 302.76C207.651 302.649 207.879 302.495 208.046 302.3C208.213 302.105 208.297 301.881 208.297 301.63C208.297 301.463 208.269 301.305 208.213 301.156C208.158 301.007 208.069 300.872 207.948 300.751C207.837 300.63 207.688 300.519 207.502 300.416C207.325 300.314 207.116 300.226 206.874 300.151C206.632 300.067 206.353 299.998 206.037 299.942C205.534 299.84 205.097 299.705 204.725 299.537C204.353 299.37 204.041 299.16 203.79 298.909C203.539 298.658 203.353 298.374 203.232 298.058C203.111 297.733 203.051 297.37 203.051 296.97C203.051 296.579 203.134 296.216 203.302 295.882C203.479 295.547 203.716 295.258 204.014 295.016C204.321 294.765 204.679 294.575 205.088 294.444C205.497 294.305 205.939 294.235 206.413 294.235C206.916 294.235 207.376 294.3 207.795 294.43C208.213 294.561 208.585 294.756 208.911 295.016C209.237 295.268 209.506 295.579 209.72 295.951L208.66 296.998C208.474 296.691 208.265 296.435 208.032 296.23C207.799 296.016 207.544 295.858 207.265 295.756C206.986 295.644 206.688 295.589 206.372 295.589C206.009 295.589 205.693 295.644 205.423 295.756C205.153 295.868 204.939 296.026 204.781 296.23C204.632 296.426 204.558 296.658 204.558 296.928C204.558 297.123 204.595 297.305 204.669 297.472C204.744 297.63 204.855 297.774 205.004 297.905C205.162 298.026 205.372 298.137 205.632 298.24C205.893 298.333 206.204 298.416 206.567 298.491C207.079 298.602 207.534 298.747 207.934 298.923C208.334 299.091 208.674 299.291 208.953 299.523C209.232 299.756 209.441 300.016 209.581 300.305C209.73 300.593 209.804 300.905 209.804 301.239C209.804 301.863 209.66 302.402 209.372 302.858C209.083 303.314 208.674 303.667 208.144 303.918C207.613 304.16 206.981 304.281 206.246 304.281ZM214.995 304.281C214.241 304.281 213.572 304.123 212.986 303.807C212.409 303.481 211.953 303.039 211.618 302.481C211.293 301.923 211.13 301.281 211.13 300.556C211.13 299.979 211.223 299.454 211.409 298.979C211.595 298.505 211.851 298.095 212.176 297.751C212.511 297.398 212.907 297.128 213.362 296.942C213.827 296.747 214.33 296.649 214.869 296.649C215.344 296.649 215.786 296.742 216.195 296.928C216.604 297.105 216.958 297.351 217.255 297.668C217.562 297.984 217.795 298.361 217.953 298.798C218.12 299.226 218.199 299.695 218.19 300.207L218.176 300.821H212.19L211.869 299.677H216.934L216.725 299.914V299.579C216.697 299.272 216.595 298.998 216.418 298.756C216.241 298.514 216.018 298.323 215.748 298.184C215.479 298.044 215.186 297.974 214.869 297.974C214.367 297.974 213.944 298.072 213.6 298.267C213.255 298.454 212.995 298.733 212.818 299.105C212.641 299.467 212.553 299.919 212.553 300.458C212.553 300.97 212.66 301.416 212.874 301.798C213.088 302.17 213.39 302.458 213.781 302.663C214.172 302.867 214.623 302.97 215.134 302.97C215.497 302.97 215.832 302.909 216.139 302.788C216.455 302.667 216.795 302.449 217.158 302.132L217.883 303.151C217.66 303.374 217.386 303.57 217.06 303.737C216.744 303.905 216.404 304.039 216.041 304.142C215.688 304.235 215.339 304.281 214.995 304.281ZM222.864 304.281C222.184 304.281 221.575 304.114 221.036 303.779C220.505 303.444 220.082 302.988 219.766 302.412C219.459 301.835 219.306 301.188 219.306 300.472C219.306 299.756 219.459 299.109 219.766 298.533C220.082 297.956 220.505 297.5 221.036 297.165C221.575 296.83 222.184 296.663 222.864 296.663C223.515 296.663 224.105 296.798 224.636 297.068C225.175 297.328 225.584 297.686 225.863 298.142L225.068 299.119C224.919 298.905 224.729 298.709 224.496 298.533C224.264 298.356 224.017 298.216 223.757 298.114C223.496 298.012 223.245 297.961 223.003 297.961C222.557 297.961 222.157 298.072 221.803 298.295C221.459 298.509 221.185 298.807 220.98 299.188C220.775 299.57 220.673 299.998 220.673 300.472C220.673 300.946 220.78 301.374 220.994 301.756C221.208 302.128 221.491 302.425 221.845 302.649C222.198 302.872 222.589 302.984 223.017 302.984C223.268 302.984 223.51 302.942 223.743 302.858C223.984 302.774 224.217 302.649 224.44 302.481C224.663 302.314 224.873 302.109 225.068 301.867L225.863 302.844C225.566 303.263 225.138 303.607 224.58 303.877C224.031 304.146 223.459 304.281 222.864 304.281ZM229.786 304.281C229.266 304.281 228.81 304.16 228.419 303.918C228.038 303.677 227.74 303.337 227.526 302.9C227.321 302.463 227.219 301.942 227.219 301.337V296.816H228.656V300.946C228.656 301.374 228.721 301.746 228.852 302.063C228.991 302.37 229.186 302.607 229.438 302.774C229.698 302.942 230.01 303.025 230.372 303.025C230.642 303.025 230.889 302.984 231.112 302.9C231.335 302.807 231.526 302.681 231.684 302.523C231.851 302.365 231.982 302.174 232.075 301.951C232.168 301.728 232.214 301.486 232.214 301.226V296.816H233.651V304.142H232.214V302.607L232.465 302.439C232.354 302.784 232.163 303.095 231.893 303.374C231.633 303.653 231.321 303.877 230.958 304.044C230.596 304.202 230.205 304.281 229.786 304.281ZM235.667 304.142V296.816H237.118V299.119L236.979 298.561C237.081 298.207 237.253 297.886 237.495 297.598C237.746 297.309 238.03 297.081 238.346 296.914C238.672 296.747 239.007 296.663 239.351 296.663C239.509 296.663 239.658 296.677 239.797 296.705C239.946 296.733 240.062 296.765 240.146 296.802L239.769 298.365C239.658 298.319 239.532 298.281 239.393 298.254C239.262 298.216 239.132 298.198 239.002 298.198C238.751 298.198 238.509 298.249 238.276 298.351C238.053 298.444 237.853 298.579 237.676 298.756C237.509 298.923 237.374 299.123 237.272 299.356C237.169 299.579 237.118 299.826 237.118 300.095V304.142H235.667ZM244.4 304.281C243.646 304.281 242.977 304.123 242.391 303.807C241.814 303.481 241.358 303.039 241.023 302.481C240.698 301.923 240.535 301.281 240.535 300.556C240.535 299.979 240.628 299.454 240.814 298.979C241 298.505 241.256 298.095 241.581 297.751C241.916 297.398 242.312 297.128 242.767 296.942C243.232 296.747 243.735 296.649 244.274 296.649C244.749 296.649 245.191 296.742 245.6 296.928C246.009 297.105 246.363 297.351 246.66 297.668C246.967 297.984 247.2 298.361 247.358 298.798C247.525 299.226 247.604 299.695 247.595 300.207L247.581 300.821H241.595L241.274 299.677H246.339L246.13 299.914V299.579C246.102 299.272 246 298.998 245.823 298.756C245.646 298.514 245.423 298.323 245.153 298.184C244.884 298.044 244.591 297.974 244.274 297.974C243.772 297.974 243.349 298.072 243.005 298.267C242.66 298.454 242.4 298.733 242.223 299.105C242.046 299.467 241.958 299.919 241.958 300.458C241.958 300.97 242.065 301.416 242.279 301.798C242.493 302.17 242.795 302.458 243.186 302.663C243.577 302.867 244.028 302.97 244.539 302.97C244.902 302.97 245.237 302.909 245.544 302.788C245.86 302.667 246.2 302.449 246.563 302.132L247.288 303.151C247.065 303.374 246.79 303.57 246.465 303.737C246.149 303.905 245.809 304.039 245.446 304.142C245.093 304.235 244.744 304.281 244.4 304.281ZM200.653 318.142V309.993C200.653 309.575 200.746 309.202 200.932 308.877C201.118 308.551 201.374 308.296 201.7 308.109C202.025 307.923 202.402 307.83 202.83 307.83C203.128 307.83 203.407 307.886 203.667 307.998C203.928 308.109 204.137 308.258 204.295 308.444L203.807 309.547C203.686 309.435 203.551 309.347 203.402 309.282C203.263 309.207 203.128 309.17 202.997 309.17C202.802 309.17 202.635 309.202 202.495 309.268C202.365 309.323 202.267 309.416 202.202 309.547C202.137 309.668 202.104 309.816 202.104 309.993V318.142H201.379C201.258 318.142 201.137 318.142 201.016 318.142C200.895 318.142 200.774 318.142 200.653 318.142ZM199.481 312.267V310.942H203.835V312.267H199.481ZM207.903 318.281C207.382 318.281 206.926 318.16 206.536 317.918C206.154 317.677 205.857 317.337 205.643 316.9C205.438 316.463 205.336 315.942 205.336 315.337V310.816H206.773V314.946C206.773 315.374 206.838 315.746 206.968 316.063C207.108 316.37 207.303 316.607 207.554 316.774C207.815 316.942 208.126 317.025 208.489 317.025C208.759 317.025 209.005 316.984 209.229 316.9C209.452 316.807 209.643 316.681 209.801 316.523C209.968 316.365 210.098 316.174 210.191 315.951C210.284 315.728 210.331 315.486 210.331 315.226V310.816H211.768V318.142H210.331V316.607L210.582 316.439C210.47 316.784 210.28 317.095 210.01 317.374C209.75 317.653 209.438 317.877 209.075 318.044C208.712 318.202 208.322 318.281 207.903 318.281ZM213.784 318.142V310.816H215.221V312.323L214.97 312.491C215.063 312.165 215.244 311.868 215.514 311.598C215.784 311.319 216.105 311.095 216.477 310.928C216.849 310.751 217.23 310.663 217.621 310.663C218.179 310.663 218.644 310.775 219.016 310.998C219.388 311.212 219.667 311.542 219.853 311.988C220.039 312.435 220.132 312.998 220.132 313.677V318.142H218.695V313.774C218.695 313.356 218.639 313.012 218.528 312.742C218.416 312.463 218.244 312.263 218.012 312.142C217.779 312.012 217.491 311.956 217.147 311.974C216.867 311.974 216.612 312.021 216.379 312.114C216.147 312.198 215.942 312.319 215.765 312.477C215.598 312.635 215.463 312.821 215.361 313.035C215.267 313.24 215.221 313.463 215.221 313.705V318.142H214.509C214.388 318.142 214.268 318.142 214.147 318.142C214.026 318.142 213.905 318.142 213.784 318.142ZM225.138 318.281C224.468 318.281 223.868 318.118 223.338 317.793C222.817 317.458 222.403 317.007 222.096 316.439C221.789 315.863 221.636 315.207 221.636 314.472C221.636 313.737 221.784 313.086 222.082 312.519C222.389 311.942 222.803 311.491 223.324 311.165C223.845 310.83 224.435 310.663 225.096 310.663C225.459 310.663 225.808 310.723 226.142 310.844C226.487 310.956 226.794 311.114 227.063 311.319C227.333 311.514 227.542 311.733 227.691 311.974C227.849 312.207 227.928 312.444 227.928 312.686L227.51 312.714V307.816H228.947V318.142H227.51V316.398H227.789C227.789 316.621 227.714 316.844 227.566 317.067C227.417 317.281 227.217 317.481 226.966 317.667C226.724 317.853 226.44 318.002 226.114 318.114C225.798 318.225 225.473 318.281 225.138 318.281ZM225.333 317.039C225.77 317.039 226.156 316.928 226.491 316.705C226.826 316.481 227.087 316.179 227.273 315.798C227.468 315.407 227.566 314.965 227.566 314.472C227.566 313.979 227.468 313.542 227.273 313.16C227.087 312.77 226.826 312.463 226.491 312.24C226.156 312.016 225.77 311.905 225.333 311.905C224.896 311.905 224.51 312.016 224.175 312.24C223.84 312.463 223.575 312.77 223.38 313.16C223.194 313.542 223.101 313.979 223.101 314.472C223.101 314.965 223.194 315.407 223.38 315.798C223.575 316.179 223.84 316.481 224.175 316.705C224.51 316.928 224.896 317.039 225.333 317.039ZM231.163 318.142V310.816H232.6V318.142H231.163ZM231.86 309.198C231.553 309.198 231.316 309.119 231.149 308.961C230.981 308.802 230.897 308.579 230.897 308.291C230.897 308.021 230.981 307.803 231.149 307.635C231.325 307.468 231.563 307.384 231.86 307.384C232.167 307.384 232.404 307.463 232.572 307.621C232.739 307.779 232.823 308.003 232.823 308.291C232.823 308.561 232.735 308.779 232.558 308.947C232.39 309.114 232.158 309.198 231.86 309.198ZM234.809 318.142V310.816H236.246V312.323L235.995 312.491C236.088 312.165 236.269 311.868 236.539 311.598C236.809 311.319 237.13 311.095 237.502 310.928C237.874 310.751 238.255 310.663 238.646 310.663C239.204 310.663 239.669 310.775 240.041 310.998C240.413 311.212 240.692 311.542 240.878 311.988C241.064 312.435 241.157 312.998 241.157 313.677V318.142H239.72V313.774C239.72 313.356 239.664 313.012 239.553 312.742C239.441 312.463 239.269 312.263 239.037 312.142C238.804 312.012 238.516 311.956 238.171 311.974C237.892 311.974 237.637 312.021 237.404 312.114C237.171 312.198 236.967 312.319 236.79 312.477C236.623 312.635 236.488 312.821 236.385 313.035C236.292 313.24 236.246 313.463 236.246 313.705V318.142H235.534C235.413 318.142 235.292 318.142 235.172 318.142C235.051 318.142 234.93 318.142 234.809 318.142ZM246.386 321.351C245.865 321.351 245.344 321.267 244.823 321.1C244.312 320.942 243.898 320.732 243.581 320.472L244.112 319.356C244.298 319.495 244.516 319.616 244.767 319.718C245.019 319.83 245.284 319.914 245.563 319.97C245.842 320.035 246.116 320.067 246.386 320.067C246.898 320.067 247.325 319.984 247.67 319.816C248.014 319.649 248.274 319.402 248.451 319.077C248.628 318.751 248.716 318.346 248.716 317.863V316.453L248.87 316.551C248.823 316.839 248.67 317.119 248.409 317.388C248.158 317.649 247.842 317.863 247.46 318.03C247.079 318.198 246.688 318.281 246.288 318.281C245.591 318.281 244.967 318.118 244.419 317.793C243.879 317.458 243.451 317.007 243.135 316.439C242.819 315.863 242.661 315.207 242.661 314.472C242.661 313.737 242.814 313.086 243.121 312.519C243.437 311.942 243.865 311.491 244.405 311.165C244.953 310.83 245.567 310.663 246.246 310.663C246.526 310.663 246.795 310.7 247.056 310.775C247.316 310.84 247.558 310.937 247.781 311.068C248.005 311.188 248.205 311.323 248.381 311.472C248.558 311.621 248.702 311.779 248.814 311.947C248.925 312.114 248.995 312.272 249.023 312.421L248.716 312.533V310.816H250.153V317.695C250.153 318.281 250.065 318.798 249.888 319.244C249.721 319.7 249.474 320.081 249.149 320.388C248.823 320.704 248.428 320.942 247.963 321.1C247.498 321.267 246.972 321.351 246.386 321.351ZM246.442 316.956C246.898 316.956 247.302 316.849 247.656 316.635C248.009 316.421 248.284 316.128 248.479 315.756C248.674 315.384 248.772 314.956 248.772 314.472C248.772 313.988 248.67 313.56 248.465 313.188C248.27 312.807 247.995 312.509 247.642 312.295C247.298 312.081 246.898 311.974 246.442 311.974C245.995 311.974 245.595 312.086 245.242 312.309C244.898 312.523 244.623 312.821 244.419 313.202C244.223 313.574 244.126 313.998 244.126 314.472C244.126 314.946 244.223 315.374 244.419 315.756C244.623 316.128 244.898 316.421 245.242 316.635C245.595 316.849 245.995 316.956 246.442 316.956Z" fill="#1D1D1D"/>
</svg>
