<svg width="181" height="144" viewBox="0 0 181 144" fill="none" xmlns="http://www.w3.org/2000/svg">
<path d="M18.9658 144L0 118.879C11.5444 113.495 20.7525 106.916 27.6241 99.1402C34.7707 91.0654 38.344 84.3364 38.344 78.9533C38.344 75.6636 37.2445 72.5234 35.0456 69.5327C33.1215 66.243 30.0979 63.2524 25.9749 60.5608C19.653 55.4767 15.2551 50.5421 12.7813 45.757C10.3075 40.972 9.07061 35.7383 9.07061 30.0561C9.07061 20.7851 12.0942 13.4579 18.1412 8.07477C24.4632 2.69159 32.5718 0 42.467 0C50.713 0 58.1344 2.39253 64.7312 7.17758C71.6029 11.6636 76.9628 18.243 80.8109 26.9159C84.6591 35.2897 86.5831 45.0093 86.5831 56.0748C86.5831 65.6449 84.9339 75.0654 81.6355 84.3364C78.3371 93.3084 73.527 101.832 67.205 109.907C61.1579 117.682 54.0114 124.561 45.7654 130.542C37.5194 136.523 28.5862 141.009 18.9658 144ZM113.383 144L94.4169 118.879C105.961 113.495 115.169 106.916 122.041 99.1402C129.188 91.0654 132.761 84.3364 132.761 78.9533C132.761 75.6636 131.661 72.5234 129.462 69.5327C127.538 66.243 124.515 63.2524 120.392 60.5608C114.07 55.4767 109.672 50.5421 107.198 45.757C104.724 40.972 103.487 35.7383 103.487 30.0561C103.487 20.7851 106.511 13.4579 112.558 8.07477C118.88 2.69159 126.989 0 136.884 0C145.13 0 152.551 2.39253 159.148 7.17758C166.02 11.6636 171.38 18.243 175.228 26.9159C179.076 35.2897 181 45.0093 181 56.0748C181 65.6449 179.351 75.0654 176.052 84.3364C172.754 93.3084 167.944 101.832 161.622 109.907C155.575 117.682 148.428 124.561 140.182 130.542C131.936 136.523 123.003 141.009 113.383 144Z" fill="black" fill-opacity="0.1"/>
</svg>
