<svg width="32" height="32" viewBox="0 0 32 32" fill="none" xmlns="http://www.w3.org/2000/svg">
<rect width="32" height="32" rx="4" fill="#CB3C79"/>
<path fill-rule="evenodd" clip-rule="evenodd" d="M21.5439 5.52201C21.5439 5.14893 21.8463 4.84649 22.2194 4.84649C22.5925 4.84649 22.8949 5.14893 22.8949 5.52201C22.8949 5.89508 22.5925 6.19752 22.2194 6.19752C21.8463 6.19752 21.5439 5.89508 21.5439 5.52201ZM22.2194 4C21.3788 4 20.6974 4.68143 20.6974 5.52201C20.6974 5.52385 20.6974 5.52569 20.6974 5.52753L10.3335 11.4453C10.0986 11.297 9.82033 11.2112 9.52201 11.2112C8.68143 11.2112 8 11.8926 8 12.7332C8 13.3312 8.34488 13.8487 8.8466 14.0975L8.84659 24.4998C8.34541 24.7443 8.00011 25.2588 8.00011 25.8539C8.00011 26.6855 8.67424 27.3596 9.50582 27.3596C10.1264 27.3596 10.6593 26.9842 10.8898 26.448H20.8177C21.0491 26.9934 21.5896 27.3759 22.2194 27.3759C23.06 27.3759 23.7414 26.6945 23.7414 25.8539C23.7414 25.2241 23.3589 24.6837 22.8135 24.4522V6.92371C23.3589 6.69226 23.7414 6.15181 23.7414 5.52201C23.7414 4.68143 23.06 4 22.2194 4ZM11.0279 12.511C11.0385 12.5835 11.044 12.6577 11.044 12.7332C11.044 13.3629 10.6616 13.9033 10.1163 14.1348L10.1163 24.4771C10.4351 24.6187 10.6956 24.8677 10.8518 25.1783H20.8552C21.0031 24.8803 21.2457 24.6376 21.5437 24.4897L21.5437 6.8862C21.4324 6.83094 21.3287 6.76244 21.2349 6.68277L11.0279 12.511ZM8.84649 12.7332C8.84649 12.3601 9.14893 12.0577 9.52201 12.0577C9.89508 12.0577 10.1975 12.3601 10.1975 12.7332C10.1975 13.1063 9.89508 13.4087 9.52201 13.4087C9.14893 13.4087 8.84649 13.1063 8.84649 12.7332ZM22.2194 25.1784C21.8463 25.1784 21.5439 25.4808 21.5439 25.8539C21.5439 26.227 21.8463 26.5294 22.2194 26.5294C22.5925 26.5294 22.8949 26.227 22.8949 25.8539C22.8949 25.4808 22.5925 25.1784 22.2194 25.1784ZM8.81401 25.8539C8.81401 25.4718 9.12374 25.1621 9.50582 25.1621C9.8879 25.1621 10.1976 25.4718 10.1976 25.8539C10.1976 26.236 9.8879 26.5457 9.50582 26.5457C9.12374 26.5457 8.81401 26.236 8.81401 25.8539Z" fill="white"/>
</svg>
